<ttFont>
    <TTGlyph name=".notdef" xMin="50" yMin="161" xMax="216" yMax="327">
      <contour>
        <pt x="50" y="243" on="1"/>
        <pt x="50" y="259" on="0"/>
        <pt x="63" y="290" on="0"/>
        <pt x="85" y="313" on="0"/>
        <pt x="116" y="327" on="0"/>
        <pt x="133" y="327" on="1"/>
        <pt x="149" y="327" on="0"/>
        <pt x="179" y="313" on="0"/>
        <pt x="202" y="290" on="0"/>
        <pt x="216" y="259" on="0"/>
        <pt x="216" y="243" on="1"/>
        <pt x="216" y="225" on="0"/>
        <pt x="202" y="195" on="0"/>
        <pt x="179" y="173" on="0"/>
        <pt x="149" y="161" on="0"/>
        <pt x="133" y="161" on="1"/>
        <pt x="98" y="161" on="0"/>
        <pt x="50" y="208" on="0"/>
      </contour>
    </TTGlyph>
    <TTGlyph name="A" xMin="2" yMin="0" xMax="639" yMax="660">
      <contour>
        <pt x="639" y="0" on="1"/>
        <pt x="514" y="0" on="1"/>
        <pt x="439" y="192" on="1"/>
        <pt x="190" y="192" on="1"/>
        <pt x="122" y="0" on="1"/>
        <pt x="2" y="0" on="1"/>
        <pt x="258" y="660" on="1"/>
        <pt x="357" y="660" on="1"/>
      </contour>
      <contour>
        <pt x="222" y="282" on="1"/>
        <pt x="403" y="282" on="1"/>
        <pt x="308" y="525" on="1"/>
      </contour>
    </TTGlyph>
    <TTGlyph name="AE" xMin="-14" yMin="0" xMax="717" yMax="660">
      <contour>
        <pt x="717" y="0" on="1"/>
        <pt x="386" y="0" on="1"/>
        <pt x="386" y="190" on="1"/>
        <pt x="209" y="190" on="1"/>
        <pt x="108" y="0" on="1"/>
        <pt x="-14" y="0" on="1"/>
        <pt x="338" y="660" on="1"/>
        <pt x="697" y="660" on="1"/>
        <pt x="697" y="558" on="1"/>
        <pt x="495" y="558" on="1"/>
        <pt x="495" y="401" on="1"/>
        <pt x="630" y="401" on="1"/>
        <pt x="630" y="299" on="1"/>
        <pt x="495" y="299" on="1"/>
        <pt x="495" y="102" on="1"/>
        <pt x="717" y="102" on="1"/>
      </contour>
      <contour>
        <pt x="386" y="290" on="1"/>
        <pt x="386" y="524" on="1"/>
        <pt x="262" y="290" on="1"/>
      </contour>
    </TTGlyph>
    <TTGlyph name="Aacute" xMin="2" yMin="0" xMax="639" yMax="849">
      <contour>
        <pt x="639" y="0" on="1"/>
        <pt x="514" y="0" on="1"/>
        <pt x="439" y="192" on="1"/>
        <pt x="190" y="192" on="1"/>
        <pt x="122" y="0" on="1"/>
        <pt x="2" y="0" on="1"/>
        <pt x="258" y="660" on="1"/>
        <pt x="357" y="660" on="1"/>
      </contour>
      <contour>
        <pt x="222" y="282" on="1"/>
        <pt x="403" y="282" on="1"/>
        <pt x="308" y="525" on="1"/>
      </contour>
      <contour>
        <pt x="217" y="702" on="1"/>
        <pt x="202" y="738" on="1"/>
        <pt x="205" y="745" on="1"/>
        <pt x="385" y="846" on="1"/>
        <pt x="391" y="849" on="0"/>
        <pt x="395" y="849" on="1"/>
        <pt x="409" y="849" on="0"/>
        <pt x="425" y="814" on="0"/>
        <pt x="425" y="797" on="1"/>
        <pt x="425" y="786" on="0"/>
        <pt x="419" y="770" on="0"/>
        <pt x="412" y="768" on="1"/>
        <pt x="225" y="699" on="1"/>
      </contour>
    </TTGlyph>
    <TTGlyph name="Acircumflex" xMin="2" yMin="0" xMax="639" yMax="842">
      <contour>
        <pt x="639" y="0" on="1"/>
        <pt x="514" y="0" on="1"/>
        <pt x="439" y="192" on="1"/>
        <pt x="190" y="192" on="1"/>
        <pt x="122" y="0" on="1"/>
        <pt x="2" y="0" on="1"/>
        <pt x="258" y="660" on="1"/>
        <pt x="357" y="660" on="1"/>
      </contour>
      <contour>
        <pt x="222" y="282" on="1"/>
        <pt x="403" y="282" on="1"/>
        <pt x="308" y="525" on="1"/>
      </contour>
      <contour>
        <pt x="323" y="842" on="1"/>
        <pt x="433" y="743" on="1"/>
        <pt x="436" y="736" on="1"/>
        <pt x="420" y="707" on="1"/>
        <pt x="413" y="704" on="1"/>
        <pt x="319" y="745" on="1"/>
        <pt x="225" y="704" on="1"/>
        <pt x="218" y="707" on="1"/>
        <pt x="202" y="736" on="1"/>
        <pt x="205" y="743" on="1"/>
        <pt x="315" y="842" on="1"/>
      </contour>
    </TTGlyph>
    <TTGlyph name="Adieresis" xMin="2" yMin="0" xMax="639" yMax="842">
      <contour>
        <pt x="639" y="0" on="1"/>
        <pt x="514" y="0" on="1"/>
        <pt x="439" y="192" on="1"/>
        <pt x="190" y="192" on="1"/>
        <pt x="122" y="0" on="1"/>
        <pt x="2" y="0" on="1"/>
        <pt x="258" y="660" on="1"/>
        <pt x="357" y="660" on="1"/>
      </contour>
      <contour>
        <pt x="222" y="282" on="1"/>
        <pt x="403" y="282" on="1"/>
        <pt x="308" y="525" on="1"/>
      </contour>
      <contour>
        <pt x="192" y="783" on="1"/>
        <pt x="192" y="806" on="0"/>
        <pt x="226" y="842" on="0"/>
        <pt x="249" y="842" on="1"/>
        <pt x="272" y="842" on="0"/>
        <pt x="308" y="806" on="0"/>
        <pt x="308" y="783" on="1"/>
        <pt x="308" y="760" on="0"/>
        <pt x="272" y="726" on="0"/>
        <pt x="249" y="726" on="1"/>
        <pt x="226" y="726" on="0"/>
        <pt x="192" y="760" on="0"/>
      </contour>
      <contour>
        <pt x="328" y="783" on="1"/>
        <pt x="328" y="806" on="0"/>
        <pt x="362" y="842" on="0"/>
        <pt x="385" y="842" on="1"/>
        <pt x="408" y="842" on="0"/>
        <pt x="444" y="806" on="0"/>
        <pt x="444" y="783" on="1"/>
        <pt x="444" y="760" on="0"/>
        <pt x="408" y="726" on="0"/>
        <pt x="385" y="726" on="1"/>
        <pt x="362" y="726" on="0"/>
        <pt x="328" y="760" on="0"/>
      </contour>
    </TTGlyph>
    <TTGlyph name="Agrave" xMin="2" yMin="1" xMax="639" yMax="848">
      <contour>
        <pt x="639" y="1" on="1"/>
        <pt x="514" y="1" on="1"/>
        <pt x="439" y="193" on="1"/>
        <pt x="190" y="193" on="1"/>
        <pt x="122" y="1" on="1"/>
        <pt x="2" y="1" on="1"/>
        <pt x="258" y="661" on="1"/>
        <pt x="357" y="661" on="1"/>
      </contour>
      <contour>
        <pt x="222" y="283" on="1"/>
        <pt x="403" y="283" on="1"/>
        <pt x="308" y="526" on="1"/>
      </contour>
      <contour>
        <pt x="405" y="698" on="1"/>
        <pt x="218" y="767" on="1"/>
        <pt x="211" y="769" on="0"/>
        <pt x="205" y="785" on="0"/>
        <pt x="205" y="796" on="1"/>
        <pt x="205" y="813" on="0"/>
        <pt x="221" y="848" on="0"/>
        <pt x="235" y="848" on="1"/>
        <pt x="239" y="848" on="0"/>
        <pt x="245" y="845" on="1"/>
        <pt x="425" y="744" on="1"/>
        <pt x="428" y="737" on="1"/>
        <pt x="413" y="701" on="1"/>
      </contour>
    </TTGlyph>
    <TTGlyph name="Aring" xMin="2" yMin="0" xMax="647" yMax="792">
      <contour>
        <pt x="311" y="792" on="1"/>
        <pt x="355" y="792" on="0"/>
        <pt x="407" y="738" on="0"/>
        <pt x="407" y="703" on="1"/>
        <pt x="407" y="681" on="0"/>
        <pt x="385" y="646" on="0"/>
        <pt x="368" y="635" on="1"/>
        <pt x="647" y="0" on="1"/>
        <pt x="518" y="0" on="1"/>
        <pt x="443" y="202" on="1"/>
        <pt x="194" y="202" on="1"/>
        <pt x="126" y="0" on="1"/>
        <pt x="2" y="0" on="1"/>
        <pt x="255" y="635" on="1"/>
        <pt x="236" y="646" on="0"/>
        <pt x="214" y="683" on="0"/>
        <pt x="214" y="705" on="1"/>
        <pt x="214" y="740" on="0"/>
        <pt x="267" y="792" on="0"/>
      </contour>
      <contour>
        <pt x="226" y="292" on="1"/>
        <pt x="407" y="292" on="1"/>
        <pt x="312" y="525" on="1"/>
      </contour>
      <contour>
        <pt x="312" y="664" on="1"/>
        <pt x="327" y="664" on="0"/>
        <pt x="347" y="688" on="0"/>
        <pt x="347" y="703" on="1"/>
        <pt x="347" y="719" on="0"/>
        <pt x="326" y="742" on="0"/>
        <pt x="310" y="742" on="1"/>
        <pt x="293" y="742" on="0"/>
        <pt x="273" y="721" on="0"/>
        <pt x="273" y="706" on="1"/>
        <pt x="273" y="689" on="0"/>
        <pt x="296" y="664" on="0"/>
      </contour>
    </TTGlyph>
    <TTGlyph name="Atilde" xMin="2" yMin="0" xMax="639" yMax="841">
      <contour>
        <pt x="639" y="0" on="1"/>
        <pt x="514" y="0" on="1"/>
        <pt x="439" y="192" on="1"/>
        <pt x="190" y="192" on="1"/>
        <pt x="122" y="0" on="1"/>
        <pt x="2" y="0" on="1"/>
        <pt x="258" y="660" on="1"/>
        <pt x="357" y="660" on="1"/>
      </contour>
      <contour>
        <pt x="222" y="282" on="1"/>
        <pt x="403" y="282" on="1"/>
        <pt x="308" y="525" on="1"/>
      </contour>
      <contour>
        <pt x="473" y="818" on="1"/>
        <pt x="470" y="802" on="0"/>
        <pt x="457" y="769" on="0"/>
        <pt x="436" y="743" on="0"/>
        <pt x="405" y="726" on="0"/>
        <pt x="383" y="726" on="1"/>
        <pt x="371" y="726" on="0"/>
        <pt x="340" y="730" on="0"/>
        <pt x="304" y="736" on="0"/>
        <pt x="267" y="740" on="0"/>
        <pt x="250" y="740" on="1"/>
        <pt x="227" y="740" on="0"/>
        <pt x="189" y="729" on="0"/>
        <pt x="175" y="715" on="1"/>
        <pt x="162" y="738" on="1"/>
        <pt x="168" y="756" on="0"/>
        <pt x="181" y="789" on="0"/>
        <pt x="203" y="814" on="0"/>
        <pt x="235" y="829" on="0"/>
        <pt x="260" y="829" on="1"/>
        <pt x="289" y="829" on="0"/>
        <pt x="358" y="815" on="0"/>
        <pt x="385" y="815" on="1"/>
        <pt x="403" y="815" on="0"/>
        <pt x="441" y="826" on="0"/>
        <pt x="461" y="841" on="1"/>
      </contour>
    </TTGlyph>
    <TTGlyph name="B" xMin="88" yMin="-12" xMax="528" yMax="665">
      <contour>
        <pt x="468" y="493" on="1"/>
        <pt x="468" y="453" on="0"/>
        <pt x="435" y="388" on="0"/>
        <pt x="400" y="365" on="1"/>
        <pt x="460" y="345" on="0"/>
        <pt x="528" y="259" on="0"/>
        <pt x="528" y="193" on="1"/>
        <pt x="528" y="151" on="0"/>
        <pt x="498" y="77" on="0"/>
        <pt x="436" y="21" on="0"/>
        <pt x="344" y="-12" on="0"/>
        <pt x="282" y="-12" on="1"/>
        <pt x="227" y="-12" on="0"/>
        <pt x="123" y="-5" on="0"/>
        <pt x="88" y="0" on="1"/>
        <pt x="88" y="660" on="1"/>
        <pt x="99" y="661" on="0"/>
        <pt x="139" y="662" on="0"/>
        <pt x="185" y="664" on="0"/>
        <pt x="231" y="665" on="0"/>
        <pt x="249" y="665" on="1"/>
        <pt x="355" y="665" on="0"/>
        <pt x="468" y="578" on="0"/>
      </contour>
      <contour>
        <pt x="277" y="311" on="1"/>
        <pt x="258" y="311" on="0"/>
        <pt x="220" y="310" on="0"/>
        <pt x="203" y="309" on="1"/>
        <pt x="203" y="86" on="1"/>
        <pt x="221" y="84" on="0"/>
        <pt x="259" y="84" on="0"/>
        <pt x="279" y="84" on="1"/>
        <pt x="340" y="84" on="0"/>
        <pt x="408" y="144" on="0"/>
        <pt x="408" y="201" on="1"/>
        <pt x="408" y="252" on="0"/>
        <pt x="346" y="311" on="0"/>
      </contour>
      <contour>
        <pt x="268" y="571" on="1"/>
        <pt x="248" y="571" on="0"/>
        <pt x="217" y="568" on="0"/>
        <pt x="203" y="566" on="1"/>
        <pt x="203" y="395" on="1"/>
        <pt x="215" y="394" on="0"/>
        <pt x="240" y="394" on="0"/>
        <pt x="253" y="394" on="1"/>
        <pt x="297" y="394" on="0"/>
        <pt x="347" y="453" on="0"/>
        <pt x="347" y="501" on="1"/>
        <pt x="347" y="531" on="0"/>
        <pt x="306" y="571" on="0"/>
      </contour>
    </TTGlyph>
    <TTGlyph name="C" xMin="50" yMin="-12" xMax="593" yMax="665">
      <contour>
        <pt x="552" y="518" on="1"/>
        <pt x="520" y="540" on="0"/>
        <pt x="431" y="567" on="0"/>
        <pt x="374" y="567" on="1"/>
        <pt x="320" y="567" on="0"/>
        <pt x="243" y="533" on="0"/>
        <pt x="195" y="471" on="0"/>
        <pt x="172" y="384" on="0"/>
        <pt x="172" y="331" on="1"/>
        <pt x="172" y="210" on="0"/>
        <pt x="275" y="86" on="0"/>
        <pt x="372" y="86" on="1"/>
        <pt x="432" y="86" on="0"/>
        <pt x="531" y="122" on="0"/>
        <pt x="563" y="148" on="1"/>
        <pt x="593" y="49" on="1"/>
        <pt x="553" y="25" on="0"/>
        <pt x="440" y="-12" on="0"/>
        <pt x="369" y="-12" on="1"/>
        <pt x="287" y="-12" on="0"/>
        <pt x="167" y="42" on="0"/>
        <pt x="88" y="134" on="0"/>
        <pt x="50" y="255" on="0"/>
        <pt x="50" y="323" on="1"/>
        <pt x="50" y="394" on="0"/>
        <pt x="92" y="518" on="0"/>
        <pt x="175" y="611" on="0"/>
        <pt x="298" y="665" on="0"/>
        <pt x="380" y="665" on="1"/>
        <pt x="434" y="665" on="0"/>
        <pt x="542" y="642" on="0"/>
        <pt x="581" y="622" on="1"/>
      </contour>
    </TTGlyph>
    <TTGlyph name="Ccedilla" xMin="51" yMin="-218" xMax="594" yMax="665">
      <contour>
        <pt x="258" y="-193" on="1"/>
        <pt x="286" y="-145" on="1"/>
        <pt x="293" y="-145" on="1"/>
        <pt x="304" y="-150" on="0"/>
        <pt x="339" y="-157" on="0"/>
        <pt x="356" y="-157" on="1"/>
        <pt x="373" y="-157" on="0"/>
        <pt x="400" y="-144" on="0"/>
        <pt x="400" y="-127" on="1"/>
        <pt x="400" y="-109" on="0"/>
        <pt x="375" y="-96" on="0"/>
        <pt x="358" y="-96" on="1"/>
        <pt x="346" y="-96" on="0"/>
        <pt x="321" y="-100" on="0"/>
        <pt x="310" y="-103" on="1"/>
        <pt x="291" y="-77" on="1"/>
        <pt x="335" y="-10" on="1"/>
        <pt x="262" y="-4" on="0"/>
        <pt x="155" y="53" on="0"/>
        <pt x="85" y="143" on="0"/>
        <pt x="51" y="259" on="0"/>
        <pt x="51" y="323" on="1"/>
        <pt x="51" y="394" on="0"/>
        <pt x="93" y="518" on="0"/>
        <pt x="176" y="611" on="0"/>
        <pt x="299" y="665" on="0"/>
        <pt x="381" y="665" on="1"/>
        <pt x="435" y="665" on="0"/>
        <pt x="543" y="642" on="0"/>
        <pt x="582" y="622" on="1"/>
        <pt x="553" y="518" on="1"/>
        <pt x="521" y="540" on="0"/>
        <pt x="432" y="567" on="0"/>
        <pt x="375" y="567" on="1"/>
        <pt x="321" y="567" on="0"/>
        <pt x="244" y="533" on="0"/>
        <pt x="196" y="471" on="0"/>
        <pt x="173" y="384" on="0"/>
        <pt x="173" y="331" on="1"/>
        <pt x="173" y="210" on="0"/>
        <pt x="276" y="86" on="0"/>
        <pt x="373" y="86" on="1"/>
        <pt x="433" y="86" on="0"/>
        <pt x="532" y="122" on="0"/>
        <pt x="564" y="148" on="1"/>
        <pt x="594" y="49" on="1"/>
        <pt x="556" y="26" on="0"/>
        <pt x="453" y="-9" on="0"/>
        <pt x="389" y="-11" on="1"/>
        <pt x="371" y="-41" on="1"/>
        <pt x="386" y="-37" on="0"/>
        <pt x="400" y="-37" on="1"/>
        <pt x="435" y="-37" on="0"/>
        <pt x="479" y="-84" on="0"/>
        <pt x="479" y="-119" on="1"/>
        <pt x="479" y="-139" on="0"/>
        <pt x="460" y="-174" on="0"/>
        <pt x="427" y="-202" on="0"/>
        <pt x="381" y="-218" on="0"/>
        <pt x="354" y="-218" on="1"/>
        <pt x="328" y="-218" on="0"/>
        <pt x="279" y="-207" on="0"/>
        <pt x="259" y="-199" on="1"/>
      </contour>
    </TTGlyph>
    <TTGlyph name="D" xMin="88" yMin="-11" xMax="656" yMax="665">
      <contour>
        <pt x="88" y="660" on="1"/>
        <pt x="101" y="661" on="0"/>
        <pt x="157" y="663" on="0"/>
        <pt x="219" y="664" on="0"/>
        <pt x="276" y="665" on="0"/>
        <pt x="292" y="665" on="1"/>
        <pt x="389" y="665" on="0"/>
        <pt x="514" y="625" on="0"/>
        <pt x="555" y="590" on="1"/>
        <pt x="608" y="544" on="0"/>
        <pt x="656" y="402" on="0"/>
        <pt x="656" y="316" on="1"/>
        <pt x="656" y="251" on="0"/>
        <pt x="623" y="132" on="0"/>
        <pt x="538" y="42" on="0"/>
        <pt x="389" y="-11" on="0"/>
        <pt x="273" y="-11" on="1"/>
        <pt x="231" y="-11" on="0"/>
        <pt x="135" y="-5" on="0"/>
        <pt x="88" y="0" on="1"/>
      </contour>
      <contour>
        <pt x="301" y="84" on="1"/>
        <pt x="422" y="84" on="0"/>
        <pt x="533" y="200" on="0"/>
        <pt x="533" y="331" on="1"/>
        <pt x="533" y="390" on="0"/>
        <pt x="510" y="479" on="0"/>
        <pt x="454" y="539" on="0"/>
        <pt x="360" y="569" on="0"/>
        <pt x="290" y="569" on="1"/>
        <pt x="276" y="569" on="0"/>
        <pt x="229" y="569" on="0"/>
        <pt x="203" y="568" on="1"/>
        <pt x="203" y="88" on="1"/>
        <pt x="231" y="86" on="0"/>
        <pt x="283" y="84" on="0"/>
      </contour>
    </TTGlyph>
    <TTGlyph name="Dcroat" xMin="20" yMin="-11" xMax="662" yMax="665">
      <contour>
        <pt x="94" y="660" on="1"/>
        <pt x="107" y="661" on="0"/>
        <pt x="163" y="663" on="0"/>
        <pt x="225" y="664" on="0"/>
        <pt x="282" y="665" on="0"/>
        <pt x="298" y="665" on="1"/>
        <pt x="395" y="665" on="0"/>
        <pt x="520" y="625" on="0"/>
        <pt x="561" y="590" on="1"/>
        <pt x="614" y="544" on="0"/>
        <pt x="662" y="402" on="0"/>
        <pt x="662" y="316" on="1"/>
        <pt x="662" y="251" on="0"/>
        <pt x="629" y="132" on="0"/>
        <pt x="544" y="42" on="0"/>
        <pt x="395" y="-11" on="0"/>
        <pt x="279" y="-11" on="1"/>
        <pt x="237" y="-11" on="0"/>
        <pt x="141" y="-5" on="0"/>
        <pt x="94" y="0" on="1"/>
        <pt x="94" y="311" on="1"/>
        <pt x="20" y="311" on="1"/>
        <pt x="20" y="385" on="1"/>
        <pt x="94" y="385" on="1"/>
      </contour>
      <contour>
        <pt x="357" y="385" on="1"/>
        <pt x="357" y="311" on="1"/>
        <pt x="209" y="311" on="1"/>
        <pt x="209" y="88" on="1"/>
        <pt x="237" y="86" on="0"/>
        <pt x="289" y="84" on="0"/>
        <pt x="307" y="84" on="1"/>
        <pt x="428" y="84" on="0"/>
        <pt x="539" y="200" on="0"/>
        <pt x="539" y="331" on="1"/>
        <pt x="539" y="390" on="0"/>
        <pt x="516" y="479" on="0"/>
        <pt x="460" y="539" on="0"/>
        <pt x="366" y="569" on="0"/>
        <pt x="296" y="569" on="1"/>
        <pt x="282" y="569" on="0"/>
        <pt x="235" y="569" on="0"/>
        <pt x="209" y="568" on="1"/>
        <pt x="209" y="385" on="1"/>
      </contour>
    </TTGlyph>
    <TTGlyph name="E" xMin="88" yMin="0" xMax="490" yMax="660">
      <contour>
        <pt x="403" y="300" on="1"/>
        <pt x="203" y="300" on="1"/>
        <pt x="203" y="100" on="1"/>
        <pt x="490" y="100" on="1"/>
        <pt x="490" y="0" on="1"/>
        <pt x="88" y="0" on="1"/>
        <pt x="88" y="660" on="1"/>
        <pt x="470" y="660" on="1"/>
        <pt x="470" y="560" on="1"/>
        <pt x="203" y="560" on="1"/>
        <pt x="203" y="400" on="1"/>
        <pt x="403" y="400" on="1"/>
      </contour>
    </TTGlyph>
    <TTGlyph name="Eacute" xMin="88" yMin="0" xMax="490" yMax="848">
      <contour>
        <pt x="403" y="300" on="1"/>
        <pt x="203" y="300" on="1"/>
        <pt x="203" y="100" on="1"/>
        <pt x="490" y="100" on="1"/>
        <pt x="490" y="0" on="1"/>
        <pt x="88" y="0" on="1"/>
        <pt x="88" y="660" on="1"/>
        <pt x="470" y="660" on="1"/>
        <pt x="470" y="560" on="1"/>
        <pt x="203" y="560" on="1"/>
        <pt x="203" y="400" on="1"/>
        <pt x="403" y="400" on="1"/>
      </contour>
      <contour>
        <pt x="201" y="701" on="1"/>
        <pt x="186" y="737" on="1"/>
        <pt x="189" y="744" on="1"/>
        <pt x="369" y="845" on="1"/>
        <pt x="375" y="848" on="0"/>
        <pt x="379" y="848" on="1"/>
        <pt x="393" y="848" on="0"/>
        <pt x="409" y="813" on="0"/>
        <pt x="409" y="796" on="1"/>
        <pt x="409" y="785" on="0"/>
        <pt x="403" y="769" on="0"/>
        <pt x="396" y="767" on="1"/>
        <pt x="209" y="698" on="1"/>
      </contour>
    </TTGlyph>
    <TTGlyph name="Ecircumflex" xMin="88" yMin="0" xMax="490" yMax="842">
      <contour>
        <pt x="403" y="300" on="1"/>
        <pt x="203" y="300" on="1"/>
        <pt x="203" y="100" on="1"/>
        <pt x="490" y="100" on="1"/>
        <pt x="490" y="0" on="1"/>
        <pt x="88" y="0" on="1"/>
        <pt x="88" y="660" on="1"/>
        <pt x="470" y="660" on="1"/>
        <pt x="470" y="560" on="1"/>
        <pt x="203" y="560" on="1"/>
        <pt x="203" y="400" on="1"/>
        <pt x="403" y="400" on="1"/>
      </contour>
      <contour>
        <pt x="300" y="842" on="1"/>
        <pt x="410" y="743" on="1"/>
        <pt x="413" y="736" on="1"/>
        <pt x="397" y="707" on="1"/>
        <pt x="390" y="704" on="1"/>
        <pt x="296" y="745" on="1"/>
        <pt x="202" y="704" on="1"/>
        <pt x="195" y="707" on="1"/>
        <pt x="179" y="736" on="1"/>
        <pt x="182" y="743" on="1"/>
        <pt x="292" y="842" on="1"/>
      </contour>
    </TTGlyph>
    <TTGlyph name="Edieresis" xMin="88" yMin="0" xMax="490" yMax="843">
      <contour>
        <pt x="403" y="300" on="1"/>
        <pt x="203" y="300" on="1"/>
        <pt x="203" y="100" on="1"/>
        <pt x="490" y="100" on="1"/>
        <pt x="490" y="0" on="1"/>
        <pt x="88" y="0" on="1"/>
        <pt x="88" y="660" on="1"/>
        <pt x="470" y="660" on="1"/>
        <pt x="470" y="560" on="1"/>
        <pt x="203" y="560" on="1"/>
        <pt x="203" y="400" on="1"/>
        <pt x="403" y="400" on="1"/>
      </contour>
      <contour>
        <pt x="161" y="784" on="1"/>
        <pt x="161" y="807" on="0"/>
        <pt x="195" y="843" on="0"/>
        <pt x="218" y="843" on="1"/>
        <pt x="241" y="843" on="0"/>
        <pt x="277" y="807" on="0"/>
        <pt x="277" y="784" on="1"/>
        <pt x="277" y="761" on="0"/>
        <pt x="241" y="727" on="0"/>
        <pt x="218" y="727" on="1"/>
        <pt x="195" y="727" on="0"/>
        <pt x="161" y="761" on="0"/>
      </contour>
      <contour>
        <pt x="297" y="784" on="1"/>
        <pt x="297" y="807" on="0"/>
        <pt x="331" y="843" on="0"/>
        <pt x="354" y="843" on="1"/>
        <pt x="377" y="843" on="0"/>
        <pt x="413" y="807" on="0"/>
        <pt x="413" y="784" on="1"/>
        <pt x="413" y="761" on="0"/>
        <pt x="377" y="727" on="0"/>
        <pt x="354" y="727" on="1"/>
        <pt x="331" y="727" on="0"/>
        <pt x="297" y="761" on="0"/>
      </contour>
    </TTGlyph>
    <TTGlyph name="Egrave" xMin="88" yMin="0" xMax="490" yMax="848">
      <contour>
        <pt x="403" y="300" on="1"/>
        <pt x="203" y="300" on="1"/>
        <pt x="203" y="100" on="1"/>
        <pt x="490" y="100" on="1"/>
        <pt x="490" y="0" on="1"/>
        <pt x="88" y="0" on="1"/>
        <pt x="88" y="660" on="1"/>
        <pt x="470" y="660" on="1"/>
        <pt x="470" y="560" on="1"/>
        <pt x="203" y="560" on="1"/>
        <pt x="203" y="400" on="1"/>
        <pt x="403" y="400" on="1"/>
      </contour>
      <contour>
        <pt x="374" y="698" on="1"/>
        <pt x="187" y="767" on="1"/>
        <pt x="180" y="769" on="0"/>
        <pt x="174" y="785" on="0"/>
        <pt x="174" y="796" on="1"/>
        <pt x="174" y="813" on="0"/>
        <pt x="190" y="848" on="0"/>
        <pt x="204" y="848" on="1"/>
        <pt x="208" y="848" on="0"/>
        <pt x="214" y="845" on="1"/>
        <pt x="394" y="744" on="1"/>
        <pt x="397" y="737" on="1"/>
        <pt x="382" y="701" on="1"/>
      </contour>
    </TTGlyph>
    <TTGlyph name="Eth" xMin="20" yMin="-11" xMax="662" yMax="665">
      <contour>
        <pt x="94" y="660" on="1"/>
        <pt x="107" y="661" on="0"/>
        <pt x="163" y="663" on="0"/>
        <pt x="225" y="664" on="0"/>
        <pt x="282" y="665" on="0"/>
        <pt x="298" y="665" on="1"/>
        <pt x="395" y="665" on="0"/>
        <pt x="520" y="625" on="0"/>
        <pt x="561" y="590" on="1"/>
        <pt x="614" y="544" on="0"/>
        <pt x="662" y="402" on="0"/>
        <pt x="662" y="316" on="1"/>
        <pt x="662" y="251" on="0"/>
        <pt x="629" y="132" on="0"/>
        <pt x="544" y="42" on="0"/>
        <pt x="395" y="-11" on="0"/>
        <pt x="279" y="-11" on="1"/>
        <pt x="237" y="-11" on="0"/>
        <pt x="141" y="-5" on="0"/>
        <pt x="94" y="0" on="1"/>
        <pt x="94" y="311" on="1"/>
        <pt x="20" y="311" on="1"/>
        <pt x="20" y="385" on="1"/>
        <pt x="94" y="385" on="1"/>
      </contour>
      <contour>
        <pt x="357" y="385" on="1"/>
        <pt x="357" y="311" on="1"/>
        <pt x="209" y="311" on="1"/>
        <pt x="209" y="88" on="1"/>
        <pt x="237" y="86" on="0"/>
        <pt x="289" y="84" on="0"/>
        <pt x="307" y="84" on="1"/>
        <pt x="428" y="84" on="0"/>
        <pt x="539" y="200" on="0"/>
        <pt x="539" y="331" on="1"/>
        <pt x="539" y="390" on="0"/>
        <pt x="516" y="479" on="0"/>
        <pt x="460" y="539" on="0"/>
        <pt x="366" y="569" on="0"/>
        <pt x="296" y="569" on="1"/>
        <pt x="282" y="569" on="0"/>
        <pt x="235" y="569" on="0"/>
        <pt x="209" y="568" on="1"/>
        <pt x="209" y="385" on="1"/>
      </contour>
    </TTGlyph>
    <TTGlyph name="Euro" xMin="42" yMin="-12" xMax="577" yMax="665">
      <contour>
        <pt x="132" y="442" on="1"/>
        <pt x="144" y="491" on="0"/>
        <pt x="189" y="573" on="0"/>
        <pt x="255" y="632" on="0"/>
        <pt x="341" y="665" on="0"/>
        <pt x="394" y="665" on="1"/>
        <pt x="439" y="665" on="0"/>
        <pt x="533" y="642" on="0"/>
        <pt x="565" y="622" on="1"/>
        <pt x="533" y="511" on="1"/>
        <pt x="508" y="535" on="0"/>
        <pt x="436" y="567" on="0"/>
        <pt x="389" y="567" on="1"/>
        <pt x="329" y="567" on="0"/>
        <pt x="264" y="500" on="0"/>
        <pt x="250" y="442" on="1"/>
        <pt x="461" y="442" on="1"/>
        <pt x="461" y="360" on="1"/>
        <pt x="240" y="360" on="1"/>
        <pt x="240" y="307" on="1"/>
        <pt x="461" y="307" on="1"/>
        <pt x="461" y="225" on="1"/>
        <pt x="249" y="225" on="1"/>
        <pt x="278" y="86" on="0"/>
        <pt x="383" y="86" on="1"/>
        <pt x="434" y="86" on="0"/>
        <pt x="521" y="122" on="0"/>
        <pt x="547" y="150" on="1"/>
        <pt x="577" y="49" on="1"/>
        <pt x="542" y="25" on="0"/>
        <pt x="445" y="-12" on="0"/>
        <pt x="383" y="-12" on="1"/>
        <pt x="328" y="-12" on="0"/>
        <pt x="242" y="24" on="0"/>
        <pt x="178" y="88" on="0"/>
        <pt x="137" y="174" on="0"/>
        <pt x="127" y="225" on="1"/>
        <pt x="42" y="225" on="1"/>
        <pt x="42" y="307" on="1"/>
        <pt x="118" y="307" on="1"/>
        <pt x="118" y="323" on="1"/>
        <pt x="118" y="332" on="0"/>
        <pt x="118" y="351" on="0"/>
        <pt x="119" y="360" on="1"/>
        <pt x="42" y="360" on="1"/>
        <pt x="42" y="442" on="1"/>
      </contour>
    </TTGlyph>
    <TTGlyph name="F" xMin="88" yMin="0" xMax="465" yMax="660">
      <contour>
        <pt x="392" y="300" on="1"/>
        <pt x="203" y="300" on="1"/>
        <pt x="203" y="0" on="1"/>
        <pt x="88" y="0" on="1"/>
        <pt x="88" y="660" on="1"/>
        <pt x="465" y="660" on="1"/>
        <pt x="465" y="560" on="1"/>
        <pt x="203" y="560" on="1"/>
        <pt x="203" y="400" on="1"/>
        <pt x="392" y="400" on="1"/>
      </contour>
    </TTGlyph>
    <TTGlyph name="G" xMin="50" yMin="-12" xMax="600" yMax="665">
      <contour>
        <pt x="600" y="55" on="1"/>
        <pt x="555" y="25" on="0"/>
        <pt x="439" y="-12" on="0"/>
        <pt x="370" y="-12" on="1"/>
        <pt x="287" y="-12" on="0"/>
        <pt x="167" y="42" on="0"/>
        <pt x="88" y="134" on="0"/>
        <pt x="50" y="255" on="0"/>
        <pt x="50" y="323" on="1"/>
        <pt x="50" y="394" on="0"/>
        <pt x="92" y="518" on="0"/>
        <pt x="175" y="611" on="0"/>
        <pt x="299" y="665" on="0"/>
        <pt x="382" y="665" on="1"/>
        <pt x="438" y="665" on="0"/>
        <pt x="548" y="642" on="0"/>
        <pt x="591" y="622" on="1"/>
        <pt x="559" y="518" on="1"/>
        <pt x="525" y="538" on="0"/>
        <pt x="435" y="567" on="0"/>
        <pt x="378" y="567" on="1"/>
        <pt x="321" y="567" on="0"/>
        <pt x="242" y="534" on="0"/>
        <pt x="194" y="472" on="0"/>
        <pt x="172" y="385" on="0"/>
        <pt x="172" y="330" on="1"/>
        <pt x="172" y="86" on="0"/>
        <pt x="379" y="86" on="1"/>
        <pt x="416" y="86" on="0"/>
        <pt x="460" y="98" on="0"/>
        <pt x="485" y="106" on="1"/>
        <pt x="485" y="272" on="1"/>
        <pt x="600" y="272" on="1"/>
      </contour>
    </TTGlyph>
    <TTGlyph name="H" xMin="88" yMin="0" xMax="634" yMax="660">
      <contour>
        <pt x="634" y="0" on="1"/>
        <pt x="519" y="0" on="1"/>
        <pt x="519" y="290" on="1"/>
        <pt x="203" y="290" on="1"/>
        <pt x="203" y="0" on="1"/>
        <pt x="88" y="0" on="1"/>
        <pt x="88" y="660" on="1"/>
        <pt x="203" y="660" on="1"/>
        <pt x="203" y="390" on="1"/>
        <pt x="519" y="390" on="1"/>
        <pt x="519" y="660" on="1"/>
        <pt x="634" y="660" on="1"/>
      </contour>
    </TTGlyph>
    <TTGlyph name="I" xMin="88" yMin="0" xMax="203" yMax="660">
      <contour>
        <pt x="203" y="0" on="1"/>
        <pt x="88" y="0" on="1"/>
        <pt x="88" y="660" on="1"/>
        <pt x="203" y="660" on="1"/>
      </contour>
    </TTGlyph>
    <TTGlyph name="IJ" xMin="88" yMin="-156" xMax="465" yMax="660">
      <contour>
        <pt x="203" y="0" on="1"/>
        <pt x="88" y="0" on="1"/>
        <pt x="88" y="660" on="1"/>
        <pt x="203" y="660" on="1"/>
      </contour>
      <contour>
        <pt x="465" y="101" on="1"/>
        <pt x="465" y="48" on="0"/>
        <pt x="442" y="-45" on="0"/>
        <pt x="394" y="-115" on="0"/>
        <pt x="321" y="-156" on="0"/>
        <pt x="271" y="-156" on="1"/>
        <pt x="249" y="-69" on="1"/>
        <pt x="284" y="-69" on="0"/>
        <pt x="325" y="-37" on="0"/>
        <pt x="345" y="12" on="0"/>
        <pt x="350" y="73" on="0"/>
        <pt x="350" y="102" on="1"/>
        <pt x="350" y="660" on="1"/>
        <pt x="465" y="660" on="1"/>
      </contour>
    </TTGlyph>
    <TTGlyph name="Iacute" xMin="46" yMin="0" xMax="269" yMax="848">
      <contour>
        <pt x="88" y="660" on="1"/>
        <pt x="203" y="660" on="1"/>
        <pt x="203" y="0" on="1"/>
        <pt x="88" y="0" on="1"/>
      </contour>
      <contour>
        <pt x="61" y="701" on="1"/>
        <pt x="46" y="737" on="1"/>
        <pt x="49" y="744" on="1"/>
        <pt x="229" y="845" on="1"/>
        <pt x="235" y="848" on="0"/>
        <pt x="239" y="848" on="1"/>
        <pt x="253" y="848" on="0"/>
        <pt x="269" y="813" on="0"/>
        <pt x="269" y="796" on="1"/>
        <pt x="269" y="785" on="0"/>
        <pt x="263" y="769" on="0"/>
        <pt x="256" y="767" on="1"/>
        <pt x="69" y="698" on="1"/>
      </contour>
    </TTGlyph>
    <TTGlyph name="Icircumflex" xMin="26" yMin="0" xMax="260" yMax="842">
      <contour>
        <pt x="203" y="0" on="1"/>
        <pt x="88" y="0" on="1"/>
        <pt x="88" y="660" on="1"/>
        <pt x="203" y="660" on="1"/>
      </contour>
      <contour>
        <pt x="147" y="842" on="1"/>
        <pt x="257" y="743" on="1"/>
        <pt x="260" y="736" on="1"/>
        <pt x="244" y="707" on="1"/>
        <pt x="237" y="704" on="1"/>
        <pt x="143" y="745" on="1"/>
        <pt x="49" y="704" on="1"/>
        <pt x="42" y="707" on="1"/>
        <pt x="26" y="736" on="1"/>
        <pt x="29" y="743" on="1"/>
        <pt x="139" y="842" on="1"/>
      </contour>
    </TTGlyph>
    <TTGlyph name="Idieresis" xMin="21" yMin="0" xMax="273" yMax="842">
      <contour>
        <pt x="203" y="0" on="1"/>
        <pt x="88" y="0" on="1"/>
        <pt x="88" y="660" on="1"/>
        <pt x="203" y="660" on="1"/>
      </contour>
      <contour>
        <pt x="21" y="783" on="1"/>
        <pt x="21" y="806" on="0"/>
        <pt x="55" y="842" on="0"/>
        <pt x="78" y="842" on="1"/>
        <pt x="101" y="842" on="0"/>
        <pt x="137" y="806" on="0"/>
        <pt x="137" y="783" on="1"/>
        <pt x="137" y="760" on="0"/>
        <pt x="101" y="726" on="0"/>
        <pt x="78" y="726" on="1"/>
        <pt x="55" y="726" on="0"/>
        <pt x="21" y="760" on="0"/>
      </contour>
      <contour>
        <pt x="157" y="783" on="1"/>
        <pt x="157" y="806" on="0"/>
        <pt x="191" y="842" on="0"/>
        <pt x="214" y="842" on="1"/>
        <pt x="237" y="842" on="0"/>
        <pt x="273" y="806" on="0"/>
        <pt x="273" y="783" on="1"/>
        <pt x="273" y="760" on="0"/>
        <pt x="237" y="726" on="0"/>
        <pt x="214" y="726" on="1"/>
        <pt x="191" y="726" on="0"/>
        <pt x="157" y="760" on="0"/>
      </contour>
    </TTGlyph>
    <TTGlyph name="Igrave" xMin="22" yMin="0" xMax="245" yMax="848">
      <contour>
        <pt x="203" y="0" on="1"/>
        <pt x="88" y="0" on="1"/>
        <pt x="88" y="660" on="1"/>
        <pt x="203" y="660" on="1"/>
      </contour>
      <contour>
        <pt x="222" y="698" on="1"/>
        <pt x="35" y="767" on="1"/>
        <pt x="28" y="769" on="0"/>
        <pt x="22" y="785" on="0"/>
        <pt x="22" y="796" on="1"/>
        <pt x="22" y="813" on="0"/>
        <pt x="38" y="848" on="0"/>
        <pt x="52" y="848" on="1"/>
        <pt x="56" y="848" on="0"/>
        <pt x="62" y="845" on="1"/>
        <pt x="242" y="744" on="1"/>
        <pt x="245" y="737" on="1"/>
        <pt x="230" y="701" on="1"/>
      </contour>
    </TTGlyph>
    <TTGlyph name="J" xMin="-13" yMin="-156" xMax="203" yMax="660">
      <contour>
        <pt x="203" y="101" on="1"/>
        <pt x="203" y="48" on="0"/>
        <pt x="180" y="-45" on="0"/>
        <pt x="132" y="-115" on="0"/>
        <pt x="59" y="-156" on="0"/>
        <pt x="9" y="-156" on="1"/>
        <pt x="-13" y="-69" on="1"/>
        <pt x="22" y="-69" on="0"/>
        <pt x="63" y="-37" on="0"/>
        <pt x="83" y="12" on="0"/>
        <pt x="88" y="73" on="0"/>
        <pt x="88" y="102" on="1"/>
        <pt x="88" y="660" on="1"/>
        <pt x="203" y="660" on="1"/>
      </contour>
    </TTGlyph>
    <TTGlyph name="K" xMin="88" yMin="0" xMax="613" yMax="660">
      <contour>
        <pt x="203" y="0" on="1"/>
        <pt x="88" y="0" on="1"/>
        <pt x="88" y="660" on="1"/>
        <pt x="203" y="660" on="1"/>
        <pt x="203" y="372" on="1"/>
        <pt x="260" y="426" on="0"/>
        <pt x="305" y="477" on="1"/>
        <pt x="347" y="525" on="0"/>
        <pt x="415" y="616" on="0"/>
        <pt x="440" y="660" on="1"/>
        <pt x="566" y="660" on="1"/>
        <pt x="522" y="600" on="0"/>
        <pt x="442" y="500" on="0"/>
        <pt x="394" y="446" on="1"/>
        <pt x="376" y="426" on="0"/>
        <pt x="338" y="384" on="0"/>
        <pt x="318" y="363" on="1"/>
        <pt x="613" y="0" on="1"/>
        <pt x="480" y="0" on="1"/>
        <pt x="245" y="289" on="1"/>
        <pt x="203" y="250" on="1"/>
      </contour>
    </TTGlyph>
    <TTGlyph name="L" xMin="88" yMin="0" xMax="478" yMax="660">
      <contour>
        <pt x="203" y="100" on="1"/>
        <pt x="478" y="100" on="1"/>
        <pt x="478" y="0" on="1"/>
        <pt x="88" y="0" on="1"/>
        <pt x="88" y="660" on="1"/>
        <pt x="203" y="660" on="1"/>
      </contour>
    </TTGlyph>
    <TTGlyph name="M" xMin="88" yMin="0" xMax="794" yMax="660">
      <contour>
        <pt x="444" y="156" on="1"/>
        <pt x="663" y="660" on="1"/>
        <pt x="794" y="660" on="1"/>
        <pt x="794" y="0" on="1"/>
        <pt x="680" y="0" on="1"/>
        <pt x="680" y="435" on="1"/>
        <pt x="490" y="0" on="1"/>
        <pt x="398" y="0" on="1"/>
        <pt x="203" y="435" on="1"/>
        <pt x="203" y="0" on="1"/>
        <pt x="88" y="0" on="1"/>
        <pt x="88" y="660" on="1"/>
        <pt x="219" y="660" on="1"/>
      </contour>
    </TTGlyph>
    <TTGlyph name="N" xMin="88" yMin="0" xMax="634" yMax="660">
      <contour>
        <pt x="519" y="175" on="1"/>
        <pt x="519" y="660" on="1"/>
        <pt x="634" y="660" on="1"/>
        <pt x="634" y="0" on="1"/>
        <pt x="493" y="0" on="1"/>
        <pt x="203" y="484" on="1"/>
        <pt x="203" y="0" on="1"/>
        <pt x="88" y="0" on="1"/>
        <pt x="88" y="660" on="1"/>
        <pt x="229" y="660" on="1"/>
      </contour>
    </TTGlyph>
    <TTGlyph name="Ntilde" xMin="88" yMin="0" xMax="634" yMax="841">
      <contour>
        <pt x="203" y="484" on="1"/>
        <pt x="203" y="0" on="1"/>
        <pt x="88" y="0" on="1"/>
        <pt x="88" y="660" on="1"/>
        <pt x="229" y="660" on="1"/>
        <pt x="519" y="175" on="1"/>
        <pt x="519" y="660" on="1"/>
        <pt x="634" y="660" on="1"/>
        <pt x="634" y="0" on="1"/>
        <pt x="493" y="0" on="1"/>
      </contour>
      <contour>
        <pt x="500" y="818" on="1"/>
        <pt x="497" y="802" on="0"/>
        <pt x="484" y="769" on="0"/>
        <pt x="463" y="743" on="0"/>
        <pt x="432" y="726" on="0"/>
        <pt x="410" y="726" on="1"/>
        <pt x="398" y="726" on="0"/>
        <pt x="367" y="730" on="0"/>
        <pt x="331" y="736" on="0"/>
        <pt x="294" y="740" on="0"/>
        <pt x="277" y="740" on="1"/>
        <pt x="254" y="740" on="0"/>
        <pt x="216" y="729" on="0"/>
        <pt x="202" y="715" on="1"/>
        <pt x="189" y="738" on="1"/>
        <pt x="195" y="756" on="0"/>
        <pt x="208" y="789" on="0"/>
        <pt x="230" y="814" on="0"/>
        <pt x="262" y="829" on="0"/>
        <pt x="287" y="829" on="1"/>
        <pt x="316" y="829" on="0"/>
        <pt x="385" y="815" on="0"/>
        <pt x="412" y="815" on="1"/>
        <pt x="430" y="815" on="0"/>
        <pt x="468" y="826" on="0"/>
        <pt x="488" y="841" on="1"/>
      </contour>
    </TTGlyph>
    <TTGlyph name="O" xMin="49" yMin="-12" xMax="693" yMax="665">
      <contour>
        <pt x="371" y="665" on="1"/>
        <pt x="449" y="665" on="0"/>
        <pt x="569" y="611" on="0"/>
        <pt x="651" y="518" on="0"/>
        <pt x="693" y="396" on="0"/>
        <pt x="693" y="329" on="1"/>
        <pt x="693" y="263" on="0"/>
        <pt x="652" y="140" on="0"/>
        <pt x="569" y="45" on="0"/>
        <pt x="446" y="-12" on="0"/>
        <pt x="364" y="-12" on="1"/>
        <pt x="284" y="-12" on="0"/>
        <pt x="166" y="42" on="0"/>
        <pt x="88" y="134" on="0"/>
        <pt x="49" y="255" on="0"/>
        <pt x="49" y="322" on="1"/>
        <pt x="49" y="393" on="0"/>
        <pt x="92" y="518" on="0"/>
        <pt x="174" y="611" on="0"/>
        <pt x="294" y="665" on="0"/>
      </contour>
      <contour>
        <pt x="366" y="86" on="1"/>
        <pt x="421" y="86" on="0"/>
        <pt x="498" y="123" on="0"/>
        <pt x="548" y="188" on="0"/>
        <pt x="571" y="276" on="0"/>
        <pt x="571" y="326" on="1"/>
        <pt x="571" y="380" on="0"/>
        <pt x="547" y="468" on="0"/>
        <pt x="497" y="532" on="0"/>
        <pt x="420" y="567" on="0"/>
        <pt x="368" y="567" on="1"/>
        <pt x="315" y="567" on="0"/>
        <pt x="240" y="532" on="0"/>
        <pt x="193" y="470" on="0"/>
        <pt x="172" y="384" on="0"/>
        <pt x="172" y="332" on="1"/>
        <pt x="172" y="210" on="0"/>
        <pt x="272" y="86" on="0"/>
      </contour>
    </TTGlyph>
    <TTGlyph name="OE" xMin="49" yMin="-12" xMax="806" yMax="665">
      <contour>
        <pt x="806" y="0" on="1"/>
        <pt x="460" y="0" on="1"/>
        <pt x="416" y="-12" on="0"/>
        <pt x="364" y="-12" on="1"/>
        <pt x="284" y="-12" on="0"/>
        <pt x="166" y="42" on="0"/>
        <pt x="88" y="134" on="0"/>
        <pt x="49" y="255" on="0"/>
        <pt x="49" y="322" on="1"/>
        <pt x="49" y="393" on="0"/>
        <pt x="92" y="518" on="0"/>
        <pt x="174" y="611" on="0"/>
        <pt x="294" y="665" on="0"/>
        <pt x="371" y="665" on="1"/>
        <pt x="390" y="665" on="0"/>
        <pt x="426" y="662" on="0"/>
        <pt x="443" y="660" on="1"/>
        <pt x="786" y="660" on="1"/>
        <pt x="786" y="560" on="1"/>
        <pt x="538" y="560" on="1"/>
        <pt x="538" y="400" on="1"/>
        <pt x="719" y="400" on="1"/>
        <pt x="719" y="300" on="1"/>
        <pt x="538" y="300" on="1"/>
        <pt x="538" y="100" on="1"/>
        <pt x="806" y="100" on="1"/>
      </contour>
      <contour>
        <pt x="366" y="84" on="1"/>
        <pt x="397" y="84" on="0"/>
        <pt x="423" y="93" on="1"/>
        <pt x="423" y="560" on="1"/>
        <pt x="397" y="569" on="0"/>
        <pt x="368" y="569" on="1"/>
        <pt x="315" y="569" on="0"/>
        <pt x="240" y="534" on="0"/>
        <pt x="193" y="471" on="0"/>
        <pt x="172" y="384" on="0"/>
        <pt x="172" y="332" on="1"/>
        <pt x="172" y="209" on="0"/>
        <pt x="272" y="84" on="0"/>
      </contour>
    </TTGlyph>
    <TTGlyph name="Oacute" xMin="49" yMin="-12" xMax="693" yMax="848">
      <contour>
        <pt x="371" y="665" on="1"/>
        <pt x="449" y="665" on="0"/>
        <pt x="569" y="611" on="0"/>
        <pt x="651" y="518" on="0"/>
        <pt x="693" y="396" on="0"/>
        <pt x="693" y="329" on="1"/>
        <pt x="693" y="263" on="0"/>
        <pt x="652" y="140" on="0"/>
        <pt x="569" y="45" on="0"/>
        <pt x="446" y="-12" on="0"/>
        <pt x="364" y="-12" on="1"/>
        <pt x="284" y="-12" on="0"/>
        <pt x="166" y="42" on="0"/>
        <pt x="88" y="134" on="0"/>
        <pt x="49" y="255" on="0"/>
        <pt x="49" y="322" on="1"/>
        <pt x="49" y="393" on="0"/>
        <pt x="92" y="518" on="0"/>
        <pt x="174" y="611" on="0"/>
        <pt x="294" y="665" on="0"/>
      </contour>
      <contour>
        <pt x="366" y="86" on="1"/>
        <pt x="421" y="86" on="0"/>
        <pt x="498" y="123" on="0"/>
        <pt x="548" y="188" on="0"/>
        <pt x="571" y="276" on="0"/>
        <pt x="571" y="326" on="1"/>
        <pt x="571" y="380" on="0"/>
        <pt x="547" y="468" on="0"/>
        <pt x="497" y="532" on="0"/>
        <pt x="420" y="567" on="0"/>
        <pt x="368" y="567" on="1"/>
        <pt x="315" y="567" on="0"/>
        <pt x="240" y="532" on="0"/>
        <pt x="193" y="470" on="0"/>
        <pt x="172" y="384" on="0"/>
        <pt x="172" y="332" on="1"/>
        <pt x="172" y="210" on="0"/>
        <pt x="272" y="86" on="0"/>
      </contour>
      <contour>
        <pt x="313" y="701" on="1"/>
        <pt x="298" y="737" on="1"/>
        <pt x="301" y="744" on="1"/>
        <pt x="481" y="845" on="1"/>
        <pt x="487" y="848" on="0"/>
        <pt x="491" y="848" on="1"/>
        <pt x="505" y="848" on="0"/>
        <pt x="521" y="813" on="0"/>
        <pt x="521" y="796" on="1"/>
        <pt x="521" y="785" on="0"/>
        <pt x="515" y="769" on="0"/>
        <pt x="508" y="767" on="1"/>
        <pt x="321" y="698" on="1"/>
      </contour>
    </TTGlyph>
    <TTGlyph name="Ocircumflex" xMin="49" yMin="-12" xMax="693" yMax="842">
      <contour>
        <pt x="371" y="665" on="1"/>
        <pt x="449" y="665" on="0"/>
        <pt x="569" y="611" on="0"/>
        <pt x="651" y="518" on="0"/>
        <pt x="693" y="396" on="0"/>
        <pt x="693" y="329" on="1"/>
        <pt x="693" y="263" on="0"/>
        <pt x="652" y="140" on="0"/>
        <pt x="569" y="45" on="0"/>
        <pt x="446" y="-12" on="0"/>
        <pt x="364" y="-12" on="1"/>
        <pt x="284" y="-12" on="0"/>
        <pt x="166" y="42" on="0"/>
        <pt x="88" y="134" on="0"/>
        <pt x="49" y="255" on="0"/>
        <pt x="49" y="322" on="1"/>
        <pt x="49" y="393" on="0"/>
        <pt x="92" y="518" on="0"/>
        <pt x="174" y="611" on="0"/>
        <pt x="294" y="665" on="0"/>
      </contour>
      <contour>
        <pt x="366" y="86" on="1"/>
        <pt x="421" y="86" on="0"/>
        <pt x="498" y="123" on="0"/>
        <pt x="548" y="188" on="0"/>
        <pt x="571" y="276" on="0"/>
        <pt x="571" y="326" on="1"/>
        <pt x="571" y="380" on="0"/>
        <pt x="547" y="468" on="0"/>
        <pt x="497" y="532" on="0"/>
        <pt x="420" y="567" on="0"/>
        <pt x="368" y="567" on="1"/>
        <pt x="315" y="567" on="0"/>
        <pt x="240" y="532" on="0"/>
        <pt x="193" y="470" on="0"/>
        <pt x="172" y="384" on="0"/>
        <pt x="172" y="332" on="1"/>
        <pt x="172" y="210" on="0"/>
        <pt x="272" y="86" on="0"/>
      </contour>
      <contour>
        <pt x="385" y="842" on="1"/>
        <pt x="495" y="743" on="1"/>
        <pt x="498" y="736" on="1"/>
        <pt x="482" y="707" on="1"/>
        <pt x="475" y="704" on="1"/>
        <pt x="381" y="745" on="1"/>
        <pt x="287" y="704" on="1"/>
        <pt x="280" y="707" on="1"/>
        <pt x="264" y="736" on="1"/>
        <pt x="267" y="743" on="1"/>
        <pt x="377" y="842" on="1"/>
      </contour>
    </TTGlyph>
    <TTGlyph name="Odieresis" xMin="49" yMin="-12" xMax="693" yMax="842">
      <contour>
        <pt x="371" y="665" on="1"/>
        <pt x="449" y="665" on="0"/>
        <pt x="569" y="611" on="0"/>
        <pt x="651" y="518" on="0"/>
        <pt x="693" y="396" on="0"/>
        <pt x="693" y="329" on="1"/>
        <pt x="693" y="263" on="0"/>
        <pt x="652" y="140" on="0"/>
        <pt x="569" y="45" on="0"/>
        <pt x="446" y="-12" on="0"/>
        <pt x="364" y="-12" on="1"/>
        <pt x="284" y="-12" on="0"/>
        <pt x="166" y="42" on="0"/>
        <pt x="88" y="134" on="0"/>
        <pt x="49" y="255" on="0"/>
        <pt x="49" y="322" on="1"/>
        <pt x="49" y="393" on="0"/>
        <pt x="92" y="518" on="0"/>
        <pt x="174" y="611" on="0"/>
        <pt x="294" y="665" on="0"/>
      </contour>
      <contour>
        <pt x="366" y="86" on="1"/>
        <pt x="421" y="86" on="0"/>
        <pt x="498" y="123" on="0"/>
        <pt x="548" y="188" on="0"/>
        <pt x="571" y="276" on="0"/>
        <pt x="571" y="326" on="1"/>
        <pt x="571" y="380" on="0"/>
        <pt x="547" y="468" on="0"/>
        <pt x="497" y="532" on="0"/>
        <pt x="420" y="567" on="0"/>
        <pt x="368" y="567" on="1"/>
        <pt x="315" y="567" on="0"/>
        <pt x="240" y="532" on="0"/>
        <pt x="193" y="470" on="0"/>
        <pt x="172" y="384" on="0"/>
        <pt x="172" y="332" on="1"/>
        <pt x="172" y="210" on="0"/>
        <pt x="272" y="86" on="0"/>
      </contour>
      <contour>
        <pt x="246" y="783" on="1"/>
        <pt x="246" y="806" on="0"/>
        <pt x="280" y="842" on="0"/>
        <pt x="303" y="842" on="1"/>
        <pt x="326" y="842" on="0"/>
        <pt x="362" y="806" on="0"/>
        <pt x="362" y="783" on="1"/>
        <pt x="362" y="760" on="0"/>
        <pt x="326" y="726" on="0"/>
        <pt x="303" y="726" on="1"/>
        <pt x="280" y="726" on="0"/>
        <pt x="246" y="760" on="0"/>
      </contour>
      <contour>
        <pt x="382" y="783" on="1"/>
        <pt x="382" y="806" on="0"/>
        <pt x="416" y="842" on="0"/>
        <pt x="439" y="842" on="1"/>
        <pt x="462" y="842" on="0"/>
        <pt x="498" y="806" on="0"/>
        <pt x="498" y="783" on="1"/>
        <pt x="498" y="760" on="0"/>
        <pt x="462" y="726" on="0"/>
        <pt x="439" y="726" on="1"/>
        <pt x="416" y="726" on="0"/>
        <pt x="382" y="760" on="0"/>
      </contour>
    </TTGlyph>
    <TTGlyph name="Ograve" xMin="49" yMin="-12" xMax="693" yMax="848">
      <contour>
        <pt x="371" y="665" on="1"/>
        <pt x="449" y="665" on="0"/>
        <pt x="569" y="611" on="0"/>
        <pt x="651" y="518" on="0"/>
        <pt x="693" y="396" on="0"/>
        <pt x="693" y="329" on="1"/>
        <pt x="693" y="263" on="0"/>
        <pt x="652" y="140" on="0"/>
        <pt x="569" y="45" on="0"/>
        <pt x="446" y="-12" on="0"/>
        <pt x="364" y="-12" on="1"/>
        <pt x="284" y="-12" on="0"/>
        <pt x="166" y="42" on="0"/>
        <pt x="88" y="134" on="0"/>
        <pt x="49" y="255" on="0"/>
        <pt x="49" y="322" on="1"/>
        <pt x="49" y="393" on="0"/>
        <pt x="92" y="518" on="0"/>
        <pt x="174" y="611" on="0"/>
        <pt x="294" y="665" on="0"/>
      </contour>
      <contour>
        <pt x="366" y="86" on="1"/>
        <pt x="421" y="86" on="0"/>
        <pt x="498" y="123" on="0"/>
        <pt x="548" y="188" on="0"/>
        <pt x="571" y="276" on="0"/>
        <pt x="571" y="326" on="1"/>
        <pt x="571" y="380" on="0"/>
        <pt x="547" y="468" on="0"/>
        <pt x="497" y="532" on="0"/>
        <pt x="420" y="567" on="0"/>
        <pt x="368" y="567" on="1"/>
        <pt x="315" y="567" on="0"/>
        <pt x="240" y="532" on="0"/>
        <pt x="193" y="470" on="0"/>
        <pt x="172" y="384" on="0"/>
        <pt x="172" y="332" on="1"/>
        <pt x="172" y="210" on="0"/>
        <pt x="272" y="86" on="0"/>
      </contour>
      <contour>
        <pt x="430" y="698" on="1"/>
        <pt x="243" y="767" on="1"/>
        <pt x="236" y="769" on="0"/>
        <pt x="230" y="785" on="0"/>
        <pt x="230" y="796" on="1"/>
        <pt x="230" y="813" on="0"/>
        <pt x="246" y="848" on="0"/>
        <pt x="260" y="848" on="1"/>
        <pt x="264" y="848" on="0"/>
        <pt x="270" y="845" on="1"/>
        <pt x="450" y="744" on="1"/>
        <pt x="453" y="737" on="1"/>
        <pt x="438" y="701" on="1"/>
      </contour>
    </TTGlyph>
    <TTGlyph name="Oslash" xMin="35" yMin="-48" xMax="694" yMax="699">
      <contour>
        <pt x="372" y="665" on="1"/>
        <pt x="423" y="665" on="0"/>
        <pt x="509" y="641" on="0"/>
        <pt x="544" y="620" on="1"/>
        <pt x="611" y="699" on="1"/>
        <pt x="692" y="637" on="1"/>
        <pt x="620" y="553" on="1"/>
        <pt x="657" y="507" on="0"/>
        <pt x="694" y="392" on="0"/>
        <pt x="694" y="329" on="1"/>
        <pt x="694" y="263" on="0"/>
        <pt x="653" y="140" on="0"/>
        <pt x="570" y="45" on="0"/>
        <pt x="447" y="-12" on="0"/>
        <pt x="365" y="-12" on="1"/>
        <pt x="310" y="-12" on="0"/>
        <pt x="219" y="14" on="0"/>
        <pt x="184" y="38" on="1"/>
        <pt x="111" y="-48" on="1"/>
        <pt x="35" y="20" on="1"/>
        <pt x="111" y="110" on="1"/>
        <pt x="80" y="154" on="0"/>
        <pt x="50" y="262" on="0"/>
        <pt x="50" y="322" on="1"/>
        <pt x="50" y="393" on="0"/>
        <pt x="93" y="518" on="0"/>
        <pt x="175" y="611" on="0"/>
        <pt x="295" y="665" on="0"/>
      </contour>
      <contour>
        <pt x="367" y="86" on="1"/>
        <pt x="422" y="86" on="0"/>
        <pt x="499" y="123" on="0"/>
        <pt x="549" y="188" on="0"/>
        <pt x="572" y="276" on="0"/>
        <pt x="572" y="326" on="1"/>
        <pt x="572" y="407" on="0"/>
        <pt x="545" y="464" on="1"/>
        <pt x="253" y="119" on="1"/>
        <pt x="298" y="86" on="0"/>
      </contour>
      <contour>
        <pt x="173" y="332" on="1"/>
        <pt x="173" y="256" on="0"/>
        <pt x="192" y="205" on="1"/>
        <pt x="476" y="541" on="1"/>
        <pt x="432" y="567" on="0"/>
        <pt x="369" y="567" on="1"/>
        <pt x="316" y="567" on="0"/>
        <pt x="241" y="532" on="0"/>
        <pt x="194" y="470" on="0"/>
        <pt x="173" y="384" on="0"/>
      </contour>
    </TTGlyph>
    <TTGlyph name="Otilde" xMin="49" yMin="-12" xMax="693" yMax="841">
      <contour>
        <pt x="371" y="665" on="1"/>
        <pt x="449" y="665" on="0"/>
        <pt x="569" y="611" on="0"/>
        <pt x="651" y="518" on="0"/>
        <pt x="693" y="396" on="0"/>
        <pt x="693" y="329" on="1"/>
        <pt x="693" y="263" on="0"/>
        <pt x="652" y="140" on="0"/>
        <pt x="569" y="45" on="0"/>
        <pt x="446" y="-12" on="0"/>
        <pt x="364" y="-12" on="1"/>
        <pt x="284" y="-12" on="0"/>
        <pt x="166" y="42" on="0"/>
        <pt x="88" y="134" on="0"/>
        <pt x="49" y="255" on="0"/>
        <pt x="49" y="322" on="1"/>
        <pt x="49" y="393" on="0"/>
        <pt x="92" y="518" on="0"/>
        <pt x="174" y="611" on="0"/>
        <pt x="294" y="665" on="0"/>
      </contour>
      <contour>
        <pt x="366" y="86" on="1"/>
        <pt x="421" y="86" on="0"/>
        <pt x="498" y="123" on="0"/>
        <pt x="548" y="188" on="0"/>
        <pt x="571" y="276" on="0"/>
        <pt x="571" y="326" on="1"/>
        <pt x="571" y="380" on="0"/>
        <pt x="547" y="468" on="0"/>
        <pt x="497" y="532" on="0"/>
        <pt x="420" y="567" on="0"/>
        <pt x="368" y="567" on="1"/>
        <pt x="315" y="567" on="0"/>
        <pt x="240" y="532" on="0"/>
        <pt x="193" y="470" on="0"/>
        <pt x="172" y="384" on="0"/>
        <pt x="172" y="332" on="1"/>
        <pt x="172" y="210" on="0"/>
        <pt x="272" y="86" on="0"/>
      </contour>
      <contour>
        <pt x="527" y="818" on="1"/>
        <pt x="524" y="802" on="0"/>
        <pt x="511" y="769" on="0"/>
        <pt x="490" y="743" on="0"/>
        <pt x="459" y="726" on="0"/>
        <pt x="437" y="726" on="1"/>
        <pt x="425" y="726" on="0"/>
        <pt x="394" y="730" on="0"/>
        <pt x="358" y="736" on="0"/>
        <pt x="321" y="740" on="0"/>
        <pt x="304" y="740" on="1"/>
        <pt x="281" y="740" on="0"/>
        <pt x="243" y="729" on="0"/>
        <pt x="229" y="715" on="1"/>
        <pt x="216" y="738" on="1"/>
        <pt x="222" y="756" on="0"/>
        <pt x="235" y="789" on="0"/>
        <pt x="257" y="814" on="0"/>
        <pt x="289" y="829" on="0"/>
        <pt x="314" y="829" on="1"/>
        <pt x="343" y="829" on="0"/>
        <pt x="412" y="815" on="0"/>
        <pt x="439" y="815" on="1"/>
        <pt x="457" y="815" on="0"/>
        <pt x="495" y="826" on="0"/>
        <pt x="515" y="841" on="1"/>
      </contour>
    </TTGlyph>
    <TTGlyph name="P" xMin="88" yMin="0" xMax="497" yMax="665">
      <contour>
        <pt x="268" y="248" on="1"/>
        <pt x="251" y="248" on="0"/>
        <pt x="218" y="248" on="0"/>
        <pt x="203" y="249" on="1"/>
        <pt x="203" y="0" on="1"/>
        <pt x="88" y="0" on="1"/>
        <pt x="88" y="660" on="1"/>
        <pt x="103" y="661" on="0"/>
        <pt x="142" y="663" on="0"/>
        <pt x="185" y="664" on="0"/>
        <pt x="228" y="665" on="0"/>
        <pt x="247" y="665" on="1"/>
        <pt x="303" y="665" on="0"/>
        <pt x="395" y="638" on="0"/>
        <pt x="461" y="584" on="0"/>
        <pt x="497" y="505" on="0"/>
        <pt x="497" y="453" on="1"/>
        <pt x="497" y="411" on="0"/>
        <pt x="469" y="337" on="0"/>
        <pt x="413" y="281" on="0"/>
        <pt x="326" y="248" on="0"/>
      </contour>
      <contour>
        <pt x="263" y="569" on="1"/>
        <pt x="247" y="569" on="0"/>
        <pt x="217" y="569" on="0"/>
        <pt x="203" y="568" on="1"/>
        <pt x="203" y="345" on="1"/>
        <pt x="217" y="344" on="0"/>
        <pt x="248" y="344" on="0"/>
        <pt x="265" y="344" on="1"/>
        <pt x="319" y="344" on="0"/>
        <pt x="374" y="404" on="0"/>
        <pt x="374" y="461" on="1"/>
        <pt x="374" y="509" on="0"/>
        <pt x="325" y="569" on="0"/>
      </contour>
    </TTGlyph>
    <TTGlyph name="Q" xMin="51" yMin="-174" xMax="754" yMax="665">
      <contour>
        <pt x="373" y="665" on="1"/>
        <pt x="451" y="665" on="0"/>
        <pt x="571" y="611" on="0"/>
        <pt x="653" y="518" on="0"/>
        <pt x="695" y="396" on="0"/>
        <pt x="695" y="329" on="1"/>
        <pt x="695" y="265" on="0"/>
        <pt x="656" y="145" on="0"/>
        <pt x="578" y="51" on="0"/>
        <pt x="462" y="-8" on="0"/>
        <pt x="385" y="-11" on="1"/>
        <pt x="421" y="-15" on="0"/>
        <pt x="487" y="-39" on="0"/>
        <pt x="552" y="-64" on="0"/>
        <pt x="619" y="-84" on="0"/>
        <pt x="657" y="-84" on="1"/>
        <pt x="679" y="-84" on="0"/>
        <pt x="727" y="-75" on="0"/>
        <pt x="754" y="-64" on="1"/>
        <pt x="728" y="-162" on="1"/>
        <pt x="710" y="-169" on="0"/>
        <pt x="675" y="-174" on="0"/>
        <pt x="658" y="-174" on="1"/>
        <pt x="616" y="-174" on="0"/>
        <pt x="539" y="-147" on="0"/>
        <pt x="464" y="-116" on="0"/>
        <pt x="391" y="-89" on="0"/>
        <pt x="354" y="-89" on="1"/>
        <pt x="332" y="-89" on="0"/>
        <pt x="266" y="-105" on="0"/>
        <pt x="235" y="-128" on="1"/>
        <pt x="215" y="-56" on="1"/>
        <pt x="242" y="-35" on="0"/>
        <pt x="305" y="-13" on="0"/>
        <pt x="334" y="-11" on="1"/>
        <pt x="263" y="-6" on="0"/>
        <pt x="156" y="52" on="0"/>
        <pt x="86" y="142" on="0"/>
        <pt x="51" y="258" on="0"/>
        <pt x="51" y="322" on="1"/>
        <pt x="51" y="393" on="0"/>
        <pt x="94" y="518" on="0"/>
        <pt x="176" y="611" on="0"/>
        <pt x="296" y="665" on="0"/>
      </contour>
      <contour>
        <pt x="370" y="86" on="1"/>
        <pt x="424" y="86" on="0"/>
        <pt x="501" y="124" on="0"/>
        <pt x="550" y="189" on="0"/>
        <pt x="573" y="278" on="0"/>
        <pt x="573" y="329" on="1"/>
        <pt x="573" y="381" on="0"/>
        <pt x="549" y="469" on="0"/>
        <pt x="499" y="532" on="0"/>
        <pt x="422" y="567" on="0"/>
        <pt x="369" y="567" on="1"/>
        <pt x="316" y="567" on="0"/>
        <pt x="242" y="532" on="0"/>
        <pt x="195" y="469" on="0"/>
        <pt x="174" y="382" on="0"/>
        <pt x="174" y="329" on="1"/>
        <pt x="174" y="209" on="0"/>
        <pt x="274" y="86" on="0"/>
      </contour>
    </TTGlyph>
    <TTGlyph name="R" xMin="88" yMin="0" xMax="613" yMax="665">
      <contour>
        <pt x="250" y="282" on="1"/>
        <pt x="239" y="282" on="0"/>
        <pt x="216" y="282" on="0"/>
        <pt x="203" y="283" on="1"/>
        <pt x="203" y="0" on="1"/>
        <pt x="88" y="0" on="1"/>
        <pt x="88" y="660" on="1"/>
        <pt x="104" y="661" on="0"/>
        <pt x="145" y="663" on="0"/>
        <pt x="187" y="664" on="0"/>
        <pt x="224" y="665" on="0"/>
        <pt x="235" y="665" on="1"/>
        <pt x="363" y="665" on="0"/>
        <pt x="497" y="568" on="0"/>
        <pt x="497" y="475" on="1"/>
        <pt x="497" y="416" on="0"/>
        <pt x="439" y="322" on="0"/>
        <pt x="371" y="299" on="1"/>
        <pt x="613" y="0" on="1"/>
        <pt x="480" y="0" on="1"/>
      </contour>
      <contour>
        <pt x="245" y="569" on="1"/>
        <pt x="237" y="569" on="0"/>
        <pt x="215" y="569" on="0"/>
        <pt x="203" y="568" on="1"/>
        <pt x="203" y="378" on="1"/>
        <pt x="265" y="378" on="1"/>
        <pt x="319" y="378" on="0"/>
        <pt x="375" y="432" on="0"/>
        <pt x="375" y="482" on="1"/>
        <pt x="375" y="527" on="0"/>
        <pt x="320" y="569" on="0"/>
      </contour>
    </TTGlyph>
    <TTGlyph name="S" xMin="42" yMin="-12" xMax="501" yMax="665">
      <contour>
        <pt x="172" y="501" on="1"/>
        <pt x="172" y="480" on="0"/>
        <pt x="191" y="450" on="0"/>
        <pt x="225" y="428" on="0"/>
        <pt x="272" y="409" on="0"/>
        <pt x="301" y="399" on="1"/>
        <pt x="337" y="386" on="0"/>
        <pt x="408" y="353" on="0"/>
        <pt x="465" y="304" on="0"/>
        <pt x="501" y="232" on="0"/>
        <pt x="501" y="181" on="1"/>
        <pt x="501" y="127" on="0"/>
        <pt x="462" y="53" on="0"/>
        <pt x="396" y="8" on="0"/>
        <pt x="310" y="-12" on="0"/>
        <pt x="264" y="-12" on="1"/>
        <pt x="198" y="-12" on="0"/>
        <pt x="83" y="20" on="0"/>
        <pt x="42" y="43" on="1"/>
        <pt x="72" y="151" on="1"/>
        <pt x="110" y="122" on="0"/>
        <pt x="203" y="84" on="0"/>
        <pt x="263" y="84" on="1"/>
        <pt x="327" y="84" on="0"/>
        <pt x="385" y="129" on="0"/>
        <pt x="385" y="167" on="1"/>
        <pt x="385" y="196" on="0"/>
        <pt x="357" y="237" on="0"/>
        <pt x="315" y="266" on="0"/>
        <pt x="268" y="284" on="0"/>
        <pt x="250" y="290" on="1"/>
        <pt x="218" y="300" on="0"/>
        <pt x="152" y="328" on="0"/>
        <pt x="96" y="373" on="0"/>
        <pt x="61" y="441" on="0"/>
        <pt x="61" y="492" on="1"/>
        <pt x="61" y="540" on="0"/>
        <pt x="94" y="606" on="0"/>
        <pt x="151" y="647" on="0"/>
        <pt x="228" y="665" on="0"/>
        <pt x="273" y="665" on="1"/>
        <pt x="328" y="665" on="0"/>
        <pt x="431" y="643" on="0"/>
        <pt x="466" y="627" on="1"/>
        <pt x="439" y="521" on="1"/>
        <pt x="421" y="533" on="0"/>
        <pt x="379" y="551" on="0"/>
        <pt x="334" y="563" on="0"/>
        <pt x="289" y="570" on="0"/>
        <pt x="269" y="570" on="1"/>
        <pt x="224" y="570" on="0"/>
        <pt x="172" y="536" on="0"/>
      </contour>
    </TTGlyph>
    <TTGlyph name="Scaron" xMin="42" yMin="-12" xMax="501" yMax="843">
      <contour>
        <pt x="172" y="501" on="1"/>
        <pt x="172" y="480" on="0"/>
        <pt x="191" y="450" on="0"/>
        <pt x="225" y="428" on="0"/>
        <pt x="272" y="409" on="0"/>
        <pt x="301" y="399" on="1"/>
        <pt x="337" y="386" on="0"/>
        <pt x="408" y="353" on="0"/>
        <pt x="465" y="304" on="0"/>
        <pt x="501" y="232" on="0"/>
        <pt x="501" y="181" on="1"/>
        <pt x="501" y="127" on="0"/>
        <pt x="462" y="53" on="0"/>
        <pt x="396" y="8" on="0"/>
        <pt x="310" y="-12" on="0"/>
        <pt x="264" y="-12" on="1"/>
        <pt x="198" y="-12" on="0"/>
        <pt x="83" y="20" on="0"/>
        <pt x="42" y="43" on="1"/>
        <pt x="72" y="151" on="1"/>
        <pt x="110" y="122" on="0"/>
        <pt x="203" y="84" on="0"/>
        <pt x="263" y="84" on="1"/>
        <pt x="327" y="84" on="0"/>
        <pt x="385" y="129" on="0"/>
        <pt x="385" y="167" on="1"/>
        <pt x="385" y="196" on="0"/>
        <pt x="357" y="237" on="0"/>
        <pt x="315" y="266" on="0"/>
        <pt x="268" y="284" on="0"/>
        <pt x="250" y="290" on="1"/>
        <pt x="218" y="300" on="0"/>
        <pt x="152" y="328" on="0"/>
        <pt x="96" y="373" on="0"/>
        <pt x="61" y="441" on="0"/>
        <pt x="61" y="492" on="1"/>
        <pt x="61" y="540" on="0"/>
        <pt x="94" y="606" on="0"/>
        <pt x="151" y="647" on="0"/>
        <pt x="228" y="665" on="0"/>
        <pt x="273" y="665" on="1"/>
        <pt x="328" y="665" on="0"/>
        <pt x="431" y="643" on="0"/>
        <pt x="466" y="627" on="1"/>
        <pt x="439" y="521" on="1"/>
        <pt x="421" y="533" on="0"/>
        <pt x="379" y="551" on="0"/>
        <pt x="334" y="563" on="0"/>
        <pt x="289" y="570" on="0"/>
        <pt x="269" y="570" on="1"/>
        <pt x="224" y="570" on="0"/>
        <pt x="172" y="536" on="0"/>
      </contour>
      <contour>
        <pt x="269" y="705" on="1"/>
        <pt x="159" y="804" on="1"/>
        <pt x="156" y="811" on="1"/>
        <pt x="172" y="840" on="1"/>
        <pt x="179" y="843" on="1"/>
        <pt x="273" y="802" on="1"/>
        <pt x="367" y="843" on="1"/>
        <pt x="374" y="840" on="1"/>
        <pt x="390" y="811" on="1"/>
        <pt x="387" y="804" on="1"/>
        <pt x="277" y="705" on="1"/>
      </contour>
    </TTGlyph>
    <TTGlyph name="T" xMin="21" yMin="0" xMax="518" yMax="660">
      <contour>
        <pt x="518" y="560" on="1"/>
        <pt x="327" y="560" on="1"/>
        <pt x="327" y="0" on="1"/>
        <pt x="212" y="0" on="1"/>
        <pt x="212" y="560" on="1"/>
        <pt x="21" y="560" on="1"/>
        <pt x="21" y="660" on="1"/>
        <pt x="518" y="660" on="1"/>
      </contour>
    </TTGlyph>
    <TTGlyph name="Thorn" xMin="88" yMin="0" xMax="497" yMax="660">
      <contour>
        <pt x="203" y="550" on="1"/>
        <pt x="247" y="550" on="1"/>
        <pt x="303" y="550" on="0"/>
        <pt x="395" y="523" on="0"/>
        <pt x="461" y="469" on="0"/>
        <pt x="497" y="390" on="0"/>
        <pt x="497" y="338" on="1"/>
        <pt x="497" y="296" on="0"/>
        <pt x="469" y="222" on="0"/>
        <pt x="413" y="166" on="0"/>
        <pt x="326" y="133" on="0"/>
        <pt x="268" y="133" on="1"/>
        <pt x="251" y="133" on="0"/>
        <pt x="218" y="133" on="0"/>
        <pt x="203" y="134" on="1"/>
        <pt x="203" y="0" on="1"/>
        <pt x="88" y="0" on="1"/>
        <pt x="88" y="660" on="1"/>
        <pt x="203" y="660" on="1"/>
      </contour>
      <contour>
        <pt x="263" y="454" on="1"/>
        <pt x="247" y="454" on="0"/>
        <pt x="217" y="454" on="0"/>
        <pt x="203" y="453" on="1"/>
        <pt x="203" y="230" on="1"/>
        <pt x="217" y="229" on="0"/>
        <pt x="248" y="229" on="0"/>
        <pt x="265" y="229" on="1"/>
        <pt x="319" y="229" on="0"/>
        <pt x="374" y="289" on="0"/>
        <pt x="374" y="346" on="1"/>
        <pt x="374" y="394" on="0"/>
        <pt x="325" y="454" on="0"/>
      </contour>
    </TTGlyph>
    <TTGlyph name="U" xMin="81" yMin="-11" xMax="625" yMax="660">
      <contour>
        <pt x="196" y="256" on="1"/>
        <pt x="196" y="165" on="0"/>
        <pt x="280" y="86" on="0"/>
        <pt x="355" y="86" on="1"/>
        <pt x="430" y="86" on="0"/>
        <pt x="515" y="165" on="0"/>
        <pt x="515" y="256" on="1"/>
        <pt x="515" y="660" on="1"/>
        <pt x="625" y="660" on="1"/>
        <pt x="625" y="232" on="1"/>
        <pt x="625" y="183" on="0"/>
        <pt x="593" y="95" on="0"/>
        <pt x="526" y="28" on="0"/>
        <pt x="421" y="-11" on="0"/>
        <pt x="349" y="-11" on="1"/>
        <pt x="277" y="-11" on="0"/>
        <pt x="175" y="28" on="0"/>
        <pt x="110" y="95" on="0"/>
        <pt x="81" y="183" on="0"/>
        <pt x="81" y="232" on="1"/>
        <pt x="81" y="660" on="1"/>
        <pt x="196" y="660" on="1"/>
      </contour>
    </TTGlyph>
    <TTGlyph name="Uacute" xMin="81" yMin="-11" xMax="625" yMax="848">
      <contour>
        <pt x="196" y="256" on="1"/>
        <pt x="196" y="165" on="0"/>
        <pt x="280" y="86" on="0"/>
        <pt x="355" y="86" on="1"/>
        <pt x="430" y="86" on="0"/>
        <pt x="515" y="165" on="0"/>
        <pt x="515" y="256" on="1"/>
        <pt x="515" y="660" on="1"/>
        <pt x="625" y="660" on="1"/>
        <pt x="625" y="232" on="1"/>
        <pt x="625" y="183" on="0"/>
        <pt x="593" y="95" on="0"/>
        <pt x="526" y="28" on="0"/>
        <pt x="421" y="-11" on="0"/>
        <pt x="349" y="-11" on="1"/>
        <pt x="277" y="-11" on="0"/>
        <pt x="175" y="28" on="0"/>
        <pt x="110" y="95" on="0"/>
        <pt x="81" y="183" on="0"/>
        <pt x="81" y="232" on="1"/>
        <pt x="81" y="660" on="1"/>
        <pt x="196" y="660" on="1"/>
      </contour>
      <contour>
        <pt x="272" y="701" on="1"/>
        <pt x="257" y="737" on="1"/>
        <pt x="260" y="744" on="1"/>
        <pt x="440" y="845" on="1"/>
        <pt x="446" y="848" on="0"/>
        <pt x="450" y="848" on="1"/>
        <pt x="464" y="848" on="0"/>
        <pt x="480" y="813" on="0"/>
        <pt x="480" y="796" on="1"/>
        <pt x="480" y="785" on="0"/>
        <pt x="474" y="769" on="0"/>
        <pt x="467" y="767" on="1"/>
        <pt x="280" y="698" on="1"/>
      </contour>
    </TTGlyph>
    <TTGlyph name="Ucircumflex" xMin="81" yMin="-11" xMax="625" yMax="842">
      <contour>
        <pt x="196" y="256" on="1"/>
        <pt x="196" y="165" on="0"/>
        <pt x="280" y="86" on="0"/>
        <pt x="355" y="86" on="1"/>
        <pt x="430" y="86" on="0"/>
        <pt x="515" y="165" on="0"/>
        <pt x="515" y="256" on="1"/>
        <pt x="515" y="660" on="1"/>
        <pt x="625" y="660" on="1"/>
        <pt x="625" y="232" on="1"/>
        <pt x="625" y="183" on="0"/>
        <pt x="593" y="95" on="0"/>
        <pt x="526" y="28" on="0"/>
        <pt x="421" y="-11" on="0"/>
        <pt x="349" y="-11" on="1"/>
        <pt x="277" y="-11" on="0"/>
        <pt x="175" y="28" on="0"/>
        <pt x="110" y="95" on="0"/>
        <pt x="81" y="183" on="0"/>
        <pt x="81" y="232" on="1"/>
        <pt x="81" y="660" on="1"/>
        <pt x="196" y="660" on="1"/>
      </contour>
      <contour>
        <pt x="353" y="842" on="1"/>
        <pt x="463" y="743" on="1"/>
        <pt x="466" y="736" on="1"/>
        <pt x="450" y="707" on="1"/>
        <pt x="443" y="704" on="1"/>
        <pt x="349" y="745" on="1"/>
        <pt x="255" y="704" on="1"/>
        <pt x="248" y="707" on="1"/>
        <pt x="232" y="736" on="1"/>
        <pt x="235" y="743" on="1"/>
        <pt x="345" y="842" on="1"/>
      </contour>
    </TTGlyph>
    <TTGlyph name="Udieresis" xMin="81" yMin="-11" xMax="625" yMax="842">
      <contour>
        <pt x="196" y="256" on="1"/>
        <pt x="196" y="165" on="0"/>
        <pt x="280" y="86" on="0"/>
        <pt x="355" y="86" on="1"/>
        <pt x="430" y="86" on="0"/>
        <pt x="515" y="165" on="0"/>
        <pt x="515" y="256" on="1"/>
        <pt x="515" y="660" on="1"/>
        <pt x="625" y="660" on="1"/>
        <pt x="625" y="232" on="1"/>
        <pt x="625" y="183" on="0"/>
        <pt x="593" y="95" on="0"/>
        <pt x="526" y="28" on="0"/>
        <pt x="421" y="-11" on="0"/>
        <pt x="349" y="-11" on="1"/>
        <pt x="277" y="-11" on="0"/>
        <pt x="175" y="28" on="0"/>
        <pt x="110" y="95" on="0"/>
        <pt x="81" y="183" on="0"/>
        <pt x="81" y="232" on="1"/>
        <pt x="81" y="660" on="1"/>
        <pt x="196" y="660" on="1"/>
      </contour>
      <contour>
        <pt x="239" y="783" on="1"/>
        <pt x="239" y="806" on="0"/>
        <pt x="273" y="842" on="0"/>
        <pt x="296" y="842" on="1"/>
        <pt x="319" y="842" on="0"/>
        <pt x="355" y="806" on="0"/>
        <pt x="355" y="783" on="1"/>
        <pt x="355" y="760" on="0"/>
        <pt x="319" y="726" on="0"/>
        <pt x="296" y="726" on="1"/>
        <pt x="273" y="726" on="0"/>
        <pt x="239" y="760" on="0"/>
      </contour>
      <contour>
        <pt x="375" y="783" on="1"/>
        <pt x="375" y="806" on="0"/>
        <pt x="409" y="842" on="0"/>
        <pt x="432" y="842" on="1"/>
        <pt x="455" y="842" on="0"/>
        <pt x="491" y="806" on="0"/>
        <pt x="491" y="783" on="1"/>
        <pt x="491" y="760" on="0"/>
        <pt x="455" y="726" on="0"/>
        <pt x="432" y="726" on="1"/>
        <pt x="409" y="726" on="0"/>
        <pt x="375" y="760" on="0"/>
      </contour>
    </TTGlyph>
    <TTGlyph name="Ugrave" xMin="81" yMin="-11" xMax="625" yMax="848">
      <contour>
        <pt x="196" y="256" on="1"/>
        <pt x="196" y="165" on="0"/>
        <pt x="280" y="86" on="0"/>
        <pt x="355" y="86" on="1"/>
        <pt x="430" y="86" on="0"/>
        <pt x="515" y="165" on="0"/>
        <pt x="515" y="256" on="1"/>
        <pt x="515" y="660" on="1"/>
        <pt x="625" y="660" on="1"/>
        <pt x="625" y="232" on="1"/>
        <pt x="625" y="183" on="0"/>
        <pt x="593" y="95" on="0"/>
        <pt x="526" y="28" on="0"/>
        <pt x="421" y="-11" on="0"/>
        <pt x="349" y="-11" on="1"/>
        <pt x="277" y="-11" on="0"/>
        <pt x="175" y="28" on="0"/>
        <pt x="110" y="95" on="0"/>
        <pt x="81" y="183" on="0"/>
        <pt x="81" y="232" on="1"/>
        <pt x="81" y="660" on="1"/>
        <pt x="196" y="660" on="1"/>
      </contour>
      <contour>
        <pt x="428" y="698" on="1"/>
        <pt x="241" y="767" on="1"/>
        <pt x="234" y="769" on="0"/>
        <pt x="228" y="785" on="0"/>
        <pt x="228" y="796" on="1"/>
        <pt x="228" y="813" on="0"/>
        <pt x="244" y="848" on="0"/>
        <pt x="258" y="848" on="1"/>
        <pt x="262" y="848" on="0"/>
        <pt x="268" y="845" on="1"/>
        <pt x="448" y="744" on="1"/>
        <pt x="451" y="737" on="1"/>
        <pt x="436" y="701" on="1"/>
      </contour>
    </TTGlyph>
    <TTGlyph name="V" xMin="-12" yMin="0" xMax="633" yMax="660">
      <contour>
        <pt x="-12" y="660" on="1"/>
        <pt x="113" y="660" on="1"/>
        <pt x="323" y="140" on="1"/>
        <pt x="513" y="660" on="1"/>
        <pt x="633" y="660" on="1"/>
        <pt x="369" y="0" on="1"/>
        <pt x="278" y="0" on="1"/>
      </contour>
    </TTGlyph>
    <TTGlyph name="W" xMin="1" yMin="0" xMax="1041" yMax="660">
      <contour>
        <pt x="796" y="0" on="1"/>
        <pt x="701" y="0" on="1"/>
        <pt x="521" y="502" on="1"/>
        <pt x="342" y="0" on="1"/>
        <pt x="247" y="0" on="1"/>
        <pt x="1" y="660" on="1"/>
        <pt x="126" y="660" on="1"/>
        <pt x="295" y="148" on="1"/>
        <pt x="465" y="660" on="1"/>
        <pt x="578" y="660" on="1"/>
        <pt x="747" y="148" on="1"/>
        <pt x="916" y="660" on="1"/>
        <pt x="1041" y="660" on="1"/>
      </contour>
    </TTGlyph>
    <TTGlyph name="X" xMin="11" yMin="0" xMax="626" yMax="660">
      <contour>
        <pt x="316" y="267" on="1"/>
        <pt x="137" y="0" on="1"/>
        <pt x="11" y="0" on="1"/>
        <pt x="255" y="340" on="1"/>
        <pt x="26" y="660" on="1"/>
        <pt x="155" y="660" on="1"/>
        <pt x="322" y="402" on="1"/>
        <pt x="487" y="660" on="1"/>
        <pt x="613" y="660" on="1"/>
        <pt x="383" y="339" on="1"/>
        <pt x="626" y="0" on="1"/>
        <pt x="497" y="0" on="1"/>
      </contour>
    </TTGlyph>
    <TTGlyph name="Y" xMin="-12" yMin="0" xMax="575" yMax="660">
      <contour>
        <pt x="-12" y="660" on="1"/>
        <pt x="117" y="660" on="1"/>
        <pt x="286" y="361" on="1"/>
        <pt x="448" y="660" on="1"/>
        <pt x="575" y="660" on="1"/>
        <pt x="340" y="271" on="1"/>
        <pt x="340" y="0" on="1"/>
        <pt x="225" y="0" on="1"/>
        <pt x="225" y="267" on="1"/>
      </contour>
    </TTGlyph>
    <TTGlyph name="Yacute" xMin="-12" yMin="0" xMax="575" yMax="848">
      <contour>
        <pt x="-12" y="660" on="1"/>
        <pt x="117" y="660" on="1"/>
        <pt x="286" y="361" on="1"/>
        <pt x="448" y="660" on="1"/>
        <pt x="575" y="660" on="1"/>
        <pt x="340" y="271" on="1"/>
        <pt x="340" y="0" on="1"/>
        <pt x="225" y="0" on="1"/>
        <pt x="225" y="267" on="1"/>
      </contour>
      <contour>
        <pt x="226" y="701" on="1"/>
        <pt x="211" y="737" on="1"/>
        <pt x="214" y="744" on="1"/>
        <pt x="394" y="845" on="1"/>
        <pt x="400" y="848" on="0"/>
        <pt x="404" y="848" on="1"/>
        <pt x="418" y="848" on="0"/>
        <pt x="434" y="813" on="0"/>
        <pt x="434" y="796" on="1"/>
        <pt x="434" y="785" on="0"/>
        <pt x="428" y="769" on="0"/>
        <pt x="421" y="767" on="1"/>
        <pt x="234" y="698" on="1"/>
      </contour>
    </TTGlyph>
    <TTGlyph name="Ydieresis" xMin="-12" yMin="0" xMax="575" yMax="842">
      <contour>
        <pt x="160" y="783" on="1"/>
        <pt x="160" y="806" on="0"/>
        <pt x="194" y="842" on="0"/>
        <pt x="217" y="842" on="1"/>
        <pt x="240" y="842" on="0"/>
        <pt x="276" y="806" on="0"/>
        <pt x="276" y="783" on="1"/>
        <pt x="276" y="760" on="0"/>
        <pt x="240" y="726" on="0"/>
        <pt x="217" y="726" on="1"/>
        <pt x="194" y="726" on="0"/>
        <pt x="160" y="760" on="0"/>
      </contour>
      <contour>
        <pt x="296" y="783" on="1"/>
        <pt x="296" y="806" on="0"/>
        <pt x="330" y="842" on="0"/>
        <pt x="353" y="842" on="1"/>
        <pt x="376" y="842" on="0"/>
        <pt x="412" y="806" on="0"/>
        <pt x="412" y="783" on="1"/>
        <pt x="412" y="760" on="0"/>
        <pt x="376" y="726" on="0"/>
        <pt x="353" y="726" on="1"/>
        <pt x="330" y="726" on="0"/>
        <pt x="296" y="760" on="0"/>
      </contour>
      <contour>
        <pt x="-12" y="660" on="1"/>
        <pt x="117" y="660" on="1"/>
        <pt x="286" y="361" on="1"/>
        <pt x="448" y="660" on="1"/>
        <pt x="575" y="660" on="1"/>
        <pt x="340" y="271" on="1"/>
        <pt x="340" y="0" on="1"/>
        <pt x="225" y="0" on="1"/>
        <pt x="225" y="267" on="1"/>
      </contour>
    </TTGlyph>
    <TTGlyph name="Z" xMin="43" yMin="0" xMax="511" yMax="660">
      <contour>
        <pt x="511" y="0" on="1"/>
        <pt x="43" y="0" on="1"/>
        <pt x="43" y="100" on="1"/>
        <pt x="371" y="560" on="1"/>
        <pt x="58" y="560" on="1"/>
        <pt x="58" y="660" on="1"/>
        <pt x="496" y="660" on="1"/>
        <pt x="496" y="560" on="1"/>
        <pt x="168" y="100" on="1"/>
        <pt x="511" y="100" on="1"/>
      </contour>
    </TTGlyph>
    <TTGlyph name="Zcaron" xMin="43" yMin="0" xMax="511" yMax="843">
      <contour>
        <pt x="270" y="705" on="1"/>
        <pt x="160" y="804" on="1"/>
        <pt x="157" y="811" on="1"/>
        <pt x="173" y="840" on="1"/>
        <pt x="180" y="843" on="1"/>
        <pt x="274" y="802" on="1"/>
        <pt x="368" y="843" on="1"/>
        <pt x="375" y="840" on="1"/>
        <pt x="391" y="811" on="1"/>
        <pt x="388" y="804" on="1"/>
        <pt x="278" y="705" on="1"/>
      </contour>
      <contour>
        <pt x="511" y="0" on="1"/>
        <pt x="43" y="0" on="1"/>
        <pt x="43" y="100" on="1"/>
        <pt x="371" y="560" on="1"/>
        <pt x="58" y="560" on="1"/>
        <pt x="58" y="660" on="1"/>
        <pt x="496" y="660" on="1"/>
        <pt x="496" y="560" on="1"/>
        <pt x="168" y="100" on="1"/>
        <pt x="511" y="100" on="1"/>
      </contour>
    </TTGlyph>
    <TTGlyph name="a" xMin="34" yMin="-12" xMax="437" yMax="475">
      <contour>
        <pt x="349" y="0" on="1"/>
        <pt x="341" y="63" on="1"/>
        <pt x="337" y="63" on="1"/>
        <pt x="310" y="29" on="0"/>
        <pt x="217" y="-12" on="0"/>
        <pt x="169" y="-12" on="1"/>
        <pt x="106" y="-12" on="0"/>
        <pt x="34" y="61" on="0"/>
        <pt x="34" y="121" on="1"/>
        <pt x="34" y="162" on="0"/>
        <pt x="69" y="227" on="0"/>
        <pt x="135" y="272" on="0"/>
        <pt x="227" y="296" on="0"/>
        <pt x="284" y="296" on="1"/>
        <pt x="327" y="296" on="1"/>
        <pt x="327" y="311" on="1"/>
        <pt x="327" y="350" on="0"/>
        <pt x="302" y="368" on="1"/>
        <pt x="276" y="386" on="0"/>
        <pt x="221" y="386" on="1"/>
        <pt x="147" y="386" on="0"/>
        <pt x="89" y="353" on="1"/>
        <pt x="68" y="436" on="1"/>
        <pt x="135" y="475" on="0"/>
        <pt x="230" y="475" on="1"/>
        <pt x="330" y="475" on="0"/>
        <pt x="382" y="434" on="1"/>
        <pt x="406" y="415" on="0"/>
        <pt x="437" y="355" on="0"/>
        <pt x="437" y="313" on="1"/>
        <pt x="437" y="0" on="1"/>
      </contour>
      <contour>
        <pt x="212" y="77" on="1"/>
        <pt x="244" y="77" on="0"/>
        <pt x="308" y="108" on="0"/>
        <pt x="327" y="134" on="1"/>
        <pt x="327" y="225" on="1"/>
        <pt x="308" y="225" on="1"/>
        <pt x="226" y="225" on="0"/>
        <pt x="151" y="183" on="0"/>
        <pt x="151" y="137" on="1"/>
        <pt x="151" y="77" on="0"/>
      </contour>
    </TTGlyph>
    <TTGlyph name="aacute" xMin="34" yMin="-12" xMax="437" yMax="682">
      <contour>
        <pt x="349" y="0" on="1"/>
        <pt x="341" y="63" on="1"/>
        <pt x="337" y="63" on="1"/>
        <pt x="310" y="29" on="0"/>
        <pt x="217" y="-12" on="0"/>
        <pt x="169" y="-12" on="1"/>
        <pt x="106" y="-12" on="0"/>
        <pt x="34" y="61" on="0"/>
        <pt x="34" y="121" on="1"/>
        <pt x="34" y="162" on="0"/>
        <pt x="69" y="227" on="0"/>
        <pt x="135" y="272" on="0"/>
        <pt x="227" y="296" on="0"/>
        <pt x="284" y="296" on="1"/>
        <pt x="327" y="296" on="1"/>
        <pt x="327" y="311" on="1"/>
        <pt x="327" y="350" on="0"/>
        <pt x="302" y="368" on="1"/>
        <pt x="276" y="386" on="0"/>
        <pt x="221" y="386" on="1"/>
        <pt x="147" y="386" on="0"/>
        <pt x="89" y="353" on="1"/>
        <pt x="68" y="436" on="1"/>
        <pt x="135" y="475" on="0"/>
        <pt x="230" y="475" on="1"/>
        <pt x="330" y="475" on="0"/>
        <pt x="382" y="434" on="1"/>
        <pt x="406" y="415" on="0"/>
        <pt x="437" y="355" on="0"/>
        <pt x="437" y="313" on="1"/>
        <pt x="437" y="0" on="1"/>
      </contour>
      <contour>
        <pt x="212" y="77" on="1"/>
        <pt x="244" y="77" on="0"/>
        <pt x="308" y="108" on="0"/>
        <pt x="327" y="134" on="1"/>
        <pt x="327" y="225" on="1"/>
        <pt x="308" y="225" on="1"/>
        <pt x="226" y="225" on="0"/>
        <pt x="151" y="183" on="0"/>
        <pt x="151" y="137" on="1"/>
        <pt x="151" y="77" on="0"/>
      </contour>
      <contour>
        <pt x="194" y="535" on="1"/>
        <pt x="179" y="571" on="1"/>
        <pt x="182" y="578" on="1"/>
        <pt x="362" y="679" on="1"/>
        <pt x="368" y="682" on="0"/>
        <pt x="372" y="682" on="1"/>
        <pt x="386" y="682" on="0"/>
        <pt x="402" y="647" on="0"/>
        <pt x="402" y="630" on="1"/>
        <pt x="402" y="619" on="0"/>
        <pt x="396" y="603" on="0"/>
        <pt x="389" y="601" on="1"/>
        <pt x="202" y="532" on="1"/>
      </contour>
    </TTGlyph>
    <TTGlyph name="acircumflex" xMin="34" yMin="-12" xMax="437" yMax="673">
      <contour>
        <pt x="349" y="0" on="1"/>
        <pt x="341" y="63" on="1"/>
        <pt x="337" y="63" on="1"/>
        <pt x="310" y="29" on="0"/>
        <pt x="217" y="-12" on="0"/>
        <pt x="169" y="-12" on="1"/>
        <pt x="106" y="-12" on="0"/>
        <pt x="34" y="61" on="0"/>
        <pt x="34" y="121" on="1"/>
        <pt x="34" y="162" on="0"/>
        <pt x="69" y="227" on="0"/>
        <pt x="135" y="272" on="0"/>
        <pt x="227" y="296" on="0"/>
        <pt x="284" y="296" on="1"/>
        <pt x="327" y="296" on="1"/>
        <pt x="327" y="311" on="1"/>
        <pt x="327" y="350" on="0"/>
        <pt x="302" y="368" on="1"/>
        <pt x="276" y="386" on="0"/>
        <pt x="221" y="386" on="1"/>
        <pt x="147" y="386" on="0"/>
        <pt x="89" y="353" on="1"/>
        <pt x="68" y="436" on="1"/>
        <pt x="135" y="475" on="0"/>
        <pt x="230" y="475" on="1"/>
        <pt x="330" y="475" on="0"/>
        <pt x="382" y="434" on="1"/>
        <pt x="406" y="415" on="0"/>
        <pt x="437" y="355" on="0"/>
        <pt x="437" y="313" on="1"/>
        <pt x="437" y="0" on="1"/>
      </contour>
      <contour>
        <pt x="212" y="77" on="1"/>
        <pt x="244" y="77" on="0"/>
        <pt x="308" y="108" on="0"/>
        <pt x="327" y="134" on="1"/>
        <pt x="327" y="225" on="1"/>
        <pt x="308" y="225" on="1"/>
        <pt x="226" y="225" on="0"/>
        <pt x="151" y="183" on="0"/>
        <pt x="151" y="137" on="1"/>
        <pt x="151" y="77" on="0"/>
      </contour>
      <contour>
        <pt x="246" y="673" on="1"/>
        <pt x="356" y="574" on="1"/>
        <pt x="359" y="567" on="1"/>
        <pt x="343" y="538" on="1"/>
        <pt x="336" y="535" on="1"/>
        <pt x="242" y="576" on="1"/>
        <pt x="148" y="535" on="1"/>
        <pt x="141" y="538" on="1"/>
        <pt x="125" y="567" on="1"/>
        <pt x="128" y="574" on="1"/>
        <pt x="238" y="673" on="1"/>
      </contour>
    </TTGlyph>
    <TTGlyph name="acute" xMin="0" yMin="533" xMax="223" yMax="683">
      <contour>
        <pt x="15" y="536" on="1"/>
        <pt x="0" y="572" on="1"/>
        <pt x="3" y="579" on="1"/>
        <pt x="183" y="680" on="1"/>
        <pt x="189" y="683" on="0"/>
        <pt x="193" y="683" on="1"/>
        <pt x="207" y="683" on="0"/>
        <pt x="223" y="648" on="0"/>
        <pt x="223" y="631" on="1"/>
        <pt x="223" y="620" on="0"/>
        <pt x="217" y="604" on="0"/>
        <pt x="210" y="602" on="1"/>
        <pt x="23" y="533" on="1"/>
      </contour>
    </TTGlyph>
    <TTGlyph name="adieresis" xMin="34" yMin="-12" xMax="437" yMax="671">
      <contour>
        <pt x="349" y="0" on="1"/>
        <pt x="341" y="63" on="1"/>
        <pt x="337" y="63" on="1"/>
        <pt x="310" y="29" on="0"/>
        <pt x="217" y="-12" on="0"/>
        <pt x="169" y="-12" on="1"/>
        <pt x="106" y="-12" on="0"/>
        <pt x="34" y="61" on="0"/>
        <pt x="34" y="121" on="1"/>
        <pt x="34" y="162" on="0"/>
        <pt x="69" y="227" on="0"/>
        <pt x="135" y="272" on="0"/>
        <pt x="227" y="296" on="0"/>
        <pt x="284" y="296" on="1"/>
        <pt x="327" y="296" on="1"/>
        <pt x="327" y="311" on="1"/>
        <pt x="327" y="350" on="0"/>
        <pt x="302" y="368" on="1"/>
        <pt x="276" y="386" on="0"/>
        <pt x="221" y="386" on="1"/>
        <pt x="147" y="386" on="0"/>
        <pt x="89" y="353" on="1"/>
        <pt x="68" y="436" on="1"/>
        <pt x="135" y="475" on="0"/>
        <pt x="230" y="475" on="1"/>
        <pt x="330" y="475" on="0"/>
        <pt x="382" y="434" on="1"/>
        <pt x="406" y="415" on="0"/>
        <pt x="437" y="355" on="0"/>
        <pt x="437" y="313" on="1"/>
        <pt x="437" y="0" on="1"/>
      </contour>
      <contour>
        <pt x="212" y="77" on="1"/>
        <pt x="244" y="77" on="0"/>
        <pt x="308" y="108" on="0"/>
        <pt x="327" y="134" on="1"/>
        <pt x="327" y="225" on="1"/>
        <pt x="308" y="225" on="1"/>
        <pt x="226" y="225" on="0"/>
        <pt x="151" y="183" on="0"/>
        <pt x="151" y="137" on="1"/>
        <pt x="151" y="77" on="0"/>
      </contour>
      <contour>
        <pt x="126" y="612" on="1"/>
        <pt x="126" y="635" on="0"/>
        <pt x="160" y="671" on="0"/>
        <pt x="183" y="671" on="1"/>
        <pt x="206" y="671" on="0"/>
        <pt x="242" y="635" on="0"/>
        <pt x="242" y="612" on="1"/>
        <pt x="242" y="589" on="0"/>
        <pt x="206" y="555" on="0"/>
        <pt x="183" y="555" on="1"/>
        <pt x="160" y="555" on="0"/>
        <pt x="126" y="589" on="0"/>
      </contour>
      <contour>
        <pt x="262" y="612" on="1"/>
        <pt x="262" y="635" on="0"/>
        <pt x="296" y="671" on="0"/>
        <pt x="319" y="671" on="1"/>
        <pt x="342" y="671" on="0"/>
        <pt x="378" y="635" on="0"/>
        <pt x="378" y="612" on="1"/>
        <pt x="378" y="589" on="0"/>
        <pt x="342" y="555" on="0"/>
        <pt x="319" y="555" on="1"/>
        <pt x="296" y="555" on="0"/>
        <pt x="262" y="589" on="0"/>
      </contour>
    </TTGlyph>
    <TTGlyph name="ae" xMin="34" yMin="-12" xMax="759" yMax="475">
      <contour>
        <pt x="575" y="475" on="1"/>
        <pt x="663" y="475" on="0"/>
        <pt x="759" y="386" on="0"/>
        <pt x="759" y="305" on="1"/>
        <pt x="759" y="294" on="0"/>
        <pt x="756" y="269" on="0"/>
        <pt x="751" y="245" on="0"/>
        <pt x="744" y="226" on="0"/>
        <pt x="740" y="220" on="1"/>
        <pt x="449" y="220" on="1"/>
        <pt x="451" y="190" on="0"/>
        <pt x="469" y="137" on="0"/>
        <pt x="503" y="98" on="0"/>
        <pt x="552" y="75" on="0"/>
        <pt x="585" y="75" on="1"/>
        <pt x="622" y="75" on="0"/>
        <pt x="705" y="103" on="0"/>
        <pt x="734" y="124" on="1"/>
        <pt x="752" y="42" on="1"/>
        <pt x="739" y="34" on="0"/>
        <pt x="701" y="15" on="0"/>
        <pt x="653" y="-1" on="0"/>
        <pt x="598" y="-12" on="0"/>
        <pt x="568" y="-12" on="1"/>
        <pt x="506" y="-12" on="0"/>
        <pt x="415" y="35" on="0"/>
        <pt x="386" y="74" on="1"/>
        <pt x="344" y="26" on="0"/>
        <pt x="233" y="-12" on="0"/>
        <pt x="173" y="-12" on="1"/>
        <pt x="138" y="-12" on="0"/>
        <pt x="86" y="8" on="0"/>
        <pt x="52" y="44" on="0"/>
        <pt x="34" y="93" on="0"/>
        <pt x="34" y="121" on="1"/>
        <pt x="34" y="178" on="0"/>
        <pt x="88" y="247" on="0"/>
        <pt x="166" y="284" on="0"/>
        <pt x="253" y="296" on="0"/>
        <pt x="285" y="296" on="1"/>
        <pt x="327" y="296" on="1"/>
        <pt x="327" y="305" on="1"/>
        <pt x="327" y="332" on="0"/>
        <pt x="311" y="361" on="0"/>
        <pt x="296" y="371" on="1"/>
        <pt x="283" y="379" on="0"/>
        <pt x="254" y="386" on="0"/>
        <pt x="231" y="386" on="1"/>
        <pt x="187" y="386" on="0"/>
        <pt x="121" y="368" on="0"/>
        <pt x="89" y="353" on="1"/>
        <pt x="68" y="436" on="1"/>
        <pt x="140" y="475" on="0"/>
        <pt x="237" y="475" on="1"/>
        <pt x="259" y="475" on="0"/>
        <pt x="306" y="469" on="0"/>
        <pt x="351" y="454" on="0"/>
        <pt x="391" y="429" on="0"/>
        <pt x="406" y="410" on="1"/>
        <pt x="436" y="440" on="0"/>
        <pt x="521" y="475" on="0"/>
      </contour>
      <contour>
        <pt x="212" y="77" on="1"/>
        <pt x="241" y="77" on="0"/>
        <pt x="307" y="106" on="0"/>
        <pt x="327" y="134" on="1"/>
        <pt x="327" y="227" on="1"/>
        <pt x="320" y="227" on="1"/>
        <pt x="291" y="227" on="0"/>
        <pt x="231" y="221" on="0"/>
        <pt x="182" y="201" on="0"/>
        <pt x="151" y="163" on="0"/>
        <pt x="151" y="130" on="1"/>
        <pt x="151" y="104" on="0"/>
        <pt x="184" y="77" on="0"/>
      </contour>
      <contour>
        <pt x="572" y="389" on="1"/>
        <pt x="527" y="389" on="0"/>
        <pt x="470" y="338" on="0"/>
        <pt x="458" y="298" on="1"/>
        <pt x="649" y="298" on="1"/>
        <pt x="650" y="303" on="0"/>
        <pt x="650" y="311" on="0"/>
        <pt x="650" y="316" on="1"/>
        <pt x="650" y="352" on="0"/>
        <pt x="603" y="389" on="0"/>
      </contour>
    </TTGlyph>
    <TTGlyph name="agrave" xMin="34" yMin="-12" xMax="437" yMax="681">
      <contour>
        <pt x="349" y="0" on="1"/>
        <pt x="341" y="63" on="1"/>
        <pt x="337" y="63" on="1"/>
        <pt x="310" y="29" on="0"/>
        <pt x="217" y="-12" on="0"/>
        <pt x="169" y="-12" on="1"/>
        <pt x="106" y="-12" on="0"/>
        <pt x="34" y="61" on="0"/>
        <pt x="34" y="121" on="1"/>
        <pt x="34" y="162" on="0"/>
        <pt x="69" y="227" on="0"/>
        <pt x="135" y="272" on="0"/>
        <pt x="227" y="296" on="0"/>
        <pt x="284" y="296" on="1"/>
        <pt x="327" y="296" on="1"/>
        <pt x="327" y="311" on="1"/>
        <pt x="327" y="350" on="0"/>
        <pt x="302" y="368" on="1"/>
        <pt x="276" y="386" on="0"/>
        <pt x="221" y="386" on="1"/>
        <pt x="147" y="386" on="0"/>
        <pt x="89" y="353" on="1"/>
        <pt x="68" y="436" on="1"/>
        <pt x="135" y="475" on="0"/>
        <pt x="230" y="475" on="1"/>
        <pt x="330" y="475" on="0"/>
        <pt x="382" y="434" on="1"/>
        <pt x="406" y="415" on="0"/>
        <pt x="437" y="355" on="0"/>
        <pt x="437" y="313" on="1"/>
        <pt x="437" y="0" on="1"/>
      </contour>
      <contour>
        <pt x="212" y="77" on="1"/>
        <pt x="244" y="77" on="0"/>
        <pt x="308" y="108" on="0"/>
        <pt x="327" y="134" on="1"/>
        <pt x="327" y="225" on="1"/>
        <pt x="308" y="225" on="1"/>
        <pt x="226" y="225" on="0"/>
        <pt x="151" y="183" on="0"/>
        <pt x="151" y="137" on="1"/>
        <pt x="151" y="77" on="0"/>
      </contour>
      <contour>
        <pt x="305" y="531" on="1"/>
        <pt x="118" y="600" on="1"/>
        <pt x="111" y="602" on="0"/>
        <pt x="105" y="618" on="0"/>
        <pt x="105" y="629" on="1"/>
        <pt x="105" y="646" on="0"/>
        <pt x="121" y="681" on="0"/>
        <pt x="135" y="681" on="1"/>
        <pt x="139" y="681" on="0"/>
        <pt x="145" y="678" on="1"/>
        <pt x="325" y="577" on="1"/>
        <pt x="328" y="570" on="1"/>
        <pt x="313" y="534" on="1"/>
      </contour>
    </TTGlyph>
    <TTGlyph name="ampersand" xMin="53" yMin="-12" xMax="672" yMax="665">
      <contour>
        <pt x="668" y="442" on="1"/>
        <pt x="668" y="365" on="1"/>
        <pt x="524" y="354" on="1"/>
        <pt x="556" y="298" on="0"/>
        <pt x="556" y="235" on="1"/>
        <pt x="556" y="186" on="0"/>
        <pt x="536" y="140" on="1"/>
        <pt x="672" y="0" on="1"/>
        <pt x="548" y="0" on="1"/>
        <pt x="485" y="65" on="1"/>
        <pt x="450" y="30" on="0"/>
        <pt x="348" y="-12" on="0"/>
        <pt x="282" y="-12" on="1"/>
        <pt x="226" y="-12" on="0"/>
        <pt x="140" y="19" on="0"/>
        <pt x="82" y="72" on="0"/>
        <pt x="53" y="140" on="0"/>
        <pt x="53" y="176" on="1"/>
        <pt x="53" y="203" on="0"/>
        <pt x="70" y="260" on="0"/>
        <pt x="103" y="312" on="0"/>
        <pt x="154" y="356" on="0"/>
        <pt x="187" y="370" on="1"/>
        <pt x="158" y="404" on="0"/>
        <pt x="126" y="472" on="0"/>
        <pt x="126" y="516" on="1"/>
        <pt x="126" y="553" on="0"/>
        <pt x="149" y="608" on="0"/>
        <pt x="190" y="646" on="0"/>
        <pt x="244" y="665" on="0"/>
        <pt x="274" y="665" on="1"/>
        <pt x="308" y="665" on="0"/>
        <pt x="383" y="642" on="0"/>
        <pt x="417" y="621" on="1"/>
        <pt x="389" y="525" on="1"/>
        <pt x="380" y="533" on="0"/>
        <pt x="354" y="550" on="0"/>
        <pt x="325" y="563" on="0"/>
        <pt x="295" y="572" on="0"/>
        <pt x="282" y="572" on="1"/>
        <pt x="258" y="572" on="0"/>
        <pt x="225" y="540" on="0"/>
        <pt x="225" y="508" on="1"/>
        <pt x="225" y="476" on="0"/>
        <pt x="261" y="425" on="0"/>
        <pt x="287" y="398" on="1"/>
        <pt x="459" y="220" on="1"/>
        <pt x="460" y="225" on="0"/>
        <pt x="461" y="237" on="0"/>
        <pt x="461" y="243" on="1"/>
        <pt x="461" y="266" on="0"/>
        <pt x="446" y="319" on="0"/>
        <pt x="427" y="346" on="1"/>
        <pt x="378" y="343" on="1"/>
        <pt x="378" y="405" on="1"/>
      </contour>
      <contour>
        <pt x="291" y="84" on="1"/>
        <pt x="331" y="84" on="0"/>
        <pt x="395" y="111" on="0"/>
        <pt x="417" y="134" on="1"/>
        <pt x="247" y="307" on="1"/>
        <pt x="228" y="302" on="0"/>
        <pt x="199" y="278" on="0"/>
        <pt x="179" y="247" on="0"/>
        <pt x="169" y="209" on="0"/>
        <pt x="169" y="190" on="1"/>
        <pt x="169" y="136" on="0"/>
        <pt x="238" y="84" on="0"/>
      </contour>
    </TTGlyph>
    <TTGlyph name="aring" xMin="34" yMin="-12" xMax="437" yMax="693">
      <contour>
        <pt x="256" y="693" on="1"/>
        <pt x="278" y="693" on="0"/>
        <pt x="312" y="678" on="0"/>
        <pt x="336" y="654" on="0"/>
        <pt x="349" y="624" on="0"/>
        <pt x="349" y="608" on="1"/>
        <pt x="349" y="578" on="0"/>
        <pt x="302" y="528" on="0"/>
        <pt x="257" y="528" on="1"/>
        <pt x="233" y="528" on="0"/>
        <pt x="198" y="543" on="0"/>
        <pt x="175" y="566" on="0"/>
        <pt x="164" y="595" on="0"/>
        <pt x="164" y="610" on="1"/>
        <pt x="164" y="642" on="0"/>
        <pt x="213" y="693" on="0"/>
      </contour>
      <contour>
        <pt x="257" y="572" on="1"/>
        <pt x="273" y="572" on="0"/>
        <pt x="291" y="595" on="0"/>
        <pt x="291" y="608" on="1"/>
        <pt x="291" y="622" on="0"/>
        <pt x="272" y="649" on="0"/>
        <pt x="255" y="649" on="1"/>
        <pt x="238" y="649" on="0"/>
        <pt x="221" y="625" on="0"/>
        <pt x="221" y="611" on="1"/>
        <pt x="221" y="597" on="0"/>
        <pt x="241" y="572" on="0"/>
      </contour>
      <contour>
        <pt x="349" y="0" on="1"/>
        <pt x="341" y="63" on="1"/>
        <pt x="337" y="63" on="1"/>
        <pt x="310" y="29" on="0"/>
        <pt x="217" y="-12" on="0"/>
        <pt x="169" y="-12" on="1"/>
        <pt x="106" y="-12" on="0"/>
        <pt x="34" y="61" on="0"/>
        <pt x="34" y="121" on="1"/>
        <pt x="34" y="162" on="0"/>
        <pt x="69" y="227" on="0"/>
        <pt x="135" y="272" on="0"/>
        <pt x="227" y="296" on="0"/>
        <pt x="284" y="296" on="1"/>
        <pt x="327" y="296" on="1"/>
        <pt x="327" y="311" on="1"/>
        <pt x="327" y="350" on="0"/>
        <pt x="302" y="368" on="1"/>
        <pt x="276" y="386" on="0"/>
        <pt x="221" y="386" on="1"/>
        <pt x="147" y="386" on="0"/>
        <pt x="89" y="353" on="1"/>
        <pt x="68" y="436" on="1"/>
        <pt x="135" y="475" on="0"/>
        <pt x="230" y="475" on="1"/>
        <pt x="330" y="475" on="0"/>
        <pt x="382" y="434" on="1"/>
        <pt x="406" y="415" on="0"/>
        <pt x="437" y="355" on="0"/>
        <pt x="437" y="313" on="1"/>
        <pt x="437" y="0" on="1"/>
      </contour>
      <contour>
        <pt x="212" y="77" on="1"/>
        <pt x="244" y="77" on="0"/>
        <pt x="308" y="108" on="0"/>
        <pt x="327" y="134" on="1"/>
        <pt x="327" y="225" on="1"/>
        <pt x="308" y="225" on="1"/>
        <pt x="226" y="225" on="0"/>
        <pt x="151" y="183" on="0"/>
        <pt x="151" y="137" on="1"/>
        <pt x="151" y="77" on="0"/>
      </contour>
    </TTGlyph>
    <TTGlyph name="asciicircum" xMin="57" yMin="535" xMax="291" yMax="673">
      <contour>
        <pt x="178" y="673" on="1"/>
        <pt x="288" y="574" on="1"/>
        <pt x="291" y="567" on="1"/>
        <pt x="275" y="538" on="1"/>
        <pt x="268" y="535" on="1"/>
        <pt x="174" y="576" on="1"/>
        <pt x="80" y="535" on="1"/>
        <pt x="73" y="538" on="1"/>
        <pt x="57" y="567" on="1"/>
        <pt x="60" y="574" on="1"/>
        <pt x="170" y="673" on="1"/>
      </contour>
    </TTGlyph>
    <TTGlyph name="asciitilde" xMin="64" yMin="183" xMax="411" yMax="308">
      <contour>
        <pt x="411" y="288" on="1"/>
        <pt x="411" y="283" on="0"/>
        <pt x="401" y="254" on="0"/>
        <pt x="380" y="221" on="0"/>
        <pt x="345" y="196" on="0"/>
        <pt x="320" y="196" on="1"/>
        <pt x="312" y="196" on="0"/>
        <pt x="262" y="199" on="0"/>
        <pt x="203" y="202" on="0"/>
        <pt x="148" y="205" on="0"/>
        <pt x="134" y="205" on="1"/>
        <pt x="111" y="205" on="0"/>
        <pt x="87" y="195" on="0"/>
        <pt x="77" y="183" on="1"/>
        <pt x="64" y="202" on="1"/>
        <pt x="64" y="210" on="0"/>
        <pt x="75" y="241" on="0"/>
        <pt x="98" y="271" on="0"/>
        <pt x="134" y="294" on="0"/>
        <pt x="159" y="294" on="1"/>
        <pt x="168" y="294" on="0"/>
        <pt x="210" y="291" on="0"/>
        <pt x="260" y="288" on="0"/>
        <pt x="312" y="285" on="0"/>
        <pt x="332" y="285" on="1"/>
        <pt x="351" y="285" on="0"/>
        <pt x="386" y="292" on="0"/>
        <pt x="399" y="308" on="1"/>
      </contour>
    </TTGlyph>
    <TTGlyph name="asterisk" xMin="52" yMin="374" xMax="388" yMax="702">
      <contour>
        <pt x="244" y="578" on="1"/>
        <pt x="336" y="665" on="1"/>
        <pt x="388" y="576" on="1"/>
        <pt x="268" y="538" on="1"/>
        <pt x="388" y="500" on="1"/>
        <pt x="336" y="411" on="1"/>
        <pt x="243" y="497" on="1"/>
        <pt x="271" y="374" on="1"/>
        <pt x="169" y="374" on="1"/>
        <pt x="196" y="497" on="1"/>
        <pt x="104" y="411" on="1"/>
        <pt x="52" y="500" on="1"/>
        <pt x="171" y="538" on="1"/>
        <pt x="52" y="576" on="1"/>
        <pt x="104" y="665" on="1"/>
        <pt x="196" y="578" on="1"/>
        <pt x="169" y="702" on="1"/>
        <pt x="271" y="702" on="1"/>
      </contour>
    </TTGlyph>
    <TTGlyph name="at" xMin="50" yMin="-101" xMax="674" yMax="548">
      <contour>
        <pt x="411" y="320" on="1"/>
        <pt x="402" y="324" on="0"/>
        <pt x="391" y="324" on="1"/>
        <pt x="371" y="324" on="0"/>
        <pt x="341" y="297" on="0"/>
        <pt x="319" y="257" on="0"/>
        <pt x="308" y="210" on="0"/>
        <pt x="308" y="191" on="1"/>
        <pt x="308" y="150" on="0"/>
        <pt x="330" y="150" on="1"/>
        <pt x="339" y="150" on="0"/>
        <pt x="360" y="165" on="0"/>
        <pt x="380" y="192" on="0"/>
        <pt x="396" y="227" on="0"/>
        <pt x="399" y="248" on="1"/>
      </contour>
      <contour>
        <pt x="571" y="-23" on="1"/>
        <pt x="561" y="-32" on="0"/>
        <pt x="518" y="-59" on="0"/>
        <pt x="458" y="-84" on="0"/>
        <pt x="383" y="-101" on="0"/>
        <pt x="342" y="-101" on="1"/>
        <pt x="283" y="-101" on="0"/>
        <pt x="177" y="-61" on="0"/>
        <pt x="97" y="12" on="0"/>
        <pt x="50" y="116" on="0"/>
        <pt x="50" y="180" on="1"/>
        <pt x="50" y="237" on="0"/>
        <pt x="91" y="366" on="0"/>
        <pt x="177" y="476" on="0"/>
        <pt x="309" y="548" on="0"/>
        <pt x="401" y="548" on="1"/>
        <pt x="472" y="548" on="0"/>
        <pt x="575" y="504" on="0"/>
        <pt x="642" y="434" on="0"/>
        <pt x="674" y="346" on="0"/>
        <pt x="674" y="303" on="1"/>
        <pt x="674" y="257" on="0"/>
        <pt x="642" y="174" on="0"/>
        <pt x="587" y="111" on="0"/>
        <pt x="514" y="74" on="0"/>
        <pt x="474" y="74" on="1"/>
        <pt x="431" y="74" on="0"/>
        <pt x="397" y="115" on="0"/>
        <pt x="397" y="147" on="1"/>
        <pt x="380" y="113" on="0"/>
        <pt x="322" y="73" on="0"/>
        <pt x="296" y="73" on="1"/>
        <pt x="281" y="73" on="0"/>
        <pt x="250" y="88" on="0"/>
        <pt x="226" y="118" on="0"/>
        <pt x="210" y="163" on="0"/>
        <pt x="210" y="193" on="1"/>
        <pt x="210" y="238" on="0"/>
        <pt x="245" y="310" on="0"/>
        <pt x="299" y="361" on="0"/>
        <pt x="366" y="389" on="0"/>
        <pt x="399" y="389" on="1"/>
        <pt x="412" y="389" on="0"/>
        <pt x="443" y="384" on="0"/>
        <pt x="473" y="375" on="0"/>
        <pt x="498" y="360" on="0"/>
        <pt x="506" y="350" on="1"/>
        <pt x="475" y="208" on="1"/>
        <pt x="473" y="198" on="0"/>
        <pt x="471" y="177" on="0"/>
        <pt x="471" y="169" on="1"/>
        <pt x="471" y="161" on="0"/>
        <pt x="477" y="145" on="0"/>
        <pt x="491" y="145" on="1"/>
        <pt x="508" y="145" on="0"/>
        <pt x="538" y="171" on="0"/>
        <pt x="560" y="214" on="0"/>
        <pt x="573" y="268" on="0"/>
        <pt x="573" y="296" on="1"/>
        <pt x="573" y="328" on="0"/>
        <pt x="554" y="391" on="0"/>
        <pt x="512" y="440" on="0"/>
        <pt x="446" y="471" on="0"/>
        <pt x="400" y="471" on="1"/>
        <pt x="339" y="471" on="0"/>
        <pt x="247" y="419" on="0"/>
        <pt x="185" y="336" on="0"/>
        <pt x="153" y="232" on="0"/>
        <pt x="153" y="180" on="1"/>
        <pt x="153" y="126" on="0"/>
        <pt x="185" y="49" on="0"/>
        <pt x="241" y="0" on="0"/>
        <pt x="314" y="-23" on="0"/>
        <pt x="356" y="-23" on="1"/>
        <pt x="395" y="-23" on="0"/>
        <pt x="464" y="-6" on="0"/>
        <pt x="519" y="19" on="0"/>
        <pt x="560" y="47" on="0"/>
        <pt x="571" y="57" on="1"/>
      </contour>
    </TTGlyph>
    <TTGlyph name="atilde" xMin="34" yMin="-12" xMax="437" yMax="681">
      <contour>
        <pt x="349" y="0" on="1"/>
        <pt x="341" y="63" on="1"/>
        <pt x="337" y="63" on="1"/>
        <pt x="310" y="29" on="0"/>
        <pt x="217" y="-12" on="0"/>
        <pt x="169" y="-12" on="1"/>
        <pt x="106" y="-12" on="0"/>
        <pt x="34" y="61" on="0"/>
        <pt x="34" y="121" on="1"/>
        <pt x="34" y="162" on="0"/>
        <pt x="69" y="227" on="0"/>
        <pt x="135" y="272" on="0"/>
        <pt x="227" y="296" on="0"/>
        <pt x="284" y="296" on="1"/>
        <pt x="327" y="296" on="1"/>
        <pt x="327" y="311" on="1"/>
        <pt x="327" y="350" on="0"/>
        <pt x="302" y="368" on="1"/>
        <pt x="276" y="386" on="0"/>
        <pt x="221" y="386" on="1"/>
        <pt x="147" y="386" on="0"/>
        <pt x="89" y="353" on="1"/>
        <pt x="68" y="436" on="1"/>
        <pt x="135" y="475" on="0"/>
        <pt x="230" y="475" on="1"/>
        <pt x="330" y="475" on="0"/>
        <pt x="382" y="434" on="1"/>
        <pt x="406" y="415" on="0"/>
        <pt x="437" y="355" on="0"/>
        <pt x="437" y="313" on="1"/>
        <pt x="437" y="0" on="1"/>
      </contour>
      <contour>
        <pt x="212" y="77" on="1"/>
        <pt x="244" y="77" on="0"/>
        <pt x="308" y="108" on="0"/>
        <pt x="327" y="134" on="1"/>
        <pt x="327" y="225" on="1"/>
        <pt x="308" y="225" on="1"/>
        <pt x="226" y="225" on="0"/>
        <pt x="151" y="183" on="0"/>
        <pt x="151" y="137" on="1"/>
        <pt x="151" y="77" on="0"/>
      </contour>
      <contour>
        <pt x="405" y="658" on="1"/>
        <pt x="402" y="642" on="0"/>
        <pt x="389" y="609" on="0"/>
        <pt x="368" y="583" on="0"/>
        <pt x="337" y="566" on="0"/>
        <pt x="315" y="566" on="1"/>
        <pt x="303" y="566" on="0"/>
        <pt x="272" y="570" on="0"/>
        <pt x="236" y="576" on="0"/>
        <pt x="199" y="580" on="0"/>
        <pt x="182" y="580" on="1"/>
        <pt x="159" y="580" on="0"/>
        <pt x="121" y="569" on="0"/>
        <pt x="107" y="555" on="1"/>
        <pt x="94" y="578" on="1"/>
        <pt x="100" y="596" on="0"/>
        <pt x="113" y="629" on="0"/>
        <pt x="135" y="654" on="0"/>
        <pt x="167" y="669" on="0"/>
        <pt x="192" y="669" on="1"/>
        <pt x="221" y="669" on="0"/>
        <pt x="290" y="655" on="0"/>
        <pt x="317" y="655" on="1"/>
        <pt x="335" y="655" on="0"/>
        <pt x="373" y="666" on="0"/>
        <pt x="393" y="681" on="1"/>
      </contour>
    </TTGlyph>
    <TTGlyph name="b" xMin="69" yMin="-12" xMax="532" yMax="740">
      <contour>
        <pt x="322" y="-12" on="1"/>
        <pt x="268" y="-12" on="0"/>
        <pt x="197" y="32" on="0"/>
        <pt x="169" y="63" on="1"/>
        <pt x="165" y="63" on="1"/>
        <pt x="157" y="0" on="1"/>
        <pt x="69" y="0" on="1"/>
        <pt x="69" y="740" on="1"/>
        <pt x="178" y="740" on="1"/>
        <pt x="178" y="414" on="1"/>
        <pt x="201" y="443" on="0"/>
        <pt x="277" y="475" on="0"/>
        <pt x="325" y="475" on="1"/>
        <pt x="377" y="475" on="0"/>
        <pt x="455" y="435" on="0"/>
        <pt x="507" y="369" on="0"/>
        <pt x="532" y="282" on="0"/>
        <pt x="532" y="235" on="1"/>
        <pt x="532" y="182" on="0"/>
        <pt x="502" y="92" on="0"/>
        <pt x="447" y="26" on="0"/>
        <pt x="369" y="-12" on="0"/>
      </contour>
      <contour>
        <pt x="308" y="71" on="1"/>
        <pt x="337" y="71" on="0"/>
        <pt x="380" y="99" on="0"/>
        <pt x="409" y="144" on="0"/>
        <pt x="423" y="203" on="0"/>
        <pt x="423" y="233" on="1"/>
        <pt x="423" y="264" on="0"/>
        <pt x="408" y="321" on="0"/>
        <pt x="377" y="365" on="0"/>
        <pt x="330" y="390" on="0"/>
        <pt x="299" y="390" on="1"/>
        <pt x="270" y="390" on="0"/>
        <pt x="208" y="363" on="0"/>
        <pt x="178" y="326" on="1"/>
        <pt x="178" y="134" on="1"/>
        <pt x="189" y="119" on="0"/>
        <pt x="221" y="96" on="0"/>
        <pt x="256" y="80" on="0"/>
        <pt x="292" y="71" on="0"/>
      </contour>
    </TTGlyph>
    <TTGlyph name="backslash" xMin="29" yMin="-57" xMax="420" yMax="702">
      <contour>
        <pt x="29" y="702" on="1"/>
        <pt x="142" y="702" on="1"/>
        <pt x="420" y="-57" on="1"/>
        <pt x="307" y="-57" on="1"/>
      </contour>
    </TTGlyph>
    <TTGlyph name="bar" xMin="77" yMin="-114" xMax="179" yMax="768">
      <contour>
        <pt x="179" y="-114" on="1"/>
        <pt x="77" y="-114" on="1"/>
        <pt x="77" y="768" on="1"/>
        <pt x="179" y="768" on="1"/>
      </contour>
    </TTGlyph>
    <TTGlyph name="braceleft" xMin="30" yMin="-106" xMax="246" yMax="760">
      <contour>
        <pt x="246" y="709" on="1"/>
        <pt x="222" y="706" on="0"/>
        <pt x="211" y="664" on="0"/>
        <pt x="211" y="641" on="1"/>
        <pt x="211" y="629" on="0"/>
        <pt x="212" y="589" on="0"/>
        <pt x="212" y="547" on="0"/>
        <pt x="213" y="508" on="0"/>
        <pt x="213" y="498" on="1"/>
        <pt x="213" y="426" on="0"/>
        <pt x="170" y="340" on="0"/>
        <pt x="119" y="327" on="1"/>
        <pt x="170" y="314" on="0"/>
        <pt x="213" y="228" on="0"/>
        <pt x="213" y="156" on="1"/>
        <pt x="213" y="145" on="0"/>
        <pt x="212" y="107" on="0"/>
        <pt x="212" y="65" on="0"/>
        <pt x="211" y="26" on="0"/>
        <pt x="211" y="14" on="1"/>
        <pt x="211" y="-10" on="0"/>
        <pt x="222" y="-52" on="0"/>
        <pt x="246" y="-55" on="1"/>
        <pt x="244" y="-106" on="1"/>
        <pt x="197" y="-106" on="0"/>
        <pt x="141" y="-85" on="0"/>
        <pt x="110" y="-48" on="0"/>
        <pt x="100" y="5" on="0"/>
        <pt x="100" y="38" on="1"/>
        <pt x="100" y="48" on="0"/>
        <pt x="101" y="85" on="0"/>
        <pt x="101" y="126" on="0"/>
        <pt x="102" y="168" on="0"/>
        <pt x="102" y="184" on="1"/>
        <pt x="102" y="202" on="0"/>
        <pt x="99" y="242" on="0"/>
        <pt x="85" y="277" on="0"/>
        <pt x="56" y="301" on="0"/>
        <pt x="30" y="302" on="1"/>
        <pt x="30" y="352" on="1"/>
        <pt x="57" y="353" on="0"/>
        <pt x="86" y="379" on="0"/>
        <pt x="99" y="413" on="0"/>
        <pt x="102" y="450" on="0"/>
        <pt x="102" y="463" on="1"/>
        <pt x="102" y="484" on="0"/>
        <pt x="101" y="530" on="0"/>
        <pt x="101" y="572" on="0"/>
        <pt x="100" y="606" on="0"/>
        <pt x="100" y="617" on="1"/>
        <pt x="100" y="649" on="0"/>
        <pt x="110" y="702" on="0"/>
        <pt x="141" y="739" on="0"/>
        <pt x="197" y="760" on="0"/>
        <pt x="244" y="760" on="1"/>
      </contour>
    </TTGlyph>
    <TTGlyph name="braceright" xMin="46" yMin="-106" xMax="262" yMax="760">
      <contour>
        <pt x="46" y="-55" on="1"/>
        <pt x="70" y="-52" on="0"/>
        <pt x="81" y="-10" on="0"/>
        <pt x="81" y="13" on="1"/>
        <pt x="81" y="25" on="0"/>
        <pt x="80" y="65" on="0"/>
        <pt x="80" y="107" on="0"/>
        <pt x="79" y="145" on="0"/>
        <pt x="79" y="156" on="1"/>
        <pt x="79" y="228" on="0"/>
        <pt x="122" y="314" on="0"/>
        <pt x="173" y="327" on="1"/>
        <pt x="122" y="340" on="0"/>
        <pt x="79" y="426" on="0"/>
        <pt x="79" y="498" on="1"/>
        <pt x="79" y="508" on="0"/>
        <pt x="80" y="547" on="0"/>
        <pt x="80" y="589" on="0"/>
        <pt x="81" y="628" on="0"/>
        <pt x="81" y="640" on="1"/>
        <pt x="81" y="664" on="0"/>
        <pt x="70" y="706" on="0"/>
        <pt x="46" y="709" on="1"/>
        <pt x="48" y="760" on="1"/>
        <pt x="94" y="760" on="0"/>
        <pt x="151" y="739" on="0"/>
        <pt x="182" y="702" on="0"/>
        <pt x="192" y="649" on="0"/>
        <pt x="192" y="616" on="1"/>
        <pt x="192" y="605" on="0"/>
        <pt x="191" y="569" on="0"/>
        <pt x="191" y="528" on="0"/>
        <pt x="190" y="486" on="0"/>
        <pt x="190" y="470" on="1"/>
        <pt x="190" y="452" on="0"/>
        <pt x="193" y="412" on="0"/>
        <pt x="207" y="377" on="0"/>
        <pt x="236" y="353" on="0"/>
        <pt x="262" y="352" on="1"/>
        <pt x="262" y="302" on="1"/>
        <pt x="235" y="300" on="0"/>
        <pt x="206" y="275" on="0"/>
        <pt x="193" y="241" on="0"/>
        <pt x="190" y="204" on="0"/>
        <pt x="190" y="191" on="1"/>
        <pt x="190" y="170" on="0"/>
        <pt x="191" y="124" on="0"/>
        <pt x="191" y="82" on="0"/>
        <pt x="192" y="47" on="0"/>
        <pt x="192" y="37" on="1"/>
        <pt x="192" y="5" on="0"/>
        <pt x="182" y="-48" on="0"/>
        <pt x="151" y="-86" on="0"/>
        <pt x="94" y="-106" on="0"/>
        <pt x="48" y="-106" on="1"/>
      </contour>
    </TTGlyph>
    <TTGlyph name="bracketleft" xMin="77" yMin="-95" xMax="237" yMax="749">
      <contour>
        <pt x="237" y="-95" on="1"/>
        <pt x="77" y="-95" on="1"/>
        <pt x="77" y="749" on="1"/>
        <pt x="237" y="749" on="1"/>
        <pt x="237" y="677" on="1"/>
        <pt x="182" y="677" on="1"/>
        <pt x="182" y="-23" on="1"/>
        <pt x="237" y="-23" on="1"/>
      </contour>
    </TTGlyph>
    <TTGlyph name="bracketright" xMin="44" yMin="-95" xMax="204" yMax="749">
      <contour>
        <pt x="44" y="749" on="1"/>
        <pt x="204" y="749" on="1"/>
        <pt x="204" y="-95" on="1"/>
        <pt x="44" y="-95" on="1"/>
        <pt x="44" y="-23" on="1"/>
        <pt x="99" y="-23" on="1"/>
        <pt x="99" y="677" on="1"/>
        <pt x="44" y="677" on="1"/>
      </contour>
    </TTGlyph>
    <TTGlyph name="brokenbar" xMin="78" yMin="-114" xMax="180" yMax="768">
      <contour>
        <pt x="180" y="274" on="1"/>
        <pt x="180" y="-114" on="1"/>
        <pt x="78" y="-114" on="1"/>
        <pt x="78" y="274" on="1"/>
      </contour>
      <contour>
        <pt x="78" y="380" on="1"/>
        <pt x="78" y="768" on="1"/>
        <pt x="180" y="768" on="1"/>
        <pt x="180" y="380" on="1"/>
      </contour>
    </TTGlyph>
    <TTGlyph name="bullet" xMin="89" yMin="172" xMax="233" yMax="316">
      <contour>
        <pt x="89" y="243" on="1"/>
        <pt x="89" y="257" on="0"/>
        <pt x="100" y="283" on="0"/>
        <pt x="120" y="304" on="0"/>
        <pt x="145" y="316" on="0"/>
        <pt x="160" y="316" on="1"/>
        <pt x="174" y="316" on="0"/>
        <pt x="200" y="304" on="0"/>
        <pt x="221" y="283" on="0"/>
        <pt x="233" y="257" on="0"/>
        <pt x="233" y="243" on="1"/>
        <pt x="233" y="228" on="0"/>
        <pt x="221" y="203" on="0"/>
        <pt x="200" y="183" on="0"/>
        <pt x="174" y="172" on="0"/>
        <pt x="160" y="172" on="1"/>
        <pt x="131" y="172" on="0"/>
        <pt x="89" y="214" on="0"/>
      </contour>
    </TTGlyph>
    <TTGlyph name="c" xMin="42" yMin="-12" xMax="453" yMax="475">
      <contour>
        <pt x="424" y="346" on="1"/>
        <pt x="413" y="354" on="0"/>
        <pt x="380" y="370" on="0"/>
        <pt x="342" y="382" on="0"/>
        <pt x="301" y="389" on="0"/>
        <pt x="283" y="389" on="1"/>
        <pt x="249" y="389" on="0"/>
        <pt x="202" y="364" on="0"/>
        <pt x="173" y="323" on="0"/>
        <pt x="160" y="269" on="0"/>
        <pt x="160" y="240" on="1"/>
        <pt x="160" y="206" on="0"/>
        <pt x="176" y="147" on="0"/>
        <pt x="208" y="103" on="0"/>
        <pt x="257" y="77" on="0"/>
        <pt x="289" y="77" on="1"/>
        <pt x="325" y="77" on="0"/>
        <pt x="406" y="106" on="0"/>
        <pt x="433" y="132" on="1"/>
        <pt x="453" y="38" on="1"/>
        <pt x="425" y="20" on="0"/>
        <pt x="328" y="-12" on="0"/>
        <pt x="273" y="-12" on="1"/>
        <pt x="215" y="-12" on="0"/>
        <pt x="128" y="28" on="0"/>
        <pt x="71" y="95" on="0"/>
        <pt x="42" y="184" on="0"/>
        <pt x="42" y="234" on="1"/>
        <pt x="42" y="282" on="0"/>
        <pt x="69" y="369" on="0"/>
        <pt x="127" y="436" on="0"/>
        <pt x="217" y="475" on="0"/>
        <pt x="280" y="475" on="1"/>
        <pt x="328" y="475" on="0"/>
        <pt x="420" y="453" on="0"/>
        <pt x="448" y="435" on="1"/>
      </contour>
    </TTGlyph>
    <TTGlyph name="caron" xMin="0" yMin="535" xMax="234" yMax="673">
      <contour>
        <pt x="113" y="535" on="1"/>
        <pt x="3" y="634" on="1"/>
        <pt x="0" y="641" on="1"/>
        <pt x="16" y="670" on="1"/>
        <pt x="23" y="673" on="1"/>
        <pt x="117" y="632" on="1"/>
        <pt x="211" y="673" on="1"/>
        <pt x="218" y="670" on="1"/>
        <pt x="234" y="641" on="1"/>
        <pt x="231" y="634" on="1"/>
        <pt x="121" y="535" on="1"/>
      </contour>
    </TTGlyph>
    <TTGlyph name="ccedilla" xMin="43" yMin="-218" xMax="454" yMax="475">
      <contour>
        <pt x="425" y="346" on="1"/>
        <pt x="414" y="354" on="0"/>
        <pt x="381" y="370" on="0"/>
        <pt x="343" y="382" on="0"/>
        <pt x="302" y="389" on="0"/>
        <pt x="284" y="389" on="1"/>
        <pt x="250" y="389" on="0"/>
        <pt x="203" y="364" on="0"/>
        <pt x="174" y="323" on="0"/>
        <pt x="161" y="269" on="0"/>
        <pt x="161" y="240" on="1"/>
        <pt x="161" y="206" on="0"/>
        <pt x="177" y="147" on="0"/>
        <pt x="209" y="103" on="0"/>
        <pt x="258" y="77" on="0"/>
        <pt x="290" y="77" on="1"/>
        <pt x="326" y="77" on="0"/>
        <pt x="407" y="106" on="0"/>
        <pt x="434" y="132" on="1"/>
        <pt x="454" y="38" on="1"/>
        <pt x="428" y="21" on="0"/>
        <pt x="344" y="-8" on="0"/>
        <pt x="295" y="-11" on="1"/>
        <pt x="277" y="-41" on="1"/>
        <pt x="292" y="-37" on="0"/>
        <pt x="306" y="-37" on="1"/>
        <pt x="341" y="-37" on="0"/>
        <pt x="385" y="-84" on="0"/>
        <pt x="385" y="-119" on="1"/>
        <pt x="385" y="-139" on="0"/>
        <pt x="366" y="-174" on="0"/>
        <pt x="333" y="-202" on="0"/>
        <pt x="287" y="-218" on="0"/>
        <pt x="260" y="-218" on="1"/>
        <pt x="234" y="-218" on="0"/>
        <pt x="185" y="-207" on="0"/>
        <pt x="165" y="-199" on="1"/>
        <pt x="164" y="-193" on="1"/>
        <pt x="192" y="-145" on="1"/>
        <pt x="199" y="-145" on="1"/>
        <pt x="210" y="-150" on="0"/>
        <pt x="245" y="-157" on="0"/>
        <pt x="262" y="-157" on="1"/>
        <pt x="279" y="-157" on="0"/>
        <pt x="306" y="-144" on="0"/>
        <pt x="306" y="-127" on="1"/>
        <pt x="306" y="-109" on="0"/>
        <pt x="281" y="-96" on="0"/>
        <pt x="264" y="-96" on="1"/>
        <pt x="252" y="-96" on="0"/>
        <pt x="227" y="-100" on="0"/>
        <pt x="216" y="-103" on="1"/>
        <pt x="197" y="-77" on="1"/>
        <pt x="241" y="-10" on="1"/>
        <pt x="191" y="-4" on="0"/>
        <pt x="117" y="39" on="0"/>
        <pt x="67" y="104" on="0"/>
        <pt x="43" y="188" on="0"/>
        <pt x="43" y="234" on="1"/>
        <pt x="43" y="282" on="0"/>
        <pt x="70" y="369" on="0"/>
        <pt x="128" y="436" on="0"/>
        <pt x="218" y="475" on="0"/>
        <pt x="281" y="475" on="1"/>
        <pt x="329" y="475" on="0"/>
        <pt x="421" y="453" on="0"/>
        <pt x="449" y="435" on="1"/>
      </contour>
    </TTGlyph>
    <TTGlyph name="cedilla" xMin="0" yMin="-218" xMax="221" yMax="0">
      <contour>
        <pt x="0" y="-193" on="1"/>
        <pt x="28" y="-145" on="1"/>
        <pt x="35" y="-145" on="1"/>
        <pt x="46" y="-150" on="0"/>
        <pt x="81" y="-157" on="0"/>
        <pt x="98" y="-157" on="1"/>
        <pt x="115" y="-157" on="0"/>
        <pt x="142" y="-144" on="0"/>
        <pt x="142" y="-127" on="1"/>
        <pt x="142" y="-109" on="0"/>
        <pt x="117" y="-96" on="0"/>
        <pt x="100" y="-96" on="1"/>
        <pt x="88" y="-96" on="0"/>
        <pt x="63" y="-100" on="0"/>
        <pt x="52" y="-103" on="1"/>
        <pt x="33" y="-77" on="1"/>
        <pt x="84" y="0" on="1"/>
        <pt x="138" y="0" on="1"/>
        <pt x="113" y="-41" on="1"/>
        <pt x="128" y="-37" on="0"/>
        <pt x="142" y="-37" on="1"/>
        <pt x="177" y="-37" on="0"/>
        <pt x="221" y="-84" on="0"/>
        <pt x="221" y="-119" on="1"/>
        <pt x="221" y="-139" on="0"/>
        <pt x="202" y="-174" on="0"/>
        <pt x="169" y="-202" on="0"/>
        <pt x="123" y="-218" on="0"/>
        <pt x="96" y="-218" on="1"/>
        <pt x="70" y="-218" on="0"/>
        <pt x="21" y="-207" on="0"/>
        <pt x="1" y="-199" on="1"/>
      </contour>
    </TTGlyph>
    <TTGlyph name="cent" xMin="41" yMin="-137" xMax="452" yMax="577">
      <contour>
        <pt x="331" y="441" on="1"/>
        <pt x="366" y="436" on="0"/>
        <pt x="427" y="418" on="0"/>
        <pt x="447" y="405" on="1"/>
        <pt x="421" y="312" on="1"/>
        <pt x="407" y="325" on="0"/>
        <pt x="359" y="346" on="0"/>
        <pt x="331" y="352" on="1"/>
        <pt x="331" y="79" on="1"/>
        <pt x="360" y="86" on="0"/>
        <pt x="412" y="113" on="0"/>
        <pt x="432" y="131" on="1"/>
        <pt x="452" y="38" on="1"/>
        <pt x="432" y="24" on="0"/>
        <pt x="369" y="0" on="0"/>
        <pt x="331" y="-6" on="1"/>
        <pt x="331" y="-137" on="1"/>
        <pt x="239" y="-137" on="1"/>
        <pt x="239" y="-10" on="1"/>
        <pt x="189" y="-5" on="0"/>
        <pt x="115" y="36" on="0"/>
        <pt x="65" y="97" on="0"/>
        <pt x="41" y="176" on="0"/>
        <pt x="41" y="219" on="1"/>
        <pt x="41" y="260" on="0"/>
        <pt x="64" y="336" on="0"/>
        <pt x="112" y="396" on="0"/>
        <pt x="187" y="437" on="0"/>
        <pt x="239" y="443" on="1"/>
        <pt x="239" y="577" on="1"/>
        <pt x="331" y="577" on="1"/>
      </contour>
      <contour>
        <pt x="148" y="222" on="1"/>
        <pt x="148" y="174" on="0"/>
        <pt x="197" y="96" on="0"/>
        <pt x="239" y="81" on="1"/>
        <pt x="239" y="353" on="1"/>
        <pt x="194" y="340" on="0"/>
        <pt x="148" y="265" on="0"/>
      </contour>
    </TTGlyph>
    <TTGlyph name="circumflex" xMin="0" yMin="535" xMax="234" yMax="673">
      <contour>
        <pt x="121" y="673" on="1"/>
        <pt x="231" y="574" on="1"/>
        <pt x="234" y="567" on="1"/>
        <pt x="218" y="538" on="1"/>
        <pt x="211" y="535" on="1"/>
        <pt x="117" y="576" on="1"/>
        <pt x="23" y="535" on="1"/>
        <pt x="16" y="538" on="1"/>
        <pt x="0" y="567" on="1"/>
        <pt x="3" y="574" on="1"/>
        <pt x="113" y="673" on="1"/>
      </contour>
    </TTGlyph>
    <TTGlyph name="colon" xMin="65" yMin="-12" xMax="209" yMax="455">
      <contour>
        <pt x="65" y="59" on="1"/>
        <pt x="65" y="73" on="0"/>
        <pt x="76" y="99" on="0"/>
        <pt x="96" y="120" on="0"/>
        <pt x="121" y="132" on="0"/>
        <pt x="136" y="132" on="1"/>
        <pt x="150" y="132" on="0"/>
        <pt x="176" y="120" on="0"/>
        <pt x="197" y="99" on="0"/>
        <pt x="209" y="73" on="0"/>
        <pt x="209" y="59" on="1"/>
        <pt x="209" y="44" on="0"/>
        <pt x="197" y="19" on="0"/>
        <pt x="176" y="-1" on="0"/>
        <pt x="150" y="-12" on="0"/>
        <pt x="136" y="-12" on="1"/>
        <pt x="107" y="-12" on="0"/>
        <pt x="65" y="30" on="0"/>
      </contour>
      <contour>
        <pt x="65" y="382" on="1"/>
        <pt x="65" y="396" on="0"/>
        <pt x="76" y="422" on="0"/>
        <pt x="96" y="443" on="0"/>
        <pt x="121" y="455" on="0"/>
        <pt x="136" y="455" on="1"/>
        <pt x="150" y="455" on="0"/>
        <pt x="176" y="443" on="0"/>
        <pt x="197" y="422" on="0"/>
        <pt x="209" y="396" on="0"/>
        <pt x="209" y="382" on="1"/>
        <pt x="209" y="367" on="0"/>
        <pt x="197" y="342" on="0"/>
        <pt x="176" y="322" on="0"/>
        <pt x="150" y="311" on="0"/>
        <pt x="136" y="311" on="1"/>
        <pt x="107" y="311" on="0"/>
        <pt x="65" y="353" on="0"/>
      </contour>
    </TTGlyph>
    <TTGlyph name="comma" xMin="51" yMin="-143" xMax="190" yMax="132">
      <contour>
        <pt x="51" y="-118" on="1"/>
        <pt x="96" y="-5" on="1"/>
        <pt x="71" y="-5" on="1"/>
        <pt x="71" y="132" on="1"/>
        <pt x="190" y="132" on="1"/>
        <pt x="190" y="-20" on="1"/>
        <pt x="87" y="-143" on="1"/>
      </contour>
    </TTGlyph>
    <TTGlyph name="copyright" xMin="52" yMin="52" xMax="659" yMax="654">
      <contour>
        <pt x="355" y="654" on="1"/>
        <pt x="418" y="654" on="0"/>
        <pt x="529" y="607" on="0"/>
        <pt x="611" y="525" on="0"/>
        <pt x="659" y="416" on="0"/>
        <pt x="659" y="354" on="1"/>
        <pt x="659" y="291" on="0"/>
        <pt x="611" y="180" on="0"/>
        <pt x="528" y="99" on="0"/>
        <pt x="415" y="52" on="0"/>
        <pt x="350" y="52" on="1"/>
        <pt x="289" y="52" on="0"/>
        <pt x="180" y="100" on="0"/>
        <pt x="99" y="182" on="0"/>
        <pt x="52" y="292" on="0"/>
        <pt x="52" y="354" on="1"/>
        <pt x="52" y="416" on="0"/>
        <pt x="99" y="525" on="0"/>
        <pt x="182" y="607" on="0"/>
        <pt x="292" y="654" on="0"/>
      </contour>
      <contour>
        <pt x="454" y="427" on="1"/>
        <pt x="440" y="436" on="0"/>
        <pt x="380" y="451" on="0"/>
        <pt x="354" y="451" on="1"/>
        <pt x="330" y="451" on="0"/>
        <pt x="297" y="434" on="0"/>
        <pt x="276" y="407" on="0"/>
        <pt x="267" y="373" on="0"/>
        <pt x="267" y="355" on="1"/>
        <pt x="267" y="315" on="0"/>
        <pt x="312" y="254" on="0"/>
        <pt x="357" y="254" on="1"/>
        <pt x="385" y="254" on="0"/>
        <pt x="442" y="276" on="0"/>
        <pt x="461" y="290" on="1"/>
        <pt x="473" y="219" on="1"/>
        <pt x="453" y="206" on="0"/>
        <pt x="385" y="184" on="0"/>
        <pt x="347" y="184" on="1"/>
        <pt x="306" y="184" on="0"/>
        <pt x="246" y="212" on="0"/>
        <pt x="206" y="259" on="0"/>
        <pt x="186" y="321" on="0"/>
        <pt x="186" y="356" on="1"/>
        <pt x="186" y="390" on="0"/>
        <pt x="205" y="451" on="0"/>
        <pt x="245" y="497" on="0"/>
        <pt x="308" y="525" on="0"/>
        <pt x="352" y="525" on="1"/>
        <pt x="385" y="525" on="0"/>
        <pt x="450" y="510" on="0"/>
        <pt x="470" y="497" on="1"/>
      </contour>
      <contour>
        <pt x="357" y="600" on="1"/>
        <pt x="305" y="600" on="0"/>
        <pt x="216" y="562" on="0"/>
        <pt x="150" y="496" on="0"/>
        <pt x="113" y="407" on="0"/>
        <pt x="113" y="356" on="1"/>
        <pt x="113" y="303" on="0"/>
        <pt x="149" y="212" on="0"/>
        <pt x="213" y="145" on="0"/>
        <pt x="298" y="106" on="0"/>
        <pt x="348" y="106" on="1"/>
        <pt x="401" y="106" on="0"/>
        <pt x="491" y="144" on="0"/>
        <pt x="557" y="210" on="0"/>
        <pt x="595" y="300" on="0"/>
        <pt x="595" y="353" on="1"/>
        <pt x="595" y="404" on="0"/>
        <pt x="558" y="494" on="0"/>
        <pt x="494" y="561" on="0"/>
        <pt x="407" y="600" on="0"/>
      </contour>
    </TTGlyph>
    <TTGlyph name="currency" xMin="48" yMin="-15" xMax="544" yMax="473">
      <contour>
        <pt x="122" y="112" on="1"/>
        <pt x="83" y="163" on="0"/>
        <pt x="83" y="230" on="1"/>
        <pt x="83" y="261" on="0"/>
        <pt x="101" y="317" on="0"/>
        <pt x="123" y="346" on="1"/>
        <pt x="48" y="418" on="1"/>
        <pt x="103" y="473" on="1"/>
        <pt x="176" y="402" on="1"/>
        <pt x="206" y="422" on="0"/>
        <pt x="263" y="441" on="0"/>
        <pt x="295" y="441" on="1"/>
        <pt x="328" y="441" on="0"/>
        <pt x="385" y="422" on="0"/>
        <pt x="413" y="402" on="1"/>
        <pt x="486" y="473" on="1"/>
        <pt x="541" y="419" on="1"/>
        <pt x="470" y="346" on="1"/>
        <pt x="490" y="317" on="0"/>
        <pt x="509" y="260" on="0"/>
        <pt x="509" y="228" on="1"/>
        <pt x="509" y="196" on="0"/>
        <pt x="491" y="141" on="0"/>
        <pt x="471" y="112" on="1"/>
        <pt x="544" y="40" on="1"/>
        <pt x="488" y="-15" on="1"/>
        <pt x="414" y="56" on="1"/>
        <pt x="359" y="16" on="0"/>
        <pt x="297" y="16" on="1"/>
        <pt x="266" y="16" on="0"/>
        <pt x="210" y="35" on="0"/>
        <pt x="178" y="56" on="1"/>
        <pt x="105" y="-15" on="1"/>
        <pt x="51" y="40" on="1"/>
      </contour>
      <contour>
        <pt x="296" y="363" on="1"/>
        <pt x="269" y="363" on="0"/>
        <pt x="220" y="342" on="0"/>
        <pt x="184" y="306" on="0"/>
        <pt x="163" y="257" on="0"/>
        <pt x="163" y="229" on="1"/>
        <pt x="163" y="201" on="0"/>
        <pt x="184" y="152" on="0"/>
        <pt x="220" y="116" on="0"/>
        <pt x="269" y="95" on="0"/>
        <pt x="297" y="95" on="1"/>
        <pt x="325" y="95" on="0"/>
        <pt x="373" y="116" on="0"/>
        <pt x="409" y="152" on="0"/>
        <pt x="429" y="201" on="0"/>
        <pt x="429" y="229" on="1"/>
        <pt x="429" y="257" on="0"/>
        <pt x="409" y="306" on="0"/>
        <pt x="373" y="342" on="0"/>
        <pt x="324" y="363" on="0"/>
      </contour>
    </TTGlyph>
    <TTGlyph name="d" xMin="42" yMin="-12" xMax="505" yMax="740">
      <contour>
        <pt x="252" y="-12" on="1"/>
        <pt x="205" y="-12" on="0"/>
        <pt x="127" y="26" on="0"/>
        <pt x="72" y="92" on="0"/>
        <pt x="42" y="182" on="0"/>
        <pt x="42" y="235" on="1"/>
        <pt x="42" y="282" on="0"/>
        <pt x="67" y="369" on="0"/>
        <pt x="119" y="435" on="0"/>
        <pt x="196" y="475" on="0"/>
        <pt x="249" y="475" on="1"/>
        <pt x="297" y="475" on="0"/>
        <pt x="373" y="443" on="0"/>
        <pt x="396" y="414" on="1"/>
        <pt x="396" y="740" on="1"/>
        <pt x="505" y="740" on="1"/>
        <pt x="505" y="0" on="1"/>
        <pt x="417" y="0" on="1"/>
        <pt x="409" y="63" on="1"/>
        <pt x="405" y="63" on="1"/>
        <pt x="377" y="32" on="0"/>
        <pt x="306" y="-12" on="0"/>
      </contour>
      <contour>
        <pt x="266" y="71" on="1"/>
        <pt x="282" y="71" on="0"/>
        <pt x="318" y="80" on="0"/>
        <pt x="353" y="96" on="0"/>
        <pt x="385" y="119" on="0"/>
        <pt x="396" y="134" on="1"/>
        <pt x="396" y="326" on="1"/>
        <pt x="366" y="363" on="0"/>
        <pt x="304" y="390" on="0"/>
        <pt x="275" y="390" on="1"/>
        <pt x="243" y="390" on="0"/>
        <pt x="197" y="365" on="0"/>
        <pt x="166" y="321" on="0"/>
        <pt x="151" y="264" on="0"/>
        <pt x="151" y="233" on="1"/>
        <pt x="151" y="203" on="0"/>
        <pt x="165" y="144" on="0"/>
        <pt x="193" y="99" on="0"/>
        <pt x="237" y="71" on="0"/>
      </contour>
    </TTGlyph>
    <TTGlyph name="dagger" xMin="36" yMin="109" xMax="430" yMax="692">
      <contour>
        <pt x="168" y="109" on="1"/>
        <pt x="190" y="325" on="1"/>
        <pt x="190" y="419" on="1"/>
        <pt x="180" y="419" on="1"/>
        <pt x="36" y="407" on="1"/>
        <pt x="36" y="510" on="1"/>
        <pt x="181" y="498" on="1"/>
        <pt x="191" y="498" on="1"/>
        <pt x="169" y="692" on="1"/>
        <pt x="299" y="692" on="1"/>
        <pt x="277" y="498" on="1"/>
        <pt x="286" y="498" on="1"/>
        <pt x="430" y="510" on="1"/>
        <pt x="430" y="407" on="1"/>
        <pt x="285" y="419" on="1"/>
        <pt x="276" y="419" on="1"/>
        <pt x="276" y="325" on="1"/>
        <pt x="298" y="109" on="1"/>
      </contour>
    </TTGlyph>
    <TTGlyph name="daggerdbl" xMin="53" yMin="-71" xMax="447" yMax="692">
      <contour>
        <pt x="197" y="419" on="1"/>
        <pt x="53" y="407" on="1"/>
        <pt x="53" y="510" on="1"/>
        <pt x="197" y="498" on="1"/>
        <pt x="207" y="498" on="1"/>
        <pt x="185" y="692" on="1"/>
        <pt x="315" y="692" on="1"/>
        <pt x="293" y="498" on="1"/>
        <pt x="302" y="498" on="1"/>
        <pt x="447" y="510" on="1"/>
        <pt x="447" y="407" on="1"/>
        <pt x="303" y="419" on="1"/>
        <pt x="293" y="419" on="1"/>
        <pt x="293" y="202" on="1"/>
        <pt x="303" y="202" on="1"/>
        <pt x="447" y="214" on="1"/>
        <pt x="447" y="111" on="1"/>
        <pt x="302" y="123" on="1"/>
        <pt x="293" y="123" on="1"/>
        <pt x="315" y="-71" on="1"/>
        <pt x="185" y="-71" on="1"/>
        <pt x="207" y="123" on="1"/>
        <pt x="197" y="123" on="1"/>
        <pt x="53" y="111" on="1"/>
        <pt x="53" y="214" on="1"/>
        <pt x="197" y="202" on="1"/>
        <pt x="207" y="202" on="1"/>
        <pt x="207" y="419" on="1"/>
      </contour>
    </TTGlyph>
    <TTGlyph name="degree" xMin="48" yMin="399" xMax="322" yMax="658">
      <contour>
        <pt x="184" y="658" on="1"/>
        <pt x="218" y="658" on="0"/>
        <pt x="270" y="637" on="0"/>
        <pt x="305" y="601" on="0"/>
        <pt x="322" y="552" on="0"/>
        <pt x="322" y="525" on="1"/>
        <pt x="322" y="499" on="0"/>
        <pt x="306" y="453" on="0"/>
        <pt x="272" y="419" on="0"/>
        <pt x="220" y="399" on="0"/>
        <pt x="184" y="399" on="1"/>
        <pt x="148" y="399" on="0"/>
        <pt x="96" y="420" on="0"/>
        <pt x="63" y="455" on="0"/>
        <pt x="48" y="501" on="0"/>
        <pt x="48" y="527" on="1"/>
        <pt x="48" y="554" on="0"/>
        <pt x="66" y="602" on="0"/>
        <pt x="100" y="637" on="0"/>
        <pt x="151" y="658" on="0"/>
      </contour>
      <contour>
        <pt x="184" y="460" on="1"/>
        <pt x="219" y="460" on="0"/>
        <pt x="248" y="500" on="0"/>
        <pt x="248" y="527" on="1"/>
        <pt x="248" y="553" on="0"/>
        <pt x="219" y="594" on="0"/>
        <pt x="184" y="594" on="1"/>
        <pt x="149" y="594" on="0"/>
        <pt x="118" y="555" on="0"/>
        <pt x="118" y="530" on="1"/>
        <pt x="118" y="503" on="0"/>
        <pt x="151" y="460" on="0"/>
      </contour>
    </TTGlyph>
    <TTGlyph name="dieresis" xMin="0" yMin="561" xMax="252" yMax="677">
      <contour>
        <pt x="0" y="618" on="1"/>
        <pt x="0" y="641" on="0"/>
        <pt x="34" y="677" on="0"/>
        <pt x="57" y="677" on="1"/>
        <pt x="80" y="677" on="0"/>
        <pt x="116" y="641" on="0"/>
        <pt x="116" y="618" on="1"/>
        <pt x="116" y="595" on="0"/>
        <pt x="80" y="561" on="0"/>
        <pt x="57" y="561" on="1"/>
        <pt x="34" y="561" on="0"/>
        <pt x="0" y="595" on="0"/>
      </contour>
      <contour>
        <pt x="136" y="618" on="1"/>
        <pt x="136" y="641" on="0"/>
        <pt x="170" y="677" on="0"/>
        <pt x="193" y="677" on="1"/>
        <pt x="216" y="677" on="0"/>
        <pt x="252" y="641" on="0"/>
        <pt x="252" y="618" on="1"/>
        <pt x="252" y="595" on="0"/>
        <pt x="216" y="561" on="0"/>
        <pt x="193" y="561" on="1"/>
        <pt x="170" y="561" on="0"/>
        <pt x="136" y="595" on="0"/>
      </contour>
    </TTGlyph>
    <TTGlyph name="divide" xMin="50" yMin="-7" xMax="464" yMax="485">
      <contour>
        <pt x="464" y="280" on="1"/>
        <pt x="464" y="198" on="1"/>
        <pt x="50" y="198" on="1"/>
        <pt x="50" y="280" on="1"/>
      </contour>
      <contour>
        <pt x="196" y="64" on="1"/>
        <pt x="196" y="78" on="0"/>
        <pt x="207" y="104" on="0"/>
        <pt x="227" y="125" on="0"/>
        <pt x="252" y="137" on="0"/>
        <pt x="267" y="137" on="1"/>
        <pt x="281" y="137" on="0"/>
        <pt x="307" y="125" on="0"/>
        <pt x="328" y="104" on="0"/>
        <pt x="340" y="78" on="0"/>
        <pt x="340" y="64" on="1"/>
        <pt x="340" y="49" on="0"/>
        <pt x="328" y="24" on="0"/>
        <pt x="307" y="4" on="0"/>
        <pt x="281" y="-7" on="0"/>
        <pt x="267" y="-7" on="1"/>
        <pt x="238" y="-7" on="0"/>
        <pt x="196" y="35" on="0"/>
      </contour>
      <contour>
        <pt x="196" y="412" on="1"/>
        <pt x="196" y="426" on="0"/>
        <pt x="207" y="452" on="0"/>
        <pt x="227" y="473" on="0"/>
        <pt x="252" y="485" on="0"/>
        <pt x="267" y="485" on="1"/>
        <pt x="281" y="485" on="0"/>
        <pt x="307" y="473" on="0"/>
        <pt x="328" y="452" on="0"/>
        <pt x="340" y="426" on="0"/>
        <pt x="340" y="412" on="1"/>
        <pt x="340" y="397" on="0"/>
        <pt x="328" y="372" on="0"/>
        <pt x="307" y="352" on="0"/>
        <pt x="281" y="341" on="0"/>
        <pt x="267" y="341" on="1"/>
        <pt x="238" y="341" on="0"/>
        <pt x="196" y="383" on="0"/>
      </contour>
    </TTGlyph>
    <TTGlyph name="dollar" xMin="36" yMin="-96" xMax="481" yMax="750">
      <contour>
        <pt x="305" y="662" on="1"/>
        <pt x="346" y="658" on="0"/>
        <pt x="419" y="639" on="0"/>
        <pt x="446" y="627" on="1"/>
        <pt x="419" y="521" on="1"/>
        <pt x="395" y="537" on="0"/>
        <pt x="334" y="559" on="0"/>
        <pt x="305" y="565" on="1"/>
        <pt x="305" y="391" on="1"/>
        <pt x="338" y="378" on="0"/>
        <pt x="401" y="345" on="0"/>
        <pt x="451" y="297" on="0"/>
        <pt x="481" y="229" on="0"/>
        <pt x="481" y="181" on="1"/>
        <pt x="481" y="136" on="0"/>
        <pt x="453" y="69" on="0"/>
        <pt x="405" y="24" on="0"/>
        <pt x="341" y="-3" on="0"/>
        <pt x="305" y="-8" on="1"/>
        <pt x="305" y="-96" on="1"/>
        <pt x="225" y="-96" on="1"/>
        <pt x="225" y="-11" on="1"/>
        <pt x="168" y="-8" on="0"/>
        <pt x="71" y="23" on="0"/>
        <pt x="36" y="43" on="1"/>
        <pt x="65" y="146" on="1"/>
        <pt x="97" y="121" on="0"/>
        <pt x="176" y="88" on="0"/>
        <pt x="225" y="84" on="1"/>
        <pt x="225" y="293" on="1"/>
        <pt x="196" y="303" on="0"/>
        <pt x="136" y="330" on="0"/>
        <pt x="86" y="374" on="0"/>
        <pt x="54" y="442" on="0"/>
        <pt x="54" y="492" on="1"/>
        <pt x="54" y="535" on="0"/>
        <pt x="80" y="598" on="0"/>
        <pt x="126" y="638" on="0"/>
        <pt x="188" y="660" on="0"/>
        <pt x="225" y="663" on="1"/>
        <pt x="225" y="750" on="1"/>
        <pt x="305" y="750" on="1"/>
      </contour>
      <contour>
        <pt x="371" y="169" on="1"/>
        <pt x="371" y="203" on="0"/>
        <pt x="331" y="247" on="0"/>
        <pt x="305" y="261" on="1"/>
        <pt x="305" y="91" on="1"/>
        <pt x="339" y="100" on="0"/>
        <pt x="371" y="141" on="0"/>
      </contour>
      <contour>
        <pt x="160" y="500" on="1"/>
        <pt x="160" y="471" on="0"/>
        <pt x="195" y="436" on="0"/>
        <pt x="225" y="422" on="1"/>
        <pt x="225" y="567" on="1"/>
        <pt x="195" y="562" on="0"/>
        <pt x="160" y="529" on="0"/>
      </contour>
    </TTGlyph>
    <TTGlyph name="dotlessi" xMin="69" yMin="0" xMax="169" yMax="460">
      <contour>
        <pt x="169" y="0" on="1"/>
        <pt x="69" y="0" on="1"/>
        <pt x="69" y="460" on="1"/>
        <pt x="169" y="460" on="1"/>
      </contour>
    </TTGlyph>
    <TTGlyph name="e" xMin="41" yMin="-12" xMax="462" yMax="475">
      <contour>
        <pt x="278" y="475" on="1"/>
        <pt x="366" y="475" on="0"/>
        <pt x="462" y="386" on="0"/>
        <pt x="462" y="305" on="1"/>
        <pt x="462" y="294" on="0"/>
        <pt x="459" y="269" on="0"/>
        <pt x="454" y="245" on="0"/>
        <pt x="447" y="226" on="0"/>
        <pt x="443" y="220" on="1"/>
        <pt x="152" y="220" on="1"/>
        <pt x="154" y="190" on="0"/>
        <pt x="172" y="137" on="0"/>
        <pt x="206" y="98" on="0"/>
        <pt x="255" y="75" on="0"/>
        <pt x="288" y="75" on="1"/>
        <pt x="325" y="75" on="0"/>
        <pt x="408" y="103" on="0"/>
        <pt x="437" y="124" on="1"/>
        <pt x="455" y="42" on="1"/>
        <pt x="442" y="34" on="0"/>
        <pt x="404" y="15" on="0"/>
        <pt x="356" y="-1" on="0"/>
        <pt x="301" y="-12" on="0"/>
        <pt x="271" y="-12" on="1"/>
        <pt x="215" y="-12" on="0"/>
        <pt x="129" y="27" on="0"/>
        <pt x="71" y="94" on="0"/>
        <pt x="41" y="182" on="0"/>
        <pt x="41" y="230" on="1"/>
        <pt x="41" y="279" on="0"/>
        <pt x="72" y="368" on="0"/>
        <pt x="132" y="436" on="0"/>
        <pt x="221" y="475" on="0"/>
      </contour>
      <contour>
        <pt x="275" y="389" on="1"/>
        <pt x="233" y="389" on="0"/>
        <pt x="174" y="340" on="0"/>
        <pt x="161" y="298" on="1"/>
        <pt x="352" y="298" on="1"/>
        <pt x="353" y="301" on="0"/>
        <pt x="354" y="309" on="0"/>
        <pt x="354" y="315" on="1"/>
        <pt x="354" y="347" on="0"/>
        <pt x="310" y="389" on="0"/>
      </contour>
    </TTGlyph>
    <TTGlyph name="eacute" xMin="41" yMin="-12" xMax="462" yMax="682">
      <contour>
        <pt x="278" y="475" on="1"/>
        <pt x="366" y="475" on="0"/>
        <pt x="462" y="386" on="0"/>
        <pt x="462" y="305" on="1"/>
        <pt x="462" y="294" on="0"/>
        <pt x="459" y="269" on="0"/>
        <pt x="454" y="245" on="0"/>
        <pt x="447" y="226" on="0"/>
        <pt x="443" y="220" on="1"/>
        <pt x="152" y="220" on="1"/>
        <pt x="154" y="190" on="0"/>
        <pt x="172" y="137" on="0"/>
        <pt x="206" y="98" on="0"/>
        <pt x="255" y="75" on="0"/>
        <pt x="288" y="75" on="1"/>
        <pt x="325" y="75" on="0"/>
        <pt x="408" y="103" on="0"/>
        <pt x="437" y="124" on="1"/>
        <pt x="455" y="42" on="1"/>
        <pt x="442" y="34" on="0"/>
        <pt x="404" y="15" on="0"/>
        <pt x="356" y="-1" on="0"/>
        <pt x="301" y="-12" on="0"/>
        <pt x="271" y="-12" on="1"/>
        <pt x="215" y="-12" on="0"/>
        <pt x="129" y="27" on="0"/>
        <pt x="71" y="94" on="0"/>
        <pt x="41" y="182" on="0"/>
        <pt x="41" y="230" on="1"/>
        <pt x="41" y="279" on="0"/>
        <pt x="72" y="368" on="0"/>
        <pt x="132" y="436" on="0"/>
        <pt x="221" y="475" on="0"/>
      </contour>
      <contour>
        <pt x="200" y="535" on="1"/>
        <pt x="185" y="571" on="1"/>
        <pt x="188" y="578" on="1"/>
        <pt x="368" y="679" on="1"/>
        <pt x="374" y="682" on="0"/>
        <pt x="378" y="682" on="1"/>
        <pt x="392" y="682" on="0"/>
        <pt x="408" y="646" on="0"/>
        <pt x="408" y="630" on="1"/>
        <pt x="408" y="619" on="0"/>
        <pt x="402" y="603" on="0"/>
        <pt x="395" y="601" on="1"/>
        <pt x="208" y="532" on="1"/>
      </contour>
      <contour>
        <pt x="275" y="389" on="1"/>
        <pt x="230" y="389" on="0"/>
        <pt x="173" y="338" on="0"/>
        <pt x="161" y="298" on="1"/>
        <pt x="352" y="298" on="1"/>
        <pt x="353" y="303" on="0"/>
        <pt x="353" y="311" on="0"/>
        <pt x="353" y="316" on="1"/>
        <pt x="353" y="352" on="0"/>
        <pt x="306" y="389" on="0"/>
      </contour>
    </TTGlyph>
    <TTGlyph name="ecircumflex" xMin="41" yMin="-12" xMax="462" yMax="673">
      <contour>
        <pt x="278" y="475" on="1"/>
        <pt x="366" y="475" on="0"/>
        <pt x="462" y="386" on="0"/>
        <pt x="462" y="305" on="1"/>
        <pt x="462" y="294" on="0"/>
        <pt x="459" y="269" on="0"/>
        <pt x="454" y="245" on="0"/>
        <pt x="447" y="226" on="0"/>
        <pt x="443" y="220" on="1"/>
        <pt x="152" y="220" on="1"/>
        <pt x="154" y="190" on="0"/>
        <pt x="172" y="137" on="0"/>
        <pt x="206" y="98" on="0"/>
        <pt x="255" y="75" on="0"/>
        <pt x="288" y="75" on="1"/>
        <pt x="325" y="75" on="0"/>
        <pt x="408" y="103" on="0"/>
        <pt x="437" y="124" on="1"/>
        <pt x="455" y="42" on="1"/>
        <pt x="442" y="34" on="0"/>
        <pt x="404" y="15" on="0"/>
        <pt x="356" y="-1" on="0"/>
        <pt x="301" y="-12" on="0"/>
        <pt x="271" y="-12" on="1"/>
        <pt x="215" y="-12" on="0"/>
        <pt x="129" y="27" on="0"/>
        <pt x="71" y="94" on="0"/>
        <pt x="41" y="182" on="0"/>
        <pt x="41" y="230" on="1"/>
        <pt x="41" y="279" on="0"/>
        <pt x="72" y="368" on="0"/>
        <pt x="132" y="436" on="0"/>
        <pt x="221" y="475" on="0"/>
      </contour>
      <contour>
        <pt x="269" y="673" on="1"/>
        <pt x="379" y="574" on="1"/>
        <pt x="382" y="567" on="1"/>
        <pt x="366" y="538" on="1"/>
        <pt x="359" y="535" on="1"/>
        <pt x="265" y="576" on="1"/>
        <pt x="171" y="535" on="1"/>
        <pt x="164" y="538" on="1"/>
        <pt x="148" y="567" on="1"/>
        <pt x="151" y="574" on="1"/>
        <pt x="261" y="673" on="1"/>
      </contour>
      <contour>
        <pt x="275" y="389" on="1"/>
        <pt x="230" y="389" on="0"/>
        <pt x="173" y="338" on="0"/>
        <pt x="161" y="298" on="1"/>
        <pt x="352" y="298" on="1"/>
        <pt x="353" y="303" on="0"/>
        <pt x="353" y="311" on="0"/>
        <pt x="353" y="316" on="1"/>
        <pt x="353" y="352" on="0"/>
        <pt x="306" y="389" on="0"/>
      </contour>
    </TTGlyph>
    <TTGlyph name="edieresis" xMin="41" yMin="-12" xMax="462" yMax="671">
      <contour>
        <pt x="278" y="475" on="1"/>
        <pt x="366" y="475" on="0"/>
        <pt x="462" y="386" on="0"/>
        <pt x="462" y="305" on="1"/>
        <pt x="462" y="294" on="0"/>
        <pt x="459" y="269" on="0"/>
        <pt x="454" y="245" on="0"/>
        <pt x="447" y="226" on="0"/>
        <pt x="443" y="220" on="1"/>
        <pt x="152" y="220" on="1"/>
        <pt x="154" y="190" on="0"/>
        <pt x="172" y="137" on="0"/>
        <pt x="206" y="98" on="0"/>
        <pt x="255" y="75" on="0"/>
        <pt x="288" y="75" on="1"/>
        <pt x="325" y="75" on="0"/>
        <pt x="408" y="103" on="0"/>
        <pt x="437" y="124" on="1"/>
        <pt x="455" y="42" on="1"/>
        <pt x="442" y="34" on="0"/>
        <pt x="404" y="15" on="0"/>
        <pt x="356" y="-1" on="0"/>
        <pt x="301" y="-12" on="0"/>
        <pt x="271" y="-12" on="1"/>
        <pt x="215" y="-12" on="0"/>
        <pt x="129" y="27" on="0"/>
        <pt x="71" y="94" on="0"/>
        <pt x="41" y="182" on="0"/>
        <pt x="41" y="230" on="1"/>
        <pt x="41" y="279" on="0"/>
        <pt x="72" y="368" on="0"/>
        <pt x="132" y="436" on="0"/>
        <pt x="221" y="475" on="0"/>
      </contour>
      <contour>
        <pt x="275" y="389" on="1"/>
        <pt x="230" y="389" on="0"/>
        <pt x="173" y="338" on="0"/>
        <pt x="161" y="298" on="1"/>
        <pt x="352" y="298" on="1"/>
        <pt x="353" y="303" on="0"/>
        <pt x="353" y="311" on="0"/>
        <pt x="353" y="316" on="1"/>
        <pt x="353" y="352" on="0"/>
        <pt x="306" y="389" on="0"/>
      </contour>
      <contour>
        <pt x="138" y="612" on="1"/>
        <pt x="138" y="635" on="0"/>
        <pt x="172" y="671" on="0"/>
        <pt x="195" y="671" on="1"/>
        <pt x="218" y="671" on="0"/>
        <pt x="254" y="635" on="0"/>
        <pt x="254" y="612" on="1"/>
        <pt x="254" y="589" on="0"/>
        <pt x="218" y="555" on="0"/>
        <pt x="195" y="555" on="1"/>
        <pt x="172" y="555" on="0"/>
        <pt x="138" y="589" on="0"/>
      </contour>
      <contour>
        <pt x="274" y="612" on="1"/>
        <pt x="274" y="635" on="0"/>
        <pt x="308" y="671" on="0"/>
        <pt x="331" y="671" on="1"/>
        <pt x="354" y="671" on="0"/>
        <pt x="390" y="635" on="0"/>
        <pt x="390" y="612" on="1"/>
        <pt x="390" y="589" on="0"/>
        <pt x="354" y="555" on="0"/>
        <pt x="331" y="555" on="1"/>
        <pt x="308" y="555" on="0"/>
        <pt x="274" y="589" on="0"/>
      </contour>
    </TTGlyph>
    <TTGlyph name="egrave" xMin="41" yMin="-12" xMax="462" yMax="681">
      <contour>
        <pt x="278" y="475" on="1"/>
        <pt x="366" y="475" on="0"/>
        <pt x="462" y="386" on="0"/>
        <pt x="462" y="305" on="1"/>
        <pt x="462" y="294" on="0"/>
        <pt x="459" y="269" on="0"/>
        <pt x="454" y="245" on="0"/>
        <pt x="447" y="226" on="0"/>
        <pt x="443" y="220" on="1"/>
        <pt x="152" y="220" on="1"/>
        <pt x="154" y="190" on="0"/>
        <pt x="172" y="137" on="0"/>
        <pt x="206" y="98" on="0"/>
        <pt x="255" y="75" on="0"/>
        <pt x="288" y="75" on="1"/>
        <pt x="325" y="75" on="0"/>
        <pt x="408" y="103" on="0"/>
        <pt x="437" y="124" on="1"/>
        <pt x="455" y="42" on="1"/>
        <pt x="442" y="34" on="0"/>
        <pt x="404" y="15" on="0"/>
        <pt x="356" y="-1" on="0"/>
        <pt x="301" y="-12" on="0"/>
        <pt x="271" y="-12" on="1"/>
        <pt x="215" y="-12" on="0"/>
        <pt x="129" y="27" on="0"/>
        <pt x="71" y="94" on="0"/>
        <pt x="41" y="182" on="0"/>
        <pt x="41" y="230" on="1"/>
        <pt x="41" y="279" on="0"/>
        <pt x="72" y="368" on="0"/>
        <pt x="132" y="436" on="0"/>
        <pt x="221" y="475" on="0"/>
      </contour>
      <contour>
        <pt x="330" y="531" on="1"/>
        <pt x="143" y="600" on="1"/>
        <pt x="136" y="602" on="0"/>
        <pt x="130" y="618" on="0"/>
        <pt x="130" y="629" on="1"/>
        <pt x="130" y="646" on="0"/>
        <pt x="146" y="681" on="0"/>
        <pt x="160" y="681" on="1"/>
        <pt x="164" y="681" on="0"/>
        <pt x="170" y="678" on="1"/>
        <pt x="350" y="577" on="1"/>
        <pt x="353" y="570" on="1"/>
        <pt x="338" y="534" on="1"/>
      </contour>
      <contour>
        <pt x="275" y="389" on="1"/>
        <pt x="230" y="389" on="0"/>
        <pt x="173" y="338" on="0"/>
        <pt x="161" y="298" on="1"/>
        <pt x="352" y="298" on="1"/>
        <pt x="353" y="303" on="0"/>
        <pt x="353" y="311" on="0"/>
        <pt x="353" y="316" on="1"/>
        <pt x="353" y="352" on="0"/>
        <pt x="306" y="389" on="0"/>
      </contour>
    </TTGlyph>
    <TTGlyph name="eight" xMin="51" yMin="-12" xMax="493" yMax="665">
      <contour>
        <pt x="372" y="362" on="1"/>
        <pt x="430" y="349" on="0"/>
        <pt x="493" y="255" on="0"/>
        <pt x="493" y="188" on="1"/>
        <pt x="493" y="146" on="0"/>
        <pt x="467" y="73" on="0"/>
        <pt x="412" y="19" on="0"/>
        <pt x="328" y="-12" on="0"/>
        <pt x="271" y="-12" on="1"/>
        <pt x="211" y="-12" on="0"/>
        <pt x="127" y="21" on="0"/>
        <pt x="75" y="76" on="0"/>
        <pt x="51" y="148" on="0"/>
        <pt x="51" y="186" on="1"/>
        <pt x="51" y="252" on="0"/>
        <pt x="115" y="344" on="0"/>
        <pt x="172" y="361" on="1"/>
        <pt x="172" y="365" on="1"/>
        <pt x="137" y="378" on="0"/>
        <pt x="84" y="450" on="0"/>
        <pt x="84" y="505" on="1"/>
        <pt x="84" y="577" on="0"/>
        <pt x="182" y="665" on="0"/>
        <pt x="272" y="665" on="1"/>
        <pt x="360" y="665" on="0"/>
        <pt x="460" y="580" on="0"/>
        <pt x="460" y="508" on="1"/>
        <pt x="460" y="455" on="0"/>
        <pt x="409" y="382" on="0"/>
        <pt x="372" y="366" on="1"/>
      </contour>
      <contour>
        <pt x="378" y="185" on="1"/>
        <pt x="378" y="208" on="0"/>
        <pt x="366" y="254" on="0"/>
        <pt x="340" y="290" on="0"/>
        <pt x="299" y="313" on="0"/>
        <pt x="271" y="313" on="1"/>
        <pt x="242" y="313" on="0"/>
        <pt x="202" y="290" on="0"/>
        <pt x="176" y="253" on="0"/>
        <pt x="164" y="207" on="0"/>
        <pt x="164" y="185" on="1"/>
        <pt x="164" y="131" on="0"/>
        <pt x="223" y="75" on="0"/>
        <pt x="271" y="75" on="1"/>
        <pt x="319" y="75" on="0"/>
        <pt x="378" y="131" on="0"/>
      </contour>
      <contour>
        <pt x="348" y="492" on="1"/>
        <pt x="348" y="531" on="0"/>
        <pt x="309" y="576" on="0"/>
        <pt x="271" y="576" on="1"/>
        <pt x="234" y="576" on="0"/>
        <pt x="194" y="533" on="0"/>
        <pt x="194" y="493" on="1"/>
        <pt x="194" y="451" on="0"/>
        <pt x="236" y="403" on="0"/>
        <pt x="271" y="403" on="1"/>
        <pt x="306" y="403" on="0"/>
        <pt x="348" y="451" on="0"/>
      </contour>
    </TTGlyph>
    <TTGlyph name="ellipsis" xMin="56" yMin="-12" xMax="579" yMax="132">
      <contour>
        <pt x="435" y="59" on="1"/>
        <pt x="435" y="73" on="0"/>
        <pt x="446" y="99" on="0"/>
        <pt x="466" y="120" on="0"/>
        <pt x="491" y="132" on="0"/>
        <pt x="506" y="132" on="1"/>
        <pt x="520" y="132" on="0"/>
        <pt x="546" y="120" on="0"/>
        <pt x="567" y="99" on="0"/>
        <pt x="579" y="73" on="0"/>
        <pt x="579" y="59" on="1"/>
        <pt x="579" y="44" on="0"/>
        <pt x="567" y="19" on="0"/>
        <pt x="546" y="-1" on="0"/>
        <pt x="520" y="-12" on="0"/>
        <pt x="506" y="-12" on="1"/>
        <pt x="477" y="-12" on="0"/>
        <pt x="435" y="30" on="0"/>
      </contour>
      <contour>
        <pt x="56" y="59" on="1"/>
        <pt x="56" y="73" on="0"/>
        <pt x="67" y="99" on="0"/>
        <pt x="87" y="120" on="0"/>
        <pt x="112" y="132" on="0"/>
        <pt x="127" y="132" on="1"/>
        <pt x="141" y="132" on="0"/>
        <pt x="167" y="120" on="0"/>
        <pt x="188" y="99" on="0"/>
        <pt x="200" y="73" on="0"/>
        <pt x="200" y="59" on="1"/>
        <pt x="200" y="44" on="0"/>
        <pt x="188" y="19" on="0"/>
        <pt x="167" y="-1" on="0"/>
        <pt x="141" y="-12" on="0"/>
        <pt x="127" y="-12" on="1"/>
        <pt x="98" y="-12" on="0"/>
        <pt x="56" y="30" on="0"/>
      </contour>
      <contour>
        <pt x="246" y="59" on="1"/>
        <pt x="246" y="73" on="0"/>
        <pt x="257" y="99" on="0"/>
        <pt x="277" y="120" on="0"/>
        <pt x="302" y="132" on="0"/>
        <pt x="317" y="132" on="1"/>
        <pt x="331" y="132" on="0"/>
        <pt x="357" y="120" on="0"/>
        <pt x="378" y="99" on="0"/>
        <pt x="390" y="73" on="0"/>
        <pt x="390" y="59" on="1"/>
        <pt x="390" y="44" on="0"/>
        <pt x="378" y="19" on="0"/>
        <pt x="357" y="-1" on="0"/>
        <pt x="331" y="-12" on="0"/>
        <pt x="317" y="-12" on="1"/>
        <pt x="288" y="-12" on="0"/>
        <pt x="246" y="30" on="0"/>
      </contour>
    </TTGlyph>
    <TTGlyph name="emdash" xMin="65" yMin="198" xMax="707" yMax="280">
      <contour>
        <pt x="707" y="280" on="1"/>
        <pt x="707" y="198" on="1"/>
        <pt x="65" y="198" on="1"/>
        <pt x="65" y="280" on="1"/>
      </contour>
    </TTGlyph>
    <TTGlyph name="endash" xMin="65" yMin="198" xMax="479" yMax="280">
      <contour>
        <pt x="479" y="280" on="1"/>
        <pt x="479" y="198" on="1"/>
        <pt x="65" y="198" on="1"/>
        <pt x="65" y="280" on="1"/>
      </contour>
    </TTGlyph>
    <TTGlyph name="equal" xMin="69" yMin="122" xMax="407" yMax="356">
      <contour>
        <pt x="407" y="204" on="1"/>
        <pt x="407" y="122" on="1"/>
        <pt x="69" y="122" on="1"/>
        <pt x="69" y="204" on="1"/>
      </contour>
      <contour>
        <pt x="407" y="356" on="1"/>
        <pt x="407" y="274" on="1"/>
        <pt x="69" y="274" on="1"/>
        <pt x="69" y="356" on="1"/>
      </contour>
    </TTGlyph>
    <TTGlyph name="eth" xMin="42" yMin="-12" xMax="544" yMax="740">
      <contour>
        <pt x="201" y="607" on="1"/>
        <pt x="298" y="632" on="1"/>
        <pt x="272" y="667" on="0"/>
        <pt x="213" y="723" on="0"/>
        <pt x="184" y="740" on="1"/>
        <pt x="331" y="740" on="1"/>
        <pt x="349" y="723" on="0"/>
        <pt x="384" y="682" on="0"/>
        <pt x="400" y="659" on="1"/>
        <pt x="523" y="692" on="1"/>
        <pt x="544" y="624" on="1"/>
        <pt x="438" y="597" on="1"/>
        <pt x="471" y="534" on="0"/>
        <pt x="512" y="379" on="0"/>
        <pt x="512" y="290" on="1"/>
        <pt x="512" y="229" on="0"/>
        <pt x="489" y="120" on="0"/>
        <pt x="435" y="37" on="0"/>
        <pt x="345" y="-12" on="0"/>
        <pt x="277" y="-12" on="1"/>
        <pt x="213" y="-12" on="0"/>
        <pt x="124" y="30" on="0"/>
        <pt x="68" y="99" on="0"/>
        <pt x="42" y="187" on="0"/>
        <pt x="42" y="232" on="1"/>
        <pt x="42" y="281" on="0"/>
        <pt x="70" y="369" on="0"/>
        <pt x="126" y="436" on="0"/>
        <pt x="208" y="475" on="0"/>
        <pt x="261" y="475" on="1"/>
        <pt x="312" y="475" on="0"/>
        <pt x="380" y="440" on="0"/>
        <pt x="398" y="410" on="1"/>
        <pt x="401" y="411" on="1"/>
        <pt x="396" y="446" on="0"/>
        <pt x="363" y="529" on="0"/>
        <pt x="338" y="571" on="1"/>
        <pt x="222" y="542" on="1"/>
      </contour>
      <contour>
        <pt x="276" y="71" on="1"/>
        <pt x="305" y="71" on="0"/>
        <pt x="348" y="96" on="0"/>
        <pt x="376" y="139" on="0"/>
        <pt x="389" y="195" on="0"/>
        <pt x="389" y="226" on="1"/>
        <pt x="389" y="258" on="0"/>
        <pt x="375" y="317" on="0"/>
        <pt x="346" y="362" on="0"/>
        <pt x="302" y="389" on="0"/>
        <pt x="271" y="389" on="1"/>
        <pt x="242" y="389" on="0"/>
        <pt x="200" y="364" on="0"/>
        <pt x="173" y="322" on="0"/>
        <pt x="160" y="266" on="0"/>
        <pt x="160" y="235" on="1"/>
        <pt x="160" y="203" on="0"/>
        <pt x="173" y="144" on="0"/>
        <pt x="202" y="98" on="0"/>
        <pt x="246" y="71" on="0"/>
      </contour>
    </TTGlyph>
    <TTGlyph name="exclam" xMin="62" yMin="-12" xMax="206" yMax="682">
      <contour>
        <pt x="91" y="180" on="1"/>
        <pt x="67" y="682" on="1"/>
        <pt x="204" y="682" on="1"/>
        <pt x="178" y="180" on="1"/>
      </contour>
      <contour>
        <pt x="62" y="59" on="1"/>
        <pt x="62" y="87" on="0"/>
        <pt x="104" y="128" on="0"/>
        <pt x="133" y="128" on="1"/>
        <pt x="162" y="128" on="0"/>
        <pt x="206" y="87" on="0"/>
        <pt x="206" y="58" on="1"/>
        <pt x="206" y="29" on="0"/>
        <pt x="161" y="-12" on="0"/>
        <pt x="132" y="-12" on="1"/>
        <pt x="103" y="-12" on="0"/>
        <pt x="62" y="30" on="0"/>
      </contour>
    </TTGlyph>
    <TTGlyph name="exclamdown" xMin="56" yMin="-218" xMax="200" yMax="476">
      <contour>
        <pt x="171" y="284" on="1"/>
        <pt x="195" y="-218" on="1"/>
        <pt x="58" y="-218" on="1"/>
        <pt x="84" y="284" on="1"/>
      </contour>
      <contour>
        <pt x="200" y="405" on="1"/>
        <pt x="200" y="377" on="0"/>
        <pt x="158" y="336" on="0"/>
        <pt x="129" y="336" on="1"/>
        <pt x="100" y="336" on="0"/>
        <pt x="56" y="377" on="0"/>
        <pt x="56" y="406" on="1"/>
        <pt x="56" y="435" on="0"/>
        <pt x="101" y="476" on="0"/>
        <pt x="130" y="476" on="1"/>
        <pt x="159" y="476" on="0"/>
        <pt x="200" y="434" on="0"/>
      </contour>
    </TTGlyph>
    <TTGlyph name="f" xMin="34" yMin="0" xMax="352" yMax="745">
      <contour>
        <pt x="91" y="393" on="1"/>
        <pt x="34" y="393" on="1"/>
        <pt x="34" y="450" on="1"/>
        <pt x="91" y="459" on="1"/>
        <pt x="91" y="516" on="0"/>
        <pt x="98" y="596" on="0"/>
        <pt x="110" y="651" on="0"/>
        <pt x="125" y="685" on="0"/>
        <pt x="133" y="696" on="1"/>
        <pt x="153" y="722" on="0"/>
        <pt x="218" y="745" on="0"/>
        <pt x="257" y="745" on="1"/>
        <pt x="262" y="745" on="0"/>
        <pt x="284" y="744" on="0"/>
        <pt x="311" y="740" on="0"/>
        <pt x="340" y="731" on="0"/>
        <pt x="352" y="724" on="1"/>
        <pt x="327" y="639" on="1"/>
        <pt x="317" y="645" on="0"/>
        <pt x="271" y="666" on="0"/>
        <pt x="249" y="666" on="1"/>
        <pt x="236" y="666" on="0"/>
        <pt x="218" y="654" on="0"/>
        <pt x="206" y="622" on="0"/>
        <pt x="201" y="568" on="0"/>
        <pt x="201" y="526" on="1"/>
        <pt x="201" y="460" on="1"/>
        <pt x="289" y="460" on="1"/>
        <pt x="289" y="393" on="1"/>
        <pt x="201" y="393" on="1"/>
        <pt x="201" y="0" on="1"/>
        <pt x="91" y="0" on="1"/>
      </contour>
    </TTGlyph>
    <TTGlyph name="fi" xMin="34" yMin="0" xMax="457" yMax="745">
      <contour>
        <pt x="91" y="393" on="1"/>
        <pt x="34" y="393" on="1"/>
        <pt x="34" y="450" on="1"/>
        <pt x="91" y="459" on="1"/>
        <pt x="91" y="516" on="0"/>
        <pt x="98" y="596" on="0"/>
        <pt x="110" y="651" on="0"/>
        <pt x="125" y="685" on="0"/>
        <pt x="133" y="696" on="1"/>
        <pt x="153" y="722" on="0"/>
        <pt x="218" y="745" on="0"/>
        <pt x="257" y="745" on="1"/>
        <pt x="269" y="745" on="0"/>
        <pt x="304" y="742" on="0"/>
        <pt x="346" y="731" on="0"/>
        <pt x="394" y="711" on="0"/>
        <pt x="418" y="695" on="1"/>
        <pt x="373" y="614" on="1"/>
        <pt x="346" y="631" on="0"/>
        <pt x="288" y="666" on="0"/>
        <pt x="249" y="666" on="1"/>
        <pt x="236" y="666" on="0"/>
        <pt x="218" y="654" on="0"/>
        <pt x="206" y="622" on="0"/>
        <pt x="201" y="568" on="0"/>
        <pt x="201" y="526" on="1"/>
        <pt x="201" y="460" on="1"/>
        <pt x="289" y="460" on="1"/>
        <pt x="289" y="393" on="1"/>
        <pt x="201" y="393" on="1"/>
        <pt x="201" y="0" on="1"/>
        <pt x="91" y="0" on="1"/>
      </contour>
      <contour>
        <pt x="457" y="0" on="1"/>
        <pt x="347" y="0" on="1"/>
        <pt x="347" y="460" on="1"/>
        <pt x="457" y="460" on="1"/>
      </contour>
    </TTGlyph>
    <TTGlyph name="five" xMin="37" yMin="-12" xMax="485" yMax="665">
      <contour>
        <pt x="73" y="302" on="1"/>
        <pt x="112" y="665" on="1"/>
        <pt x="451" y="665" on="1"/>
        <pt x="451" y="560" on="1"/>
        <pt x="205" y="560" on="1"/>
        <pt x="190" y="402" on="1"/>
        <pt x="211" y="408" on="0"/>
        <pt x="257" y="413" on="0"/>
        <pt x="276" y="413" on="1"/>
        <pt x="322" y="413" on="0"/>
        <pt x="398" y="386" on="0"/>
        <pt x="454" y="334" on="0"/>
        <pt x="485" y="259" on="0"/>
        <pt x="485" y="211" on="1"/>
        <pt x="485" y="165" on="0"/>
        <pt x="455" y="84" on="0"/>
        <pt x="394" y="23" on="0"/>
        <pt x="302" y="-12" on="0"/>
        <pt x="240" y="-12" on="1"/>
        <pt x="179" y="-12" on="0"/>
        <pt x="76" y="23" on="0"/>
        <pt x="37" y="55" on="1"/>
        <pt x="66" y="150" on="1"/>
        <pt x="81" y="136" on="0"/>
        <pt x="120" y="113" on="0"/>
        <pt x="165" y="96" on="0"/>
        <pt x="212" y="86" on="0"/>
        <pt x="235" y="86" on="1"/>
        <pt x="260" y="86" on="0"/>
        <pt x="307" y="99" on="0"/>
        <pt x="342" y="127" on="0"/>
        <pt x="363" y="172" on="0"/>
        <pt x="363" y="204" on="1"/>
        <pt x="363" y="228" on="0"/>
        <pt x="351" y="268" on="0"/>
        <pt x="323" y="296" on="0"/>
        <pt x="276" y="312" on="0"/>
        <pt x="240" y="312" on="1"/>
        <pt x="209" y="312" on="0"/>
        <pt x="135" y="300" on="0"/>
        <pt x="102" y="287" on="1"/>
      </contour>
    </TTGlyph>
    <TTGlyph name="fl" xMin="34" yMin="0" xMax="461" yMax="745">
      <contour>
        <pt x="461" y="0" on="1"/>
        <pt x="351" y="0" on="1"/>
        <pt x="351" y="644" on="1"/>
        <pt x="328" y="652" on="0"/>
        <pt x="279" y="666" on="0"/>
        <pt x="249" y="666" on="1"/>
        <pt x="236" y="666" on="0"/>
        <pt x="218" y="654" on="0"/>
        <pt x="206" y="622" on="0"/>
        <pt x="201" y="568" on="0"/>
        <pt x="201" y="526" on="1"/>
        <pt x="201" y="460" on="1"/>
        <pt x="289" y="460" on="1"/>
        <pt x="289" y="393" on="1"/>
        <pt x="201" y="393" on="1"/>
        <pt x="201" y="0" on="1"/>
        <pt x="91" y="0" on="1"/>
        <pt x="91" y="393" on="1"/>
        <pt x="34" y="393" on="1"/>
        <pt x="34" y="450" on="1"/>
        <pt x="91" y="459" on="1"/>
        <pt x="91" y="516" on="0"/>
        <pt x="98" y="596" on="0"/>
        <pt x="110" y="651" on="0"/>
        <pt x="125" y="685" on="0"/>
        <pt x="133" y="696" on="1"/>
        <pt x="153" y="722" on="0"/>
        <pt x="218" y="745" on="0"/>
        <pt x="257" y="745" on="1"/>
        <pt x="280" y="745" on="0"/>
        <pt x="370" y="733" on="0"/>
        <pt x="418" y="716" on="1"/>
        <pt x="461" y="740" on="1"/>
      </contour>
    </TTGlyph>
    <TTGlyph name="florin" xMin="30" yMin="-257" xMax="610" yMax="745">
      <contour>
        <pt x="385" y="393" on="1"/>
        <pt x="304" y="-3" on="1"/>
        <pt x="279" y="-122" on="0"/>
        <pt x="171" y="-257" on="0"/>
        <pt x="87" y="-257" on="1"/>
        <pt x="63" y="-257" on="0"/>
        <pt x="38" y="-251" on="1"/>
        <pt x="30" y="-163" on="1"/>
        <pt x="57" y="-169" on="0"/>
        <pt x="77" y="-169" on="1"/>
        <pt x="101" y="-169" on="0"/>
        <pt x="135" y="-152" on="0"/>
        <pt x="160" y="-112" on="0"/>
        <pt x="181" y="-47" on="0"/>
        <pt x="191" y="0" on="1"/>
        <pt x="274" y="393" on="1"/>
        <pt x="231" y="393" on="1"/>
        <pt x="231" y="450" on="1"/>
        <pt x="287" y="457" on="1"/>
        <pt x="307" y="550" on="1"/>
        <pt x="319" y="607" on="0"/>
        <pt x="357" y="682" on="0"/>
        <pt x="405" y="727" on="0"/>
        <pt x="461" y="745" on="0"/>
        <pt x="491" y="745" on="1"/>
        <pt x="520" y="745" on="0"/>
        <pt x="581" y="731" on="0"/>
        <pt x="610" y="721" on="1"/>
        <pt x="569" y="635" on="1"/>
        <pt x="542" y="649" on="0"/>
        <pt x="502" y="666" on="0"/>
        <pt x="487" y="666" on="1"/>
        <pt x="461" y="666" on="0"/>
        <pt x="429" y="604" on="0"/>
        <pt x="413" y="526" on="1"/>
        <pt x="399" y="460" on="1"/>
        <pt x="486" y="460" on="1"/>
        <pt x="486" y="393" on="1"/>
      </contour>
    </TTGlyph>
    <TTGlyph name="four" xMin="26" yMin="0" xMax="494" yMax="660">
      <contour>
        <pt x="494" y="190" on="1"/>
        <pt x="425" y="190" on="1"/>
        <pt x="425" y="0" on="1"/>
        <pt x="310" y="0" on="1"/>
        <pt x="310" y="190" on="1"/>
        <pt x="26" y="190" on="1"/>
        <pt x="26" y="280" on="1"/>
        <pt x="305" y="660" on="1"/>
        <pt x="425" y="660" on="1"/>
        <pt x="425" y="280" on="1"/>
        <pt x="494" y="280" on="1"/>
      </contour>
      <contour>
        <pt x="310" y="280" on="1"/>
        <pt x="310" y="522" on="1"/>
        <pt x="139" y="280" on="1"/>
      </contour>
    </TTGlyph>
    <TTGlyph name="fourinferior" xMin="35" yMin="0" xMax="319" yMax="366">
      <contour>
        <pt x="319" y="91" on="1"/>
        <pt x="285" y="91" on="1"/>
        <pt x="285" y="0" on="1"/>
        <pt x="217" y="0" on="1"/>
        <pt x="217" y="91" on="1"/>
        <pt x="35" y="91" on="1"/>
        <pt x="35" y="153" on="1"/>
        <pt x="182" y="366" on="1"/>
        <pt x="285" y="366" on="1"/>
        <pt x="285" y="153" on="1"/>
        <pt x="319" y="153" on="1"/>
      </contour>
      <contour>
        <pt x="217" y="153" on="1"/>
        <pt x="217" y="307" on="1"/>
        <pt x="107" y="153" on="1"/>
      </contour>
    </TTGlyph>
    <TTGlyph name="foursuperior" xMin="39" yMin="299" xMax="323" yMax="665">
      <contour>
        <pt x="323" y="390" on="1"/>
        <pt x="289" y="390" on="1"/>
        <pt x="289" y="299" on="1"/>
        <pt x="221" y="299" on="1"/>
        <pt x="221" y="390" on="1"/>
        <pt x="39" y="390" on="1"/>
        <pt x="39" y="452" on="1"/>
        <pt x="186" y="665" on="1"/>
        <pt x="289" y="665" on="1"/>
        <pt x="289" y="452" on="1"/>
        <pt x="323" y="452" on="1"/>
      </contour>
      <contour>
        <pt x="221" y="452" on="1"/>
        <pt x="221" y="606" on="1"/>
        <pt x="111" y="452" on="1"/>
      </contour>
    </TTGlyph>
    <TTGlyph name="fraction" xMin="-16" yMin="-24" xMax="537" yMax="691">
      <contour>
        <pt x="74" y="-24" on="1"/>
        <pt x="-16" y="-24" on="1"/>
        <pt x="447" y="691" on="1"/>
        <pt x="537" y="691" on="1"/>
      </contour>
    </TTGlyph>
    <TTGlyph name="g" xMin="26" yMin="-248" xMax="481" yMax="476">
      <contour>
        <pt x="130" y="145" on="1"/>
        <pt x="85" y="164" on="0"/>
        <pt x="45" y="244" on="0"/>
        <pt x="45" y="291" on="1"/>
        <pt x="45" y="330" on="0"/>
        <pt x="71" y="398" on="0"/>
        <pt x="120" y="447" on="0"/>
        <pt x="189" y="475" on="0"/>
        <pt x="233" y="475" on="1"/>
        <pt x="259" y="475" on="0"/>
        <pt x="310" y="465" on="0"/>
        <pt x="329" y="455" on="1"/>
        <pt x="371" y="456" on="0"/>
        <pt x="440" y="467" on="0"/>
        <pt x="472" y="476" on="1"/>
        <pt x="481" y="469" on="1"/>
        <pt x="470" y="393" on="1"/>
        <pt x="465" y="388" on="1"/>
        <pt x="394" y="396" on="1"/>
        <pt x="393" y="393" on="1"/>
        <pt x="427" y="350" on="0"/>
        <pt x="427" y="292" on="1"/>
        <pt x="427" y="257" on="0"/>
        <pt x="402" y="196" on="0"/>
        <pt x="354" y="151" on="0"/>
        <pt x="283" y="124" on="0"/>
        <pt x="238" y="124" on="1"/>
        <pt x="227" y="124" on="0"/>
        <pt x="214" y="125" on="0"/>
        <pt x="208" y="125" on="1"/>
        <pt x="191" y="119" on="0"/>
        <pt x="173" y="100" on="0"/>
        <pt x="173" y="90" on="1"/>
        <pt x="173" y="79" on="0"/>
        <pt x="195" y="63" on="0"/>
        <pt x="218" y="60" on="1"/>
        <pt x="315" y="48" on="1"/>
        <pt x="348" y="44" on="0"/>
        <pt x="405" y="24" on="0"/>
        <pt x="448" y="-10" on="0"/>
        <pt x="472" y="-58" on="0"/>
        <pt x="472" y="-89" on="1"/>
        <pt x="472" y="-120" on="0"/>
        <pt x="446" y="-178" on="0"/>
        <pt x="390" y="-222" on="0"/>
        <pt x="305" y="-248" on="0"/>
        <pt x="245" y="-248" on="1"/>
        <pt x="192" y="-248" on="0"/>
        <pt x="111" y="-227" on="0"/>
        <pt x="55" y="-191" on="0"/>
        <pt x="26" y="-142" on="0"/>
        <pt x="26" y="-114" on="1"/>
        <pt x="26" y="-94" on="0"/>
        <pt x="40" y="-55" on="0"/>
        <pt x="65" y="-22" on="0"/>
        <pt x="98" y="4" on="0"/>
        <pt x="117" y="10" on="1"/>
        <pt x="117" y="14" on="1"/>
        <pt x="94" y="24" on="0"/>
        <pt x="76" y="58" on="0"/>
        <pt x="76" y="74" on="1"/>
        <pt x="76" y="95" on="0"/>
        <pt x="104" y="131" on="0"/>
        <pt x="130" y="141" on="1"/>
      </contour>
      <contour>
        <pt x="237" y="201" on="1"/>
        <pt x="278" y="201" on="0"/>
        <pt x="320" y="254" on="0"/>
        <pt x="320" y="292" on="1"/>
        <pt x="320" y="310" on="0"/>
        <pt x="310" y="347" on="0"/>
        <pt x="288" y="377" on="0"/>
        <pt x="255" y="396" on="0"/>
        <pt x="233" y="396" on="1"/>
        <pt x="212" y="396" on="0"/>
        <pt x="180" y="379" on="0"/>
        <pt x="159" y="351" on="0"/>
        <pt x="149" y="316" on="0"/>
        <pt x="149" y="298" on="1"/>
        <pt x="149" y="280" on="0"/>
        <pt x="160" y="245" on="0"/>
        <pt x="182" y="218" on="0"/>
        <pt x="215" y="201" on="0"/>
      </contour>
      <contour>
        <pt x="206" y="-22" on="1"/>
        <pt x="172" y="-28" on="0"/>
        <pt x="124" y="-73" on="0"/>
        <pt x="124" y="-102" on="1"/>
        <pt x="124" y="-134" on="0"/>
        <pt x="187" y="-166" on="0"/>
        <pt x="247" y="-166" on="1"/>
        <pt x="306" y="-166" on="0"/>
        <pt x="376" y="-133" on="0"/>
        <pt x="376" y="-96" on="1"/>
        <pt x="376" y="-60" on="0"/>
        <pt x="298" y="-30" on="0"/>
      </contour>
    </TTGlyph>
    <TTGlyph name="germandbls" xMin="69" yMin="-27" xMax="527" yMax="736">
      <contour>
        <pt x="169" y="0" on="1"/>
        <pt x="69" y="0" on="1"/>
        <pt x="69" y="486" on="1"/>
        <pt x="69" y="542" on="0"/>
        <pt x="94" y="634" on="0"/>
        <pt x="144" y="700" on="0"/>
        <pt x="219" y="736" on="0"/>
        <pt x="269" y="736" on="1"/>
        <pt x="306" y="736" on="0"/>
        <pt x="366" y="713" on="0"/>
        <pt x="408" y="676" on="0"/>
        <pt x="431" y="627" on="0"/>
        <pt x="431" y="601" on="1"/>
        <pt x="431" y="567" on="0"/>
        <pt x="399" y="510" on="0"/>
        <pt x="361" y="459" on="0"/>
        <pt x="329" y="412" on="0"/>
        <pt x="329" y="390" on="1"/>
        <pt x="329" y="369" on="0"/>
        <pt x="358" y="338" on="0"/>
        <pt x="402" y="308" on="0"/>
        <pt x="454" y="276" on="0"/>
        <pt x="498" y="233" on="0"/>
        <pt x="527" y="177" on="0"/>
        <pt x="527" y="138" on="1"/>
        <pt x="527" y="93" on="0"/>
        <pt x="494" y="30" on="0"/>
        <pt x="446" y="-9" on="0"/>
        <pt x="390" y="-27" on="0"/>
        <pt x="366" y="-27" on="1"/>
        <pt x="330" y="-27" on="0"/>
        <pt x="269" y="0" on="0"/>
        <pt x="249" y="17" on="1"/>
        <pt x="278" y="122" on="1"/>
        <pt x="295" y="93" on="0"/>
        <pt x="343" y="55" on="0"/>
        <pt x="373" y="55" on="1"/>
        <pt x="393" y="55" on="0"/>
        <pt x="423" y="91" on="0"/>
        <pt x="423" y="127" on="1"/>
        <pt x="423" y="162" on="0"/>
        <pt x="395" y="210" on="0"/>
        <pt x="353" y="245" on="0"/>
        <pt x="303" y="274" on="0"/>
        <pt x="261" y="307" on="0"/>
        <pt x="233" y="350" on="0"/>
        <pt x="233" y="383" on="1"/>
        <pt x="233" y="418" on="0"/>
        <pt x="262" y="472" on="0"/>
        <pt x="297" y="520" on="0"/>
        <pt x="326" y="568" on="0"/>
        <pt x="326" y="596" on="1"/>
        <pt x="326" y="620" on="0"/>
        <pt x="295" y="655" on="0"/>
        <pt x="265" y="655" on="1"/>
        <pt x="233" y="655" on="0"/>
        <pt x="196" y="627" on="0"/>
        <pt x="175" y="580" on="0"/>
        <pt x="169" y="519" on="0"/>
        <pt x="169" y="486" on="1"/>
      </contour>
    </TTGlyph>
    <TTGlyph name="grave" xMin="0" yMin="533" xMax="223" yMax="683">
      <contour>
        <pt x="200" y="533" on="1"/>
        <pt x="13" y="602" on="1"/>
        <pt x="6" y="604" on="0"/>
        <pt x="0" y="620" on="0"/>
        <pt x="0" y="631" on="1"/>
        <pt x="0" y="648" on="0"/>
        <pt x="16" y="683" on="0"/>
        <pt x="30" y="683" on="1"/>
        <pt x="34" y="683" on="0"/>
        <pt x="40" y="680" on="1"/>
        <pt x="220" y="579" on="1"/>
        <pt x="223" y="572" on="1"/>
        <pt x="208" y="536" on="1"/>
      </contour>
    </TTGlyph>
    <TTGlyph name="greater" xMin="54" yMin="11" xMax="358" yMax="467">
      <contour>
        <pt x="252" y="243" on="1"/>
        <pt x="55" y="374" on="1"/>
        <pt x="73" y="467" on="1"/>
        <pt x="358" y="273" on="1"/>
        <pt x="358" y="208" on="1"/>
        <pt x="72" y="11" on="1"/>
        <pt x="54" y="105" on="1"/>
        <pt x="252" y="238" on="1"/>
      </contour>
    </TTGlyph>
    <TTGlyph name="guillemotleft" xMin="43" yMin="61" xMax="483" yMax="420">
      <contour>
        <pt x="144" y="238" on="1"/>
        <pt x="289" y="61" on="1"/>
        <pt x="176" y="61" on="1"/>
        <pt x="43" y="239" on="1"/>
        <pt x="43" y="244" on="1"/>
        <pt x="177" y="420" on="1"/>
        <pt x="289" y="420" on="1"/>
        <pt x="144" y="243" on="1"/>
      </contour>
      <contour>
        <pt x="338" y="238" on="1"/>
        <pt x="483" y="61" on="1"/>
        <pt x="370" y="61" on="1"/>
        <pt x="237" y="239" on="1"/>
        <pt x="237" y="244" on="1"/>
        <pt x="371" y="420" on="1"/>
        <pt x="483" y="420" on="1"/>
        <pt x="338" y="243" on="1"/>
      </contour>
    </TTGlyph>
    <TTGlyph name="guillemotright" xMin="48" yMin="61" xMax="488" yMax="420">
      <contour>
        <pt x="387" y="243" on="1"/>
        <pt x="242" y="420" on="1"/>
        <pt x="354" y="420" on="1"/>
        <pt x="488" y="244" on="1"/>
        <pt x="488" y="239" on="1"/>
        <pt x="355" y="61" on="1"/>
        <pt x="242" y="61" on="1"/>
        <pt x="387" y="238" on="1"/>
      </contour>
      <contour>
        <pt x="193" y="243" on="1"/>
        <pt x="48" y="420" on="1"/>
        <pt x="160" y="420" on="1"/>
        <pt x="294" y="244" on="1"/>
        <pt x="294" y="239" on="1"/>
        <pt x="161" y="61" on="1"/>
        <pt x="48" y="61" on="1"/>
        <pt x="193" y="238" on="1"/>
      </contour>
    </TTGlyph>
    <TTGlyph name="guilsinglleft" xMin="43" yMin="61" xMax="289" yMax="420">
      <contour>
        <pt x="144" y="238" on="1"/>
        <pt x="289" y="61" on="1"/>
        <pt x="176" y="61" on="1"/>
        <pt x="43" y="239" on="1"/>
        <pt x="43" y="244" on="1"/>
        <pt x="177" y="420" on="1"/>
        <pt x="289" y="420" on="1"/>
        <pt x="144" y="243" on="1"/>
      </contour>
    </TTGlyph>
    <TTGlyph name="guilsinglright" xMin="48" yMin="61" xMax="294" yMax="420">
      <contour>
        <pt x="193" y="243" on="1"/>
        <pt x="48" y="420" on="1"/>
        <pt x="160" y="420" on="1"/>
        <pt x="294" y="244" on="1"/>
        <pt x="294" y="239" on="1"/>
        <pt x="161" y="61" on="1"/>
        <pt x="48" y="61" on="1"/>
        <pt x="193" y="238" on="1"/>
      </contour>
    </TTGlyph>
    <TTGlyph name="h" xMin="69" yMin="0" xMax="487" yMax="740">
      <contour>
        <pt x="179" y="392" on="1"/>
        <pt x="207" y="436" on="0"/>
        <pt x="282" y="475" on="0"/>
        <pt x="333" y="475" on="1"/>
        <pt x="363" y="475" on="0"/>
        <pt x="419" y="458" on="0"/>
        <pt x="462" y="420" on="0"/>
        <pt x="487" y="358" on="0"/>
        <pt x="487" y="313" on="1"/>
        <pt x="487" y="0" on="1"/>
        <pt x="377" y="0" on="1"/>
        <pt x="377" y="304" on="1"/>
        <pt x="377" y="345" on="0"/>
        <pt x="341" y="386" on="0"/>
        <pt x="310" y="386" on="1"/>
        <pt x="291" y="386" on="0"/>
        <pt x="250" y="374" on="0"/>
        <pt x="214" y="350" on="0"/>
        <pt x="186" y="316" on="0"/>
        <pt x="179" y="295" on="1"/>
        <pt x="179" y="0" on="1"/>
        <pt x="69" y="0" on="1"/>
        <pt x="69" y="740" on="1"/>
        <pt x="179" y="740" on="1"/>
      </contour>
    </TTGlyph>
    <TTGlyph name="hyphen" xMin="65" yMin="198" xMax="403" yMax="280">
      <contour>
        <pt x="403" y="280" on="1"/>
        <pt x="403" y="198" on="1"/>
        <pt x="65" y="198" on="1"/>
        <pt x="65" y="280" on="1"/>
      </contour>
    </TTGlyph>
    <TTGlyph name="i" xMin="53" yMin="0" xMax="197" yMax="681">
      <contour>
        <pt x="179" y="0" on="1"/>
        <pt x="69" y="0" on="1"/>
        <pt x="69" y="460" on="1"/>
        <pt x="179" y="460" on="1"/>
      </contour>
      <contour>
        <pt x="53" y="608" on="1"/>
        <pt x="53" y="622" on="0"/>
        <pt x="64" y="648" on="0"/>
        <pt x="84" y="669" on="0"/>
        <pt x="109" y="681" on="0"/>
        <pt x="124" y="681" on="1"/>
        <pt x="138" y="681" on="0"/>
        <pt x="164" y="669" on="0"/>
        <pt x="185" y="648" on="0"/>
        <pt x="197" y="622" on="0"/>
        <pt x="197" y="608" on="1"/>
        <pt x="197" y="593" on="0"/>
        <pt x="185" y="568" on="0"/>
        <pt x="164" y="548" on="0"/>
        <pt x="138" y="537" on="0"/>
        <pt x="124" y="537" on="1"/>
        <pt x="95" y="537" on="0"/>
        <pt x="53" y="579" on="0"/>
      </contour>
    </TTGlyph>
    <TTGlyph name="iacute" xMin="24" yMin="0" xMax="247" yMax="682">
      <contour>
        <pt x="179" y="0" on="1"/>
        <pt x="69" y="0" on="1"/>
        <pt x="69" y="460" on="1"/>
        <pt x="179" y="460" on="1"/>
      </contour>
      <contour>
        <pt x="39" y="535" on="1"/>
        <pt x="24" y="571" on="1"/>
        <pt x="27" y="578" on="1"/>
        <pt x="207" y="679" on="1"/>
        <pt x="213" y="682" on="0"/>
        <pt x="217" y="682" on="1"/>
        <pt x="231" y="682" on="0"/>
        <pt x="247" y="647" on="0"/>
        <pt x="247" y="630" on="1"/>
        <pt x="247" y="619" on="0"/>
        <pt x="241" y="603" on="0"/>
        <pt x="234" y="601" on="1"/>
        <pt x="47" y="532" on="1"/>
      </contour>
    </TTGlyph>
    <TTGlyph name="icircumflex" xMin="4" yMin="0" xMax="238" yMax="673">
      <contour>
        <pt x="179" y="0" on="1"/>
        <pt x="69" y="0" on="1"/>
        <pt x="69" y="460" on="1"/>
        <pt x="179" y="460" on="1"/>
      </contour>
      <contour>
        <pt x="125" y="673" on="1"/>
        <pt x="235" y="574" on="1"/>
        <pt x="238" y="567" on="1"/>
        <pt x="222" y="538" on="1"/>
        <pt x="215" y="535" on="1"/>
        <pt x="121" y="576" on="1"/>
        <pt x="27" y="535" on="1"/>
        <pt x="20" y="538" on="1"/>
        <pt x="4" y="567" on="1"/>
        <pt x="7" y="574" on="1"/>
        <pt x="117" y="673" on="1"/>
      </contour>
    </TTGlyph>
    <TTGlyph name="idieresis" xMin="-3" yMin="0" xMax="249" yMax="671">
      <contour>
        <pt x="179" y="0" on="1"/>
        <pt x="69" y="0" on="1"/>
        <pt x="69" y="460" on="1"/>
        <pt x="179" y="460" on="1"/>
      </contour>
      <contour>
        <pt x="-3" y="612" on="1"/>
        <pt x="-3" y="635" on="0"/>
        <pt x="31" y="671" on="0"/>
        <pt x="54" y="671" on="1"/>
        <pt x="77" y="671" on="0"/>
        <pt x="113" y="635" on="0"/>
        <pt x="113" y="612" on="1"/>
        <pt x="113" y="589" on="0"/>
        <pt x="77" y="555" on="0"/>
        <pt x="54" y="555" on="1"/>
        <pt x="31" y="555" on="0"/>
        <pt x="-3" y="589" on="0"/>
      </contour>
      <contour>
        <pt x="133" y="612" on="1"/>
        <pt x="133" y="635" on="0"/>
        <pt x="167" y="671" on="0"/>
        <pt x="190" y="671" on="1"/>
        <pt x="213" y="671" on="0"/>
        <pt x="249" y="635" on="0"/>
        <pt x="249" y="612" on="1"/>
        <pt x="249" y="589" on="0"/>
        <pt x="213" y="555" on="0"/>
        <pt x="190" y="555" on="1"/>
        <pt x="167" y="555" on="0"/>
        <pt x="133" y="589" on="0"/>
      </contour>
    </TTGlyph>
    <TTGlyph name="igrave" xMin="-24" yMin="0" xMax="199" yMax="681">
      <contour>
        <pt x="179" y="0" on="1"/>
        <pt x="69" y="0" on="1"/>
        <pt x="69" y="460" on="1"/>
        <pt x="179" y="460" on="1"/>
      </contour>
      <contour>
        <pt x="176" y="531" on="1"/>
        <pt x="-11" y="600" on="1"/>
        <pt x="-18" y="602" on="0"/>
        <pt x="-24" y="618" on="0"/>
        <pt x="-24" y="629" on="1"/>
        <pt x="-24" y="646" on="0"/>
        <pt x="-8" y="681" on="0"/>
        <pt x="6" y="681" on="1"/>
        <pt x="10" y="681" on="0"/>
        <pt x="16" y="678" on="1"/>
        <pt x="196" y="577" on="1"/>
        <pt x="199" y="570" on="1"/>
        <pt x="184" y="534" on="1"/>
      </contour>
    </TTGlyph>
    <TTGlyph name="ij" xMin="53" yMin="-258" xMax="410" yMax="681">
      <contour>
        <pt x="179" y="0" on="1"/>
        <pt x="69" y="0" on="1"/>
        <pt x="69" y="460" on="1"/>
        <pt x="179" y="460" on="1"/>
      </contour>
      <contour>
        <pt x="53" y="608" on="1"/>
        <pt x="53" y="622" on="0"/>
        <pt x="64" y="648" on="0"/>
        <pt x="84" y="669" on="0"/>
        <pt x="109" y="681" on="0"/>
        <pt x="124" y="681" on="1"/>
        <pt x="138" y="681" on="0"/>
        <pt x="164" y="669" on="0"/>
        <pt x="185" y="648" on="0"/>
        <pt x="197" y="622" on="0"/>
        <pt x="197" y="608" on="1"/>
        <pt x="197" y="593" on="0"/>
        <pt x="185" y="568" on="0"/>
        <pt x="164" y="548" on="0"/>
        <pt x="138" y="537" on="0"/>
        <pt x="124" y="537" on="1"/>
        <pt x="95" y="537" on="0"/>
        <pt x="53" y="579" on="0"/>
      </contour>
      <contour>
        <pt x="392" y="-3" on="1"/>
        <pt x="392" y="-54" on="0"/>
        <pt x="369" y="-146" on="0"/>
        <pt x="325" y="-217" on="0"/>
        <pt x="260" y="-258" on="0"/>
        <pt x="217" y="-258" on="1"/>
        <pt x="209" y="-258" on="0"/>
        <pt x="196" y="-257" on="0"/>
        <pt x="193" y="-255" on="1"/>
        <pt x="175" y="-188" on="1"/>
        <pt x="178" y="-190" on="0"/>
        <pt x="190" y="-191" on="0"/>
        <pt x="196" y="-191" on="1"/>
        <pt x="226" y="-191" on="0"/>
        <pt x="260" y="-154" on="0"/>
        <pt x="278" y="-97" on="0"/>
        <pt x="282" y="-31" on="0"/>
        <pt x="282" y="-2" on="1"/>
        <pt x="282" y="460" on="1"/>
        <pt x="392" y="460" on="1"/>
      </contour>
      <contour>
        <pt x="266" y="608" on="1"/>
        <pt x="266" y="622" on="0"/>
        <pt x="277" y="648" on="0"/>
        <pt x="297" y="669" on="0"/>
        <pt x="322" y="681" on="0"/>
        <pt x="337" y="681" on="1"/>
        <pt x="366" y="681" on="0"/>
        <pt x="410" y="636" on="0"/>
        <pt x="410" y="607" on="1"/>
        <pt x="410" y="578" on="0"/>
        <pt x="365" y="537" on="0"/>
        <pt x="336" y="537" on="1"/>
        <pt x="307" y="537" on="0"/>
        <pt x="266" y="579" on="0"/>
      </contour>
    </TTGlyph>
    <TTGlyph name="j" xMin="-38" yMin="-258" xMax="197" yMax="681">
      <contour>
        <pt x="179" y="-3" on="1"/>
        <pt x="179" y="-54" on="0"/>
        <pt x="156" y="-146" on="0"/>
        <pt x="112" y="-217" on="0"/>
        <pt x="47" y="-258" on="0"/>
        <pt x="4" y="-258" on="1"/>
        <pt x="-4" y="-258" on="0"/>
        <pt x="-17" y="-257" on="0"/>
        <pt x="-20" y="-255" on="1"/>
        <pt x="-38" y="-188" on="1"/>
        <pt x="-35" y="-190" on="0"/>
        <pt x="-23" y="-191" on="0"/>
        <pt x="-17" y="-191" on="1"/>
        <pt x="13" y="-191" on="0"/>
        <pt x="47" y="-154" on="0"/>
        <pt x="65" y="-97" on="0"/>
        <pt x="69" y="-31" on="0"/>
        <pt x="69" y="-2" on="1"/>
        <pt x="69" y="460" on="1"/>
        <pt x="179" y="460" on="1"/>
      </contour>
      <contour>
        <pt x="53" y="608" on="1"/>
        <pt x="53" y="622" on="0"/>
        <pt x="64" y="648" on="0"/>
        <pt x="84" y="669" on="0"/>
        <pt x="109" y="681" on="0"/>
        <pt x="124" y="681" on="1"/>
        <pt x="153" y="681" on="0"/>
        <pt x="197" y="636" on="0"/>
        <pt x="197" y="607" on="1"/>
        <pt x="197" y="578" on="0"/>
        <pt x="152" y="537" on="0"/>
        <pt x="123" y="537" on="1"/>
        <pt x="94" y="537" on="0"/>
        <pt x="53" y="579" on="0"/>
      </contour>
    </TTGlyph>
    <TTGlyph name="k" xMin="69" yMin="0" xMax="487" yMax="740">
      <contour>
        <pt x="291" y="298" on="1"/>
        <pt x="487" y="0" on="1"/>
        <pt x="367" y="0" on="1"/>
        <pt x="218" y="226" on="1"/>
        <pt x="179" y="187" on="1"/>
        <pt x="179" y="0" on="1"/>
        <pt x="69" y="0" on="1"/>
        <pt x="69" y="740" on="1"/>
        <pt x="179" y="740" on="1"/>
        <pt x="179" y="313" on="1"/>
        <pt x="332" y="460" on="1"/>
        <pt x="455" y="460" on="1"/>
      </contour>
    </TTGlyph>
    <TTGlyph name="kgreenlandic" xMin="69" yMin="0" xMax="487" yMax="460">
      <contour>
        <pt x="291" y="298" on="1"/>
        <pt x="487" y="0" on="1"/>
        <pt x="367" y="0" on="1"/>
        <pt x="218" y="226" on="1"/>
        <pt x="179" y="187" on="1"/>
        <pt x="179" y="0" on="1"/>
        <pt x="69" y="0" on="1"/>
        <pt x="69" y="460" on="1"/>
        <pt x="179" y="460" on="1"/>
        <pt x="179" y="313" on="1"/>
        <pt x="332" y="460" on="1"/>
        <pt x="455" y="460" on="1"/>
      </contour>
    </TTGlyph>
    <TTGlyph name="l" xMin="75" yMin="0" xMax="185" yMax="740">
      <contour>
        <pt x="185" y="0" on="1"/>
        <pt x="75" y="0" on="1"/>
        <pt x="75" y="740" on="1"/>
        <pt x="185" y="740" on="1"/>
      </contour>
    </TTGlyph>
    <TTGlyph name="less" xMin="39" yMin="11" xMax="343" yMax="467">
      <contour>
        <pt x="145" y="238" on="1"/>
        <pt x="343" y="105" on="1"/>
        <pt x="325" y="11" on="1"/>
        <pt x="39" y="208" on="1"/>
        <pt x="39" y="273" on="1"/>
        <pt x="324" y="467" on="1"/>
        <pt x="342" y="374" on="1"/>
        <pt x="145" y="243" on="1"/>
      </contour>
    </TTGlyph>
    <TTGlyph name="logicalnot" xMin="69" yMin="117" xMax="549" yMax="356">
      <contour>
        <pt x="549" y="356" on="1"/>
        <pt x="549" y="117" on="1"/>
        <pt x="456" y="117" on="1"/>
        <pt x="456" y="274" on="1"/>
        <pt x="69" y="274" on="1"/>
        <pt x="69" y="356" on="1"/>
      </contour>
    </TTGlyph>
    <TTGlyph name="m" xMin="69" yMin="0" xMax="775" yMax="475">
      <contour>
        <pt x="367" y="0" on="1"/>
        <pt x="367" y="304" on="1"/>
        <pt x="367" y="386" on="0"/>
        <pt x="302" y="386" on="1"/>
        <pt x="286" y="386" on="0"/>
        <pt x="249" y="374" on="0"/>
        <pt x="214" y="351" on="0"/>
        <pt x="185" y="317" on="0"/>
        <pt x="179" y="295" on="1"/>
        <pt x="179" y="0" on="1"/>
        <pt x="69" y="0" on="1"/>
        <pt x="69" y="460" on="1"/>
        <pt x="155" y="460" on="1"/>
        <pt x="160" y="392" on="1"/>
        <pt x="164" y="392" on="1"/>
        <pt x="184" y="434" on="0"/>
        <pt x="271" y="475" on="0"/>
        <pt x="320" y="475" on="1"/>
        <pt x="367" y="475" on="0"/>
        <pt x="444" y="438" on="0"/>
        <pt x="463" y="393" on="1"/>
        <pt x="483" y="434" on="0"/>
        <pt x="569" y="475" on="0"/>
        <pt x="618" y="475" on="1"/>
        <pt x="650" y="475" on="0"/>
        <pt x="707" y="458" on="0"/>
        <pt x="750" y="420" on="0"/>
        <pt x="775" y="358" on="0"/>
        <pt x="775" y="313" on="1"/>
        <pt x="775" y="0" on="1"/>
        <pt x="665" y="0" on="1"/>
        <pt x="665" y="304" on="1"/>
        <pt x="665" y="386" on="0"/>
        <pt x="600" y="386" on="1"/>
        <pt x="584" y="386" on="0"/>
        <pt x="547" y="374" on="0"/>
        <pt x="512" y="351" on="0"/>
        <pt x="483" y="317" on="0"/>
        <pt x="477" y="295" on="1"/>
        <pt x="477" y="0" on="1"/>
      </contour>
    </TTGlyph>
    <TTGlyph name="minus" xMin="69" yMin="198" xMax="483" yMax="280">
      <contour>
        <pt x="483" y="280" on="1"/>
        <pt x="483" y="198" on="1"/>
        <pt x="69" y="198" on="1"/>
        <pt x="69" y="280" on="1"/>
      </contour>
    </TTGlyph>
    <TTGlyph name="mu" xMin="31" yMin="-158" xMax="512" yMax="460">
      <contour>
        <pt x="217" y="460" on="1"/>
        <pt x="217" y="161" on="1"/>
        <pt x="217" y="120" on="0"/>
        <pt x="260" y="77" on="0"/>
        <pt x="294" y="77" on="1"/>
        <pt x="329" y="77" on="0"/>
        <pt x="387" y="125" on="0"/>
        <pt x="401" y="169" on="1"/>
        <pt x="401" y="460" on="1"/>
        <pt x="512" y="460" on="1"/>
        <pt x="512" y="0" on="1"/>
        <pt x="426" y="0" on="1"/>
        <pt x="420" y="64" on="1"/>
        <pt x="416" y="64" on="1"/>
        <pt x="405" y="41" on="0"/>
        <pt x="371" y="12" on="0"/>
        <pt x="331" y="-5" on="0"/>
        <pt x="287" y="-12" on="0"/>
        <pt x="266" y="-12" on="1"/>
        <pt x="224" y="-12" on="0"/>
        <pt x="191" y="0" on="1"/>
        <pt x="189" y="-8" on="1"/>
        <pt x="184" y="-29" on="0"/>
        <pt x="173" y="-65" on="0"/>
        <pt x="160" y="-100" on="0"/>
        <pt x="145" y="-137" on="0"/>
        <pt x="135" y="-158" on="1"/>
        <pt x="31" y="-111" on="1"/>
        <pt x="49" y="-77" on="0"/>
        <pt x="77" y="-16" on="0"/>
        <pt x="96" y="46" on="0"/>
        <pt x="107" y="110" on="0"/>
        <pt x="107" y="147" on="1"/>
        <pt x="107" y="460" on="1"/>
      </contour>
    </TTGlyph>
    <TTGlyph name="multiply" xMin="63" yMin="73" xMax="394" yMax="405">
      <contour>
        <pt x="228" y="187" on="1"/>
        <pt x="115" y="74" on="1"/>
        <pt x="63" y="126" on="1"/>
        <pt x="176" y="239" on="1"/>
        <pt x="63" y="351" on="1"/>
        <pt x="115" y="403" on="1"/>
        <pt x="228" y="291" on="1"/>
        <pt x="342" y="405" on="1"/>
        <pt x="394" y="353" on="1"/>
        <pt x="280" y="239" on="1"/>
        <pt x="394" y="124" on="1"/>
        <pt x="343" y="73" on="1"/>
      </contour>
    </TTGlyph>
    <TTGlyph name="n" xMin="69" yMin="0" xMax="487" yMax="475">
      <contour>
        <pt x="377" y="0" on="1"/>
        <pt x="377" y="304" on="1"/>
        <pt x="377" y="386" on="0"/>
        <pt x="307" y="386" on="1"/>
        <pt x="290" y="386" on="0"/>
        <pt x="251" y="374" on="0"/>
        <pt x="215" y="351" on="0"/>
        <pt x="186" y="317" on="0"/>
        <pt x="179" y="295" on="1"/>
        <pt x="179" y="0" on="1"/>
        <pt x="69" y="0" on="1"/>
        <pt x="69" y="460" on="1"/>
        <pt x="155" y="460" on="1"/>
        <pt x="160" y="392" on="1"/>
        <pt x="164" y="392" on="1"/>
        <pt x="185" y="434" on="0"/>
        <pt x="274" y="475" on="0"/>
        <pt x="325" y="475" on="1"/>
        <pt x="358" y="475" on="0"/>
        <pt x="416" y="458" on="0"/>
        <pt x="461" y="420" on="0"/>
        <pt x="487" y="358" on="0"/>
        <pt x="487" y="313" on="1"/>
        <pt x="487" y="0" on="1"/>
      </contour>
    </TTGlyph>
    <TTGlyph name="nine" xMin="45" yMin="-12" xMax="483" yMax="664">
      <contour>
        <pt x="373" y="321" on="1"/>
        <pt x="356" y="285" on="0"/>
        <pt x="285" y="251" on="0"/>
        <pt x="237" y="251" on="1"/>
        <pt x="180" y="251" on="0"/>
        <pt x="106" y="293" on="0"/>
        <pt x="62" y="355" on="0"/>
        <pt x="45" y="426" on="0"/>
        <pt x="45" y="456" on="1"/>
        <pt x="45" y="492" on="0"/>
        <pt x="68" y="566" on="0"/>
        <pt x="119" y="626" on="0"/>
        <pt x="200" y="664" on="0"/>
        <pt x="259" y="664" on="1"/>
        <pt x="321" y="664" on="0"/>
        <pt x="406" y="619" on="0"/>
        <pt x="459" y="537" on="0"/>
        <pt x="483" y="422" on="0"/>
        <pt x="483" y="352" on="1"/>
        <pt x="483" y="284" on="0"/>
        <pt x="460" y="153" on="0"/>
        <pt x="403" y="51" on="0"/>
        <pt x="308" y="-12" on="0"/>
        <pt x="237" y="-12" on="1"/>
        <pt x="219" y="-12" on="0"/>
        <pt x="175" y="-7" on="0"/>
        <pt x="130" y="5" on="0"/>
        <pt x="88" y="25" on="0"/>
        <pt x="73" y="40" on="1"/>
        <pt x="98" y="128" on="1"/>
        <pt x="131" y="103" on="0"/>
        <pt x="205" y="83" on="0"/>
        <pt x="233" y="83" on="1"/>
        <pt x="275" y="83" on="0"/>
        <pt x="330" y="120" on="0"/>
        <pt x="363" y="180" on="0"/>
        <pt x="377" y="254" on="0"/>
        <pt x="377" y="291" on="1"/>
        <pt x="377" y="299" on="0"/>
        <pt x="377" y="312" on="0"/>
        <pt x="376" y="320" on="1"/>
      </contour>
      <contour>
        <pt x="163" y="452" on="1"/>
        <pt x="163" y="431" on="0"/>
        <pt x="171" y="391" on="0"/>
        <pt x="192" y="360" on="0"/>
        <pt x="227" y="342" on="0"/>
        <pt x="253" y="342" on="1"/>
        <pt x="304" y="342" on="0"/>
        <pt x="355" y="408" on="0"/>
        <pt x="355" y="459" on="1"/>
        <pt x="355" y="511" on="0"/>
        <pt x="303" y="573" on="0"/>
        <pt x="258" y="573" on="1"/>
        <pt x="213" y="573" on="0"/>
        <pt x="163" y="509" on="0"/>
      </contour>
    </TTGlyph>
</ttFont>
